<?xml version="1.0" encoding="UTF-8"?>
<svg xmlns="http://www.w3.org/2000/svg" xmlns:xlink="http://www.w3.org/1999/xlink" version="1.2" >
<font id="Bebas Neue Regular">
<font-face  font-family="Bebas Neue" units-per-em="1000" ascent="750" descent="-250" font-style="normal" font-weight="400" font-stretch="normal" cap-height="700" x-height="700" underline-position="-85" underline-thickness="50" />
<missing-glyph  horiz-adv-x="548" d="M50 700 L498 700 L498 0 L50 0 L50 700 Z M232 358 L122 77 L177 77 L269 313 L361 77 L423 77 L313 358 L416 622 L361 622 L275 404 L190 622 L129 622 L232 358 Z " />
<glyph glyph-name="NULL" d="" />
<glyph glyph-name="nonmarkingreturn" unicode="&#xd;" horiz-adv-x="155" d="" />
<glyph glyph-name="space" unicode="&#x20;" horiz-adv-x="155" d="" />
<glyph glyph-name="Acircumflex" unicode="&#xc2;" horiz-adv-x="422" d="M157 737 L89 737 L175 837 L245 837 L331 737 L263 737 L210 796 L157 737 Z M119 141 L92 0 L20 0 L154 700 L267 700 L401 0 L323 0 L296 141 L119 141 Z M129 208 L285 208 L206 612 L129 208 Z " />
<glyph glyph-name="Adieresis" unicode="&#xc4;" horiz-adv-x="422" d="M182 827 L182 737 L114 737 L114 827 L182 827 Z M306 827 L306 737 L238 737 L238 827 L306 827 Z M119 141 L92 0 L20 0 L154 700 L267 700 L401 0 L323 0 L296 141 L119 141 Z M129 208 L285 208 L206 612 L129 208 Z " />
<glyph glyph-name="Agrave" unicode="&#xc0;" horiz-adv-x="422" d="M190 840 L260 737 L203 737 L110 840 L190 840 Z M119 141 L92 0 L20 0 L154 700 L267 700 L401 0 L323 0 L296 141 L119 141 Z M129 208 L285 208 L206 612 L129 208 Z " />
<glyph glyph-name="Amacron" unicode="&#x100;" horiz-adv-x="422" d="M316 806 L316 750 L104 750 L104 806 L316 806 Z M119 141 L92 0 L20 0 L154 700 L267 700 L401 0 L323 0 L296 141 L119 141 Z M129 208 L285 208 L206 612 L129 208 Z " />
<glyph glyph-name="Aogonek" unicode="&#x104;" horiz-adv-x="422" d="M373 0 Q355 -15 345.5 -35 Q336 -55 337 -69 Q338 -85 349 -92 Q360 -99 374 -99 Q388 -99 397 -96.5 Q406 -94 414 -90 L414 -131 Q399 -138 385 -140.5 Q371 -143 352 -143 Q319 -143 298.5 -129.5 Q278 -116 277 -87 Q276 -66 289 -45 Q302 -24 325 -7 L296 141 L119 141 L92 0 L20 0 L154 700 L267 700 L401 0 L373 0 Z M129 208 L285 208 L206 612 L129 208 Z " />
<glyph glyph-name="Aring" unicode="&#xc5;" horiz-adv-x="422" d="M210 883 Q241 883 262 862 Q283 841 283 810 Q283 778 262 757.5 Q241 737 210 737 Q178 737 157 757.5 Q136 778 136 810 Q136 841 157 862 Q178 883 210 883 Z M210 846 Q194 846 183.5 835.5 Q173 825 173 810 Q173 794 183.5 784 Q194 774 210 774 Q225 774 235.5 784 Q246 794 246 810 Q246 825 235.5 835.5 Q225 846 210 846 Z M119 141 L92 0 L20 0 L154 700 L267 700 L401 0 L323 0 L296 141 L119 141 Z M129 208 L285 208 L206 612 L129 208 Z " />
<glyph glyph-name="Atilde" unicode="&#xc3;" horiz-adv-x="422" d="M161 826 Q176 826 188.5 821.5 Q201 817 211.5 811 Q222 805 232 800.5 Q242 796 253 796 Q266 797 275.5 803.5 Q285 810 293 826 L332 799 Q320 770 302 756 Q284 742 261 742 Q246 742 234 746.5 Q222 751 211.5 756.5 Q201 762 191 766.5 Q181 771 169 771 Q155 771 145 764.5 Q135 758 127 741 L88 768 Q100 799 119 812 Q138 825 161 826 Z M119 141 L92 0 L20 0 L154 700 L267 700 L401 0 L323 0 L296 141 L119 141 Z M129 208 L285 208 L206 612 L129 208 Z " />
<glyph glyph-name="AE" unicode="&#xc6;" horiz-adv-x="585" d="M516 390 L516 320 L355 320 L355 71 L553 71 L553 0 L278 0 L278 142 L135 142 L90 0 L16 0 L234 700 L553 700 L553 629 L355 629 L355 390 L516 390 Z M153 210 L278 210 L278 602 L153 210 Z " />
<glyph glyph-name="AEacute" unicode="&#x1fc;" horiz-adv-x="585" d="M410 844 L317 741 L263 741 L333 844 L410 844 Z M516 390 L516 320 L355 320 L355 71 L553 71 L553 0 L278 0 L278 142 L135 142 L90 0 L16 0 L234 700 L553 700 L553 629 L355 629 L355 390 L516 390 Z M153 210 L278 210 L278 602 L153 210 Z " />
<glyph glyph-name="B" unicode="B" horiz-adv-x="392" d="M197 700 Q279 700 314 661.5 Q349 623 349 545 L349 512 Q349 456 331 421.5 Q313 387 267 373 Q318 359 339.5 320 Q361 281 361 223 L361 164 Q361 85 322 42.5 Q283 0 201 0 L40 0 L40 700 L197 700 Z M178 403 Q225 403 248.5 422 Q272 441 272 496 L272 537 Q272 584 254.5 606.5 Q237 629 195 629 L118 629 L118 403 L178 403 Z M201 71 Q284 71 284 166 L284 228 Q284 287 260.5 309.5 Q237 332 186 332 L118 332 L118 71 L201 71 Z " />
<glyph glyph-name="C" unicode="C" horiz-adv-x="380" d="M191 707 Q272 707 310.5 659 Q349 611 349 531 L349 468 L275 468 L275 535 Q275 583 255.5 609.5 Q236 636 193 636 Q151 636 131 609.5 Q111 583 111 535 L111 165 Q111 117 131 90.5 Q151 64 193 64 Q236 64 255.5 90.5 Q275 117 275 165 L275 256 L349 256 L349 169 Q349 89 310.5 41 Q272 -7 191 -7 Q111 -7 72.5 41 Q34 89 34 169 L34 531 Q34 571 43.5 603.5 Q53 636 72.5 659 Q92 682 121.5 694.5 Q151 707 191 707 Z " />
<glyph glyph-name="Cacute" unicode="&#x106;" horiz-adv-x="380" d="M293 845 L200 742 L145 742 L215 845 L293 845 Z M191 707 Q272 707 310.5 659 Q349 611 349 531 L349 468 L275 468 L275 535 Q275 583 255.5 609.5 Q236 636 193 636 Q151 636 131 609.5 Q111 583 111 535 L111 165 Q111 117 131 90.5 Q151 64 193 64 Q236 64 255.5 90.5 Q275 117 275 165 L275 256 L349 256 L349 169 Q349 89 310.5 41 Q272 -7 191 -7 Q111 -7 72.5 41 Q34 89 34 169 L34 531 Q34 571 43.5 603.5 Q53 636 72.5 659 Q92 682 121.5 694.5 Q151 707 191 707 Z " />
<glyph glyph-name="Ccaron" unicode="&#x10c;" horiz-adv-x="380" d="M141 841 L193 781 L246 841 L315 841 L228 741 L159 741 L73 841 L141 841 Z M191 707 Q272 707 310.5 659 Q349 611 349 531 L349 468 L275 468 L275 535 Q275 583 255.5 609.5 Q236 636 193 636 Q151 636 131 609.5 Q111 583 111 535 L111 165 Q111 117 131 90.5 Q151 64 193 64 Q236 64 255.5 90.5 Q275 117 275 165 L275 256 L349 256 L349 169 Q349 89 310.5 41 Q272 -7 191 -7 Q111 -7 72.5 41 Q34 89 34 169 L34 531 Q34 571 43.5 603.5 Q53 636 72.5 659 Q92 682 121.5 694.5 Q151 707 191 707 Z " />
<glyph glyph-name="Ccedilla" unicode="&#xc7;" horiz-adv-x="380" d="M191 707 Q272 707 310.5 659 Q349 611 349 531 L349 468 L275 468 L275 535 Q275 583 255.5 609.5 Q236 636 193 636 Q151 636 131 609.5 Q111 583 111 535 L111 165 Q111 117 131 90.5 Q151 64 193 64 Q236 64 255.5 90.5 Q275 117 275 165 L275 256 L349 256 L349 169 Q349 94 314.5 46.5 Q280 -1 208 -6 L208 -37 Q243 -37 262.5 -50.5 Q282 -64 282 -88 Q282 -118 257 -135 Q232 -152 187 -152 Q143 -152 119 -135.5 Q95 -119 95 -90 L95 -82 L146 -82 L146 -89 Q146 -115 187 -118 Q230 -118 230 -86 Q230 -56 181 -56 L172 -56 L172 -6 Q101 -1 67.5 47 Q34 95 34 169 L34 531 Q34 571 43.5 603.5 Q53 636 72.5 659 Q92 682 121.5 694.5 Q151 707 191 707 Z " />
<glyph glyph-name="Ccircumflex" unicode="&#x108;" horiz-adv-x="380" d="M140 740 L72 740 L158 841 L227 841 L314 740 L246 740 L193 799 L140 740 Z M191 707 Q272 707 310.5 659 Q349 611 349 531 L349 468 L275 468 L275 535 Q275 583 255.5 609.5 Q236 636 193 636 Q151 636 131 609.5 Q111 583 111 535 L111 165 Q111 117 131 90.5 Q151 64 193 64 Q236 64 255.5 90.5 Q275 117 275 165 L275 256 L349 256 L349 169 Q349 89 310.5 41 Q272 -7 191 -7 Q111 -7 72.5 41 Q34 89 34 169 L34 531 Q34 571 43.5 603.5 Q53 636 72.5 659 Q92 682 121.5 694.5 Q151 707 191 707 Z " />
<glyph glyph-name="Cdotaccent" unicode="&#x10a;" horiz-adv-x="380" d="M225 828 L225 738 L157 738 L157 828 L225 828 Z M191 707 Q272 707 310.5 659 Q349 611 349 531 L349 468 L275 468 L275 535 Q275 583 255.5 609.5 Q236 636 193 636 Q151 636 131 609.5 Q111 583 111 535 L111 165 Q111 117 131 90.5 Q151 64 193 64 Q236 64 255.5 90.5 Q275 117 275 165 L275 256 L349 256 L349 169 Q349 89 310.5 41 Q272 -7 191 -7 Q111 -7 72.5 41 Q34 89 34 169 L34 531 Q34 571 43.5 603.5 Q53 636 72.5 659 Q92 682 121.5 694.5 Q151 707 191 707 Z " />
<glyph glyph-name="D" unicode="D" horiz-adv-x="396" d="M204 700 Q286 700 324.5 653.5 Q363 607 363 526 L363 173 Q363 92 324.5 46 Q286 0 204 0 L40 0 L40 700 L204 700 Z M203 71 Q245 71 265.5 96.5 Q286 122 286 170 L286 530 Q286 578 265.5 603.5 Q245 629 202 629 L118 629 L118 71 L203 71 Z " />
<glyph glyph-name="Eth" unicode="&#xd0;" horiz-adv-x="396" d="M204 700 Q286 700 324.5 653.5 Q363 607 363 526 L363 173 Q363 92 324.5 46 Q286 0 204 0 L40 0 L40 318 L-1 318 L-1 382 L40 382 L40 700 L204 700 Z M196 318 L118 318 L118 71 L203 71 Q245 71 265.5 96.5 Q286 122 286 170 L286 530 Q286 578 265.5 603.5 Q245 629 202 629 L118 629 L118 382 L196 382 L196 318 Z " />
<glyph glyph-name="Dcaron" unicode="&#x10e;" horiz-adv-x="396" d="M135 839 L188 779 L241 839 L310 839 L223 739 L154 739 L67 839 L135 839 Z M204 700 Q286 700 324.5 653.5 Q363 607 363 526 L363 173 Q363 92 324.5 46 Q286 0 204 0 L40 0 L40 700 L204 700 Z M203 71 Q245 71 265.5 96.5 Q286 122 286 170 L286 530 Q286 578 265.5 603.5 Q245 629 202 629 L118 629 L118 71 L203 71 Z " />
<glyph glyph-name="Dcroat" unicode="&#x110;" horiz-adv-x="396" d="M204 700 Q286 700 324.5 653.5 Q363 607 363 526 L363 173 Q363 92 324.5 46 Q286 0 204 0 L40 0 L40 318 L1 318 L1 381 L40 381 L40 700 L204 700 Z M197 318 L118 318 L118 71 L203 71 Q245 71 265.5 96.5 Q286 122 286 170 L286 530 Q286 578 265.5 603.5 Q245 629 202 629 L118 629 L118 381 L197 381 L197 318 Z " />
<glyph glyph-name="E" unicode="E" horiz-adv-x="360" d="M289 390 L289 320 L118 320 L118 71 L328 71 L328 0 L40 0 L40 700 L328 700 L328 629 L118 629 L118 390 L289 390 Z " />
<glyph glyph-name="Eacute" unicode="&#xc9;" horiz-adv-x="360" d="M283 842 L190 739 L136 739 L206 842 L283 842 Z M289 390 L289 320 L118 320 L118 71 L328 71 L328 0 L40 0 L40 700 L328 700 L328 629 L118 629 L118 390 L289 390 Z " />
<glyph glyph-name="Ebreve" unicode="&#x114;" horiz-adv-x="360" d="M287 840 Q286 792 258.5 765.5 Q231 739 181 739 Q133 739 106 765.5 Q79 792 78 840 L125 840 Q127 811 142.5 799.5 Q158 788 181 788 Q206 788 222 799.5 Q238 811 240 840 L287 840 Z M289 390 L289 320 L118 320 L118 71 L328 71 L328 0 L40 0 L40 700 L328 700 L328 629 L118 629 L118 390 L289 390 Z " />
<glyph glyph-name="Ecaron" unicode="&#x11a;" horiz-adv-x="360" d="M131 839 L183 779 L237 839 L305 839 L218 739 L149 739 L63 839 L131 839 Z M289 390 L289 320 L118 320 L118 71 L328 71 L328 0 L40 0 L40 700 L328 700 L328 629 L118 629 L118 390 L289 390 Z " />
<glyph glyph-name="Ecircumflex" unicode="&#xca;" horiz-adv-x="360" d="M130 739 L62 739 L148 840 L217 840 L304 739 L236 739 L182 799 L130 739 Z M289 390 L289 320 L118 320 L118 71 L328 71 L328 0 L40 0 L40 700 L328 700 L328 629 L118 629 L118 390 L289 390 Z " />
<glyph glyph-name="Edieresis" unicode="&#xcb;" horiz-adv-x="360" d="M155 829 L155 739 L87 739 L87 829 L155 829 Z M279 829 L279 739 L211 739 L211 829 L279 829 Z M289 390 L289 320 L118 320 L118 71 L328 71 L328 0 L40 0 L40 700 L328 700 L328 629 L118 629 L118 390 L289 390 Z " />
<glyph glyph-name="Edotaccent" unicode="&#x116;" horiz-adv-x="360" d="M218 830 L218 740 L150 740 L150 830 L218 830 Z M289 390 L289 320 L118 320 L118 71 L328 71 L328 0 L40 0 L40 700 L328 700 L328 629 L118 629 L118 390 L289 390 Z " />
<glyph glyph-name="Egrave" unicode="&#xc8;" horiz-adv-x="360" d="M167 845 L236 742 L179 742 L86 845 L167 845 Z M289 390 L289 320 L118 320 L118 71 L328 71 L328 0 L40 0 L40 700 L328 700 L328 629 L118 629 L118 390 L289 390 Z " />
<glyph glyph-name="Emacron" unicode="&#x112;" horiz-adv-x="360" d="M286 807 L286 752 L77 752 L77 807 L286 807 Z M289 390 L289 320 L118 320 L118 71 L328 71 L328 0 L40 0 L40 700 L328 700 L328 629 L118 629 L118 390 L289 390 Z " />
<glyph glyph-name="Eogonek" unicode="&#x118;" horiz-adv-x="360" d="M289 390 L289 320 L118 320 L118 71 L328 71 L328 0 L295 0 Q276 -15 267 -35 Q258 -55 258 -69 Q259 -85 270 -92 Q281 -99 296 -99 Q310 -99 318.5 -96.5 Q327 -94 335 -90 L335 -131 Q320 -138 306 -140.5 Q292 -143 274 -143 Q240 -143 219.5 -129.5 Q199 -116 198 -87 Q198 -63 214.5 -40 Q231 -17 259 0 L40 0 L40 700 L328 700 L328 629 L118 629 L118 390 L289 390 Z " />
<glyph glyph-name="F" unicode="F" horiz-adv-x="340" d="M279 374 L279 303 L118 303 L118 0 L40 0 L40 700 L318 700 L318 629 L118 629 L118 374 L279 374 Z " />
<glyph glyph-name="G" unicode="G" horiz-adv-x="383" d="M191 707 Q272 707 310.5 659 Q349 611 349 531 L349 471 L275 471 L275 535 Q275 583 255.5 609.5 Q236 636 193 636 Q151 636 131 609.5 Q111 583 111 535 L111 165 Q111 117 131 90.5 Q151 64 193 64 Q236 64 255.5 90.5 Q275 117 275 165 L275 305 L203 305 L203 375 L349 375 L349 169 Q349 89 310.5 41 Q272 -7 191 -7 Q111 -7 72.5 41 Q34 89 34 169 L34 531 Q34 571 43.5 603.5 Q53 636 72.5 659 Q92 682 121.5 694.5 Q151 707 191 707 Z " />
<glyph glyph-name="Gbreve" unicode="&#x11e;" horiz-adv-x="383" d="M296 841 Q295 793 267.5 766.5 Q240 740 191 740 Q142 740 115 766.5 Q88 793 87 841 L134 841 Q136 812 151.5 800.5 Q167 789 191 789 Q215 789 231 800.5 Q247 812 249 841 L296 841 Z M191 707 Q272 707 310.5 659 Q349 611 349 531 L349 471 L275 471 L275 535 Q275 583 255.5 609.5 Q236 636 193 636 Q151 636 131 609.5 Q111 583 111 535 L111 165 Q111 117 131 90.5 Q151 64 193 64 Q236 64 255.5 90.5 Q275 117 275 165 L275 305 L203 305 L203 375 L349 375 L349 169 Q349 89 310.5 41 Q272 -7 191 -7 Q111 -7 72.5 41 Q34 89 34 169 L34 531 Q34 571 43.5 603.5 Q53 636 72.5 659 Q92 682 121.5 694.5 Q151 707 191 707 Z " />
<glyph glyph-name="Gcircumflex" unicode="&#x11c;" horiz-adv-x="383" d="M139 742 L71 742 L157 842 L226 842 L313 742 L245 742 L191 801 L139 742 Z M191 707 Q272 707 310.5 659 Q349 611 349 531 L349 471 L275 471 L275 535 Q275 583 255.5 609.5 Q236 636 193 636 Q151 636 131 609.5 Q111 583 111 535 L111 165 Q111 117 131 90.5 Q151 64 193 64 Q236 64 255.5 90.5 Q275 117 275 165 L275 305 L203 305 L203 375 L349 375 L349 169 Q349 89 310.5 41 Q272 -7 191 -7 Q111 -7 72.5 41 Q34 89 34 169 L34 531 Q34 571 43.5 603.5 Q53 636 72.5 659 Q92 682 121.5 694.5 Q151 707 191 707 Z " />
<glyph glyph-name="Gdotaccent" unicode="&#x120;" horiz-adv-x="383" d="M228 830 L228 740 L160 740 L160 830 L228 830 Z M191 707 Q272 707 310.5 659 Q349 611 349 531 L349 471 L275 471 L275 535 Q275 583 255.5 609.5 Q236 636 193 636 Q151 636 131 609.5 Q111 583 111 535 L111 165 Q111 117 131 90.5 Q151 64 193 64 Q236 64 255.5 90.5 Q275 117 275 165 L275 305 L203 305 L203 375 L349 375 L349 169 Q349 89 310.5 41 Q272 -7 191 -7 Q111 -7 72.5 41 Q34 89 34 169 L34 531 Q34 571 43.5 603.5 Q53 636 72.5 659 Q92 682 121.5 694.5 Q151 707 191 707 Z " />
<glyph glyph-name="H" unicode="H" horiz-adv-x="408" d="M118 315 L118 0 L40 0 L40 700 L118 700 L118 385 L290 385 L290 700 L368 700 L368 0 L290 0 L290 315 L118 315 Z " />
<glyph glyph-name="Hbar" unicode="&#x126;" horiz-adv-x="415" d="M372 514 L372 0 L293 0 L293 315 L121 315 L121 0 L43 0 L43 514 L7 514 L7 572 L43 572 L43 700 L121 700 L121 572 L293 572 L293 700 L372 700 L372 572 L408 572 L408 514 L372 514 Z M293 514 L121 514 L121 385 L293 385 L293 514 Z " />
<glyph glyph-name="Hcircumflex" unicode="&#x124;" horiz-adv-x="408" d="M151 741 L83 741 L170 842 L239 842 L325 741 L257 741 L204 800 L151 741 Z M118 315 L118 0 L40 0 L40 700 L118 700 L118 385 L290 385 L290 700 L368 700 L368 0 L290 0 L290 315 L118 315 Z " />
<glyph glyph-name="I" unicode="I" horiz-adv-x="158" d="M118 700 L118 0 L40 0 L40 700 L118 700 Z " />
<glyph glyph-name="IJ" unicode="&#x132;" horiz-adv-x="412" d="M118 700 L118 0 L40 0 L40 700 L118 700 Z M376 173 Q376 123 364.5 90 Q353 57 332.5 37 Q312 17 284.5 8.5 Q257 0 225 -1 Q211 -1 200.5 -1 Q190 -1 177 0 L177 71 Q187 70 196.5 70 Q206 70 215 70 Q255 72 276.5 93.5 Q298 115 298 168 L298 700 L376 700 L376 173 Z " />
<glyph glyph-name="Iacute" unicode="&#xcd;" horiz-adv-x="158" d="M100 842 L178 842 L85 739 L31 739 L100 842 Z M40 700 L118 700 L118 0 L40 0 L40 700 Z " />
<glyph glyph-name="Ibreve" unicode="&#x12c;" horiz-adv-x="158" d="M183 838 Q183 790 155 763 Q127 736 78 736 Q29 736 2.5 763 Q-24 790 -25 838 L22 838 Q24 808 39.5 796.5 Q55 785 78 785 Q102 785 118 796.5 Q134 808 136 838 L183 838 Z M40 700 L118 700 L118 0 L40 0 L40 700 Z " />
<glyph glyph-name="Icircumflex" unicode="&#xce;" horiz-adv-x="158" d="M113 839 L200 739 L132 739 L79 798 L26 739 L-42 739 L44 839 L113 839 Z M40 700 L118 700 L118 0 L40 0 L40 700 Z " />
<glyph glyph-name="Idieresis" unicode="&#xcf;" horiz-adv-x="158" d="M51 829 L51 739 L-17 739 L-17 829 L51 829 Z M175 829 L175 739 L107 739 L107 829 L175 829 Z M118 700 L118 0 L40 0 L40 700 L118 700 Z " />
<glyph glyph-name="Idotaccent" unicode="&#x130;" horiz-adv-x="158" d="M113 829 L113 739 L45 739 L45 829 L113 829 Z M118 700 L118 0 L40 0 L40 700 L118 700 Z " />
<glyph glyph-name="Igrave" unicode="&#xcc;" horiz-adv-x="158" d="M-25 842 L56 842 L126 739 L68 739 L-25 842 Z M40 700 L118 700 L118 0 L40 0 L40 700 Z " />
<glyph glyph-name="Imacron" unicode="&#x12a;" horiz-adv-x="158" d="M178 806 L178 750 L-21 750 L-21 806 L178 806 Z M118 700 L118 0 L40 0 L40 700 L118 700 Z " />
<glyph glyph-name="Iogonek" unicode="&#x12e;" horiz-adv-x="158" d="M104 0 Q85 -15 76 -35 Q67 -55 68 -69 Q68 -85 79 -92 Q90 -99 105 -99 Q119 -99 127.5 -96.5 Q136 -94 145 -90 L145 -131 Q130 -138 115.5 -140.5 Q101 -143 83 -143 Q50 -143 29 -129.5 Q8 -116 8 -87 Q7 -64 23 -41 Q39 -18 69 0 L40 0 L40 700 L118 700 L118 0 L104 0 Z " />
<glyph glyph-name="Itilde" unicode="&#x128;" horiz-adv-x="158" d="M201 802 Q179 744 130 744 Q115 744 103.5 748.5 Q92 753 81 758.5 Q70 764 60 768.5 Q50 773 38 773 Q24 773 14 767 Q4 761 -4 744 L-43 770 Q-30 801 -11 814.5 Q8 828 31 828 Q46 828 58 823.5 Q70 819 80.5 813.5 Q91 808 101.5 803.5 Q112 799 123 799 Q136 799 145.5 805.5 Q155 812 163 828 L201 802 Z M118 700 L118 0 L40 0 L40 700 L118 700 Z " />
<glyph glyph-name="J" unicode="J" horiz-adv-x="255" d="M20 71 Q30 70 40 70 Q50 70 59 70 Q97 72 119 93.5 Q141 115 141 168 L141 700 L218 700 L218 173 Q218 124 206.5 91 Q195 58 175 37.5 Q155 17 127.5 8.5 Q100 0 69 -1 Q55 -1 44 -1.5 Q33 -2 20 0 L20 71 Z " />
<glyph glyph-name="Jcircumflex" unicode="&#x134;" horiz-adv-x="255" d="M114 739 L46 739 L132 840 L201 840 L288 739 L220 739 L167 799 L114 739 Z M218 173 Q218 124 206.5 91 Q195 58 175 37.5 Q155 17 127.5 8.5 Q100 0 69 -1 Q55 -1 44 -1.5 Q33 -2 20 0 L20 71 Q30 70 40 70 Q50 70 59 70 Q97 72 119 93.5 Q141 115 141 168 L141 700 L218 700 L218 173 Z " />
<glyph glyph-name="K" unicode="K" horiz-adv-x="409" d="M159 304 L118 235 L118 0 L40 0 L40 700 L118 700 L118 362 L304 700 L383 700 L206 381 L389 0 L309 0 L159 304 Z " />
<glyph glyph-name="L" unicode="L" horiz-adv-x="337" d="M40 0 L40 700 L118 700 L118 71 L318 71 L318 0 L40 0 Z " />
<glyph glyph-name="Lacute" unicode="&#x139;" horiz-adv-x="337" d="M206 842 L113 739 L59 739 L129 842 L206 842 Z M40 0 L40 700 L118 700 L118 71 L318 71 L318 0 L40 0 Z " />
<glyph glyph-name="Lcaron" unicode="&#x13d;" horiz-adv-x="337" d="M40 0 L40 700 L118 700 L118 71 L318 71 L318 0 L40 0 Z M242 603 L213 603 L213 700 L288 700 L288 611 L250 515 L217 515 L242 603 Z " />
<glyph glyph-name="Ldot" unicode="&#x13f;" horiz-adv-x="337" d="M40 0 L40 700 L118 700 L118 71 L318 71 L318 0 L40 0 Z M272 400 L272 303 L197 303 L197 400 L272 400 Z " />
<glyph glyph-name="Lslash" unicode="&#x141;" horiz-adv-x="348" d="M128 291 L128 71 L329 71 L329 0 L51 0 L51 208 L0 158 L0 230 L51 280 L51 700 L128 700 L128 363 L237 476 L237 404 L128 291 Z " />
<glyph glyph-name="M" unicode="M" horiz-adv-x="523" d="M298 1 L223 1 L107 558 L107 0 L39 0 L39 700 L148 700 L263 141 L374 700 L483 700 L483 0 L409 0 L409 563 L298 1 Z " />
<glyph glyph-name="N" unicode="N" horiz-adv-x="409" d="M109 0 L39 0 L39 700 L138 700 L300 194 L300 700 L369 700 L369 0 L288 0 L109 566 L109 0 Z " />
<glyph glyph-name="Nacute" unicode="&#x143;" horiz-adv-x="409" d="M306 842 L213 740 L159 740 L229 842 L306 842 Z M109 0 L39 0 L39 700 L138 700 L300 194 L300 700 L369 700 L369 0 L288 0 L109 567 L109 0 Z " />
<glyph glyph-name="Ncaron" unicode="&#x147;" horiz-adv-x="409" d="M152 842 L205 782 L258 842 L326 842 L240 741 L171 741 L84 842 L152 842 Z M109 0 L39 0 L39 700 L138 700 L300 194 L300 700 L369 700 L369 0 L288 0 L109 566 L109 0 Z " />
<glyph glyph-name="Ntilde" unicode="&#xd1;" horiz-adv-x="409" d="M327 804 Q315 774 297 760 Q279 746 256 746 Q241 746 229 750.5 Q217 755 206.5 760.5 Q196 766 186 770.5 Q176 775 164 775 Q150 775 140 769 Q130 763 122 746 L83 772 Q95 803 114 816.5 Q133 830 157 830 Q172 830 184 825.5 Q196 821 206.5 815.5 Q217 810 227 805.5 Q237 801 248 801 Q274 801 288 830 L327 804 Z M109 0 L39 0 L39 700 L138 700 L300 194 L300 700 L369 700 L369 0 L288 0 L109 566 L109 0 Z " />
<glyph glyph-name="O" unicode="O" horiz-adv-x="389" d="M34 531 Q34 612 73.5 659.5 Q113 707 194 707 Q275 707 315 659.5 Q355 612 355 531 L355 169 Q355 89 315 41 Q275 -7 194 -7 Q113 -7 73.5 41 Q34 89 34 169 L34 531 Z M111 165 Q111 117 131.5 90.5 Q152 64 194 64 Q237 64 257 90.5 Q277 117 277 165 L277 535 Q277 583 257 609.5 Q237 636 194 636 Q152 636 131.5 609.5 Q111 583 111 535 L111 165 Z " />
<glyph glyph-name="Oacute" unicode="&#xd3;" horiz-adv-x="389" d="M293 845 L200 742 L146 742 L216 845 L293 845 Z M194 707 Q275 707 315 659.5 Q355 612 355 531 L355 169 Q355 89 315 41 Q275 -7 194 -7 Q113 -7 73.5 41 Q34 89 34 169 L34 531 Q34 612 73.5 659.5 Q113 707 194 707 Z M194 636 Q152 636 131.5 609.5 Q111 583 111 535 L111 165 Q111 117 131.5 90.5 Q152 64 194 64 Q237 64 257 90.5 Q277 117 277 165 L277 535 Q277 583 257 609.5 Q237 636 194 636 Z " />
<glyph glyph-name="Obreve" unicode="&#x14e;" horiz-adv-x="389" d="M299 841 Q298 793 270.5 766.5 Q243 740 193 740 Q145 740 118 766.5 Q91 793 90 841 L137 841 Q139 812 154.5 800.5 Q170 789 193 789 Q218 789 234 800.5 Q250 812 252 841 L299 841 Z M194 707 Q275 707 315 659.5 Q355 612 355 531 L355 169 Q355 89 315 41 Q275 -7 194 -7 Q113 -7 73.5 41 Q34 89 34 169 L34 531 Q34 612 73.5 659.5 Q113 707 194 707 Z M194 636 Q152 636 131.5 609.5 Q111 583 111 535 L111 165 Q111 117 131.5 90.5 Q152 64 194 64 Q237 64 257 90.5 Q277 117 277 165 L277 535 Q277 583 257 609.5 Q237 636 194 636 Z " />
<glyph glyph-name="Ocircumflex" unicode="&#xd4;" horiz-adv-x="389" d="M141 741 L73 741 L159 842 L228 842 L315 741 L247 741 L193 800 L141 741 Z M194 707 Q275 707 315 659.5 Q355 612 355 531 L355 169 Q355 89 315 41 Q275 -7 194 -7 Q113 -7 73.5 41 Q34 89 34 169 L34 531 Q34 612 73.5 659.5 Q113 707 194 707 Z M194 636 Q152 636 131.5 609.5 Q111 583 111 535 L111 165 Q111 117 131.5 90.5 Q152 64 194 64 Q237 64 257 90.5 Q277 117 277 165 L277 535 Q277 583 257 609.5 Q237 636 194 636 Z " />
<glyph glyph-name="Odieresis" unicode="&#xd6;" horiz-adv-x="389" d="M166 831 L166 741 L98 741 L98 831 L166 831 Z M290 831 L290 741 L222 741 L222 831 L290 831 Z M194 707 Q275 707 315 659.5 Q355 612 355 531 L355 169 Q355 89 315 41 Q275 -7 194 -7 Q113 -7 73.5 41 Q34 89 34 169 L34 531 Q34 612 73.5 659.5 Q113 707 194 707 Z M194 636 Q152 636 131.5 609.5 Q111 583 111 535 L111 165 Q111 117 131.5 90.5 Q152 64 194 64 Q237 64 257 90.5 Q277 117 277 165 L277 535 Q277 583 257 609.5 Q237 636 194 636 Z " />
<glyph glyph-name="Ograve" unicode="&#xd2;" horiz-adv-x="389" d="M174 845 L243 742 L186 742 L93 845 L174 845 Z M194 707 Q275 707 315 659.5 Q355 612 355 531 L355 169 Q355 89 315 41 Q275 -7 194 -7 Q113 -7 73.5 41 Q34 89 34 169 L34 531 Q34 612 73.5 659.5 Q113 707 194 707 Z M194 636 Q152 636 131.5 609.5 Q111 583 111 535 L111 165 Q111 117 131.5 90.5 Q152 64 194 64 Q237 64 257 90.5 Q277 117 277 165 L277 535 Q277 583 257 609.5 Q237 636 194 636 Z " />
<glyph glyph-name="Ohungarumlaut" unicode="&#x150;" horiz-adv-x="389" d="M230 845 L150 742 L101 742 L158 845 L230 845 Z M338 845 L257 742 L208 742 L265 845 L338 845 Z M194 707 Q275 707 315 659.5 Q355 612 355 531 L355 169 Q355 89 315 41 Q275 -7 194 -7 Q113 -7 73.5 41 Q34 89 34 169 L34 531 Q34 612 73.5 659.5 Q113 707 194 707 Z M194 636 Q152 636 131.5 609.5 Q111 583 111 535 L111 165 Q111 117 131.5 90.5 Q152 64 194 64 Q237 64 257 90.5 Q277 117 277 165 L277 535 Q277 583 257 609.5 Q237 636 194 636 Z " />
<glyph glyph-name="Omacron" unicode="&#x14c;" horiz-adv-x="389" d="M299 806 L299 751 L91 751 L91 806 L299 806 Z M194 707 Q275 707 315 659.5 Q355 612 355 531 L355 169 Q355 89 315 41 Q275 -7 194 -7 Q113 -7 73.5 41 Q34 89 34 169 L34 531 Q34 612 73.5 659.5 Q113 707 194 707 Z M194 636 Q152 636 131.5 609.5 Q111 583 111 535 L111 165 Q111 117 131.5 90.5 Q152 64 194 64 Q237 64 257 90.5 Q277 117 277 165 L277 535 Q277 583 257 609.5 Q237 636 194 636 Z " />
<glyph glyph-name="Oslash" unicode="&#xd8;" horiz-adv-x="389" d="M325 646 Q355 601 355 531 L355 169 Q355 89 315 41 Q275 -7 194 -7 Q131 -7 92 24 L73 -26 L39 -13 L64 54 Q34 99 34 169 L34 531 Q34 612 73.5 659.5 Q113 707 194 707 Q257 707 297 676 L315 725 L350 712 L325 646 Z M266 594 Q246 636 194 636 Q152 636 131.5 609.5 Q111 583 111 535 L111 180 L266 594 Z M194 64 Q237 64 257 90.5 Q277 117 277 165 L277 518 L122 105 Q142 64 194 64 Z " />
<glyph glyph-name="Oslashacute" unicode="&#x1fe;" horiz-adv-x="389" d="M219 845 L297 845 L204 742 L149 742 L219 845 Z M325 646 Q355 601 355 531 L355 169 Q355 89 315 41 Q275 -7 194 -7 Q131 -7 92 24 L73 -26 L39 -13 L64 54 Q34 99 34 169 L34 531 Q34 612 73.5 659.5 Q113 707 194 707 Q257 707 297 676 L315 725 L350 712 L325 646 Z M266 594 Q246 636 194 636 Q152 636 131.5 609.5 Q111 583 111 535 L111 180 L266 594 Z M194 64 Q237 64 257 90.5 Q277 117 277 165 L277 518 L122 105 Q142 64 194 64 Z " />
<glyph glyph-name="Otilde" unicode="&#xd5;" horiz-adv-x="389" d="M318 802 Q307 772 288.5 758.5 Q270 745 247 745 Q232 745 220.5 749.5 Q209 754 198 759.5 Q187 765 177 769.5 Q167 774 155 774 Q141 774 131 767.5 Q121 761 113 744 L74 771 Q87 802 106 815 Q125 828 148 829 Q163 829 175 824.5 Q187 820 197.5 814 Q208 808 218.5 803.5 Q229 799 240 799 Q253 800 262.5 806.5 Q272 813 280 829 L318 802 Z M194 707 Q275 707 315 659.5 Q355 612 355 531 L355 169 Q355 89 315 41 Q275 -7 194 -7 Q113 -7 73.5 41 Q34 89 34 169 L34 531 Q34 612 73.5 659.5 Q113 707 194 707 Z M194 636 Q152 636 131.5 609.5 Q111 583 111 535 L111 165 Q111 117 131.5 90.5 Q152 64 194 64 Q237 64 257 90.5 Q277 117 277 165 L277 535 Q277 583 257 609.5 Q237 636 194 636 Z " />
<glyph glyph-name="OE" unicode="&#x152;" horiz-adv-x="577" d="M508 390 L508 320 L347 320 L347 71 L545 71 L545 0 L188 0 Q107 0 70 47.5 Q33 95 33 174 L33 526 Q33 605 70 652.5 Q107 700 188 700 L545 700 L545 629 L347 629 L347 390 L508 390 Z M189 629 Q147 629 129 602 Q111 575 111 530 L111 170 Q111 125 129 98 Q147 71 189 71 L270 71 L270 629 L189 629 Z " />
<glyph glyph-name="P" unicode="P" horiz-adv-x="374" d="M193 700 Q276 700 313 654.5 Q350 609 350 529 L350 445 Q350 361 310.5 318.5 Q271 276 187 276 L118 276 L118 0 L40 0 L40 700 L193 700 Z M187 346 Q231 346 252 367.5 Q273 389 273 440 L273 533 Q273 581 254.5 605 Q236 629 193 629 L118 629 L118 346 L187 346 Z " />
<glyph glyph-name="Thorn" unicode="&#xde;" horiz-adv-x="377" d="M193 599 Q276 599 313 553.5 Q350 508 350 427 L350 344 Q350 259 310.5 216.5 Q271 174 187 174 L118 174 L118 0 L40 0 L40 700 L118 700 L118 599 L193 599 Z M187 245 Q231 245 252 266.5 Q273 288 273 339 L273 432 Q273 480 254.5 504 Q236 528 193 528 L118 528 L118 245 L187 245 Z " />
<glyph glyph-name="Q" unicode="Q" horiz-adv-x="402" d="M194 707 Q275 707 315 659.5 Q355 612 355 531 L355 169 Q355 102 328 60 Q334 47 344 42.5 Q354 38 371 38 L381 38 L381 -31 L368 -31 Q304 -31 279 14 Q262 4 241 -1.5 Q220 -7 194 -7 Q113 -7 73.5 41 Q34 89 34 169 L34 531 Q34 612 73.5 659.5 Q113 707 194 707 Z M194 636 Q152 636 131.5 609.5 Q111 583 111 535 L111 165 Q111 117 131.5 90.5 Q152 64 194 64 Q237 64 257 90.5 Q277 117 277 165 L277 535 Q277 583 257 609.5 Q237 636 194 636 Z " />
<glyph glyph-name="R" unicode="R" horiz-adv-x="394" d="M196 700 Q279 700 315.5 659 Q352 618 352 540 L352 483 Q352 425 331 389 Q310 353 265 339 Q313 325 333 287.5 Q353 250 353 193 L353 84 Q353 61 355 39.5 Q357 18 367 0 L288 0 Q281 15 278 32.5 Q275 50 275 85 L275 195 Q275 254 248.5 276.5 Q222 299 173 299 L118 299 L118 0 L40 0 L40 700 L196 700 Z M176 370 Q223 370 249 389.5 Q275 409 275 466 L275 533 Q275 581 256.5 605 Q238 629 194 629 L118 629 L118 370 L176 370 Z " />
<glyph glyph-name="Racute" unicode="&#x154;" horiz-adv-x="394" d="M287 845 L194 742 L140 742 L209 845 L287 845 Z M196 700 Q279 700 315.5 659 Q352 618 352 540 L352 483 Q352 425 331 389 Q310 353 265 339 Q313 325 333 287.5 Q353 250 353 193 L353 84 Q353 61 355 39.5 Q357 18 367 0 L288 0 Q281 15 278 32.5 Q275 50 275 85 L275 195 Q275 254 248.5 276.5 Q222 299 173 299 L118 299 L118 0 L40 0 L40 700 L196 700 Z M176 370 Q223 370 249 389.5 Q275 409 275 466 L275 533 Q275 581 256.5 605 Q238 629 194 629 L118 629 L118 370 L176 370 Z " />
<glyph glyph-name="Rcaron" unicode="&#x158;" horiz-adv-x="394" d="M133 842 L186 782 L239 842 L307 842 L220 742 L151 742 L65 842 L133 842 Z M196 700 Q279 700 315.5 659 Q352 618 352 540 L352 483 Q352 425 331 389 Q310 353 265 339 Q313 325 333 287.5 Q353 250 353 193 L353 84 Q353 61 355 39.5 Q357 18 367 0 L288 0 Q281 15 278 32.5 Q275 50 275 85 L275 195 Q275 254 248.5 276.5 Q222 299 173 299 L118 299 L118 0 L40 0 L40 700 L196 700 Z M176 370 Q223 370 249 389.5 Q275 409 275 466 L275 533 Q275 581 256.5 605 Q238 629 194 629 L118 629 L118 370 L176 370 Z " />
<glyph glyph-name="S" unicode="S" horiz-adv-x="372" d="M187 707 Q267 707 305 659.5 Q343 612 343 532 L343 513 L269 513 L269 536 Q269 584 250 610 Q231 636 189 636 Q147 636 128 610 Q109 584 109 537 Q109 498 126.5 469 Q144 440 170 415.5 Q196 391 226.5 367.5 Q257 344 283 316 Q309 288 326.5 252.5 Q344 217 344 168 Q344 88 305.5 40.5 Q267 -7 186 -7 Q105 -7 67 40.5 Q29 88 29 168 L29 208 L102 208 L102 164 Q102 116 122 90 Q142 64 184 64 Q226 64 246 90 Q266 116 266 164 Q266 203 248.5 231.5 Q231 260 205 284.5 Q179 309 149 332.5 Q119 356 93 384 Q67 412 49.5 447.5 Q32 483 32 532 Q32 613 70 660 Q108 707 187 707 Z " />
<glyph glyph-name="Sacute" unicode="&#x15a;" horiz-adv-x="372" d="M289 845 L196 742 L142 742 L211 845 L289 845 Z M187 707 Q267 707 305 659.5 Q343 612 343 532 L343 513 L269 513 L269 536 Q269 584 250 610 Q231 636 189 636 Q147 636 128 610 Q109 584 109 537 Q109 498 126.5 469 Q144 440 170 415.5 Q196 391 226.5 367.5 Q257 344 283 316 Q309 288 326.5 252.5 Q344 217 344 168 Q344 88 305.5 40.5 Q267 -7 186 -7 Q105 -7 67 40.5 Q29 88 29 168 L29 208 L102 208 L102 164 Q102 116 122 90 Q142 64 184 64 Q226 64 246 90 Q266 116 266 164 Q266 203 248.5 231.5 Q231 260 205 284.5 Q179 309 149 332.5 Q119 356 93 384 Q67 412 49.5 447.5 Q32 483 32 532 Q32 613 70 660 Q108 707 187 707 Z " />
<glyph glyph-name="Scaron" unicode="&#x160;" horiz-adv-x="372" d="M135 842 L187 782 L240 842 L309 842 L222 742 L153 742 L67 842 L135 842 Z M187 707 Q267 707 305 659.5 Q343 612 343 532 L343 513 L269 513 L269 536 Q269 584 250 610 Q231 636 189 636 Q147 636 128 610 Q109 584 109 537 Q109 498 126.5 469 Q144 440 170 415.5 Q196 391 226.5 367.5 Q257 344 283 316 Q309 288 326.5 252.5 Q344 217 344 168 Q344 88 305.5 40.5 Q267 -7 186 -7 Q105 -7 67 40.5 Q29 88 29 168 L29 208 L102 208 L102 164 Q102 116 122 90 Q142 64 184 64 Q226 64 246 90 Q266 116 266 164 Q266 203 248.5 231.5 Q231 260 205 284.5 Q179 309 149 332.5 Q119 356 93 384 Q67 412 49.5 447.5 Q32 483 32 532 Q32 613 70 660 Q108 707 187 707 Z " />
<glyph glyph-name="Scedilla" unicode="&#x15e;" horiz-adv-x="372" d="M201 -37 Q236 -37 255.5 -50.5 Q275 -64 275 -88 Q275 -118 250 -135 Q225 -152 180 -152 Q136 -152 112 -135.5 Q88 -119 88 -90 L88 -82 L139 -82 L139 -89 Q139 -115 180 -118 Q223 -118 223 -86 Q223 -56 174 -56 L165 -56 L165 -6 Q94 0 61.5 46.5 Q29 93 29 168 L29 208 L102 208 L102 164 Q102 116 122 90 Q142 64 184 64 Q226 64 246 90 Q266 116 266 164 Q266 203 248.5 231.5 Q231 260 205 284.5 Q179 309 149 332.5 Q119 356 93 384 Q67 412 49.5 447.5 Q32 483 32 532 Q32 613 70 660 Q108 707 187 707 Q267 707 305 659.5 Q343 612 343 532 L343 513 L269 513 L269 536 Q269 584 250 610 Q231 636 189 636 Q147 636 128 610 Q109 584 109 537 Q109 498 126.5 469 Q144 440 170 415.5 Q196 391 226.5 367.5 Q257 344 283 316 Q309 288 326.5 252.5 Q344 217 344 168 Q344 92 309 45.5 Q274 -1 201 -6 L201 -37 Z " />
<glyph glyph-name="Scircumflex" unicode="&#x15c;" horiz-adv-x="372" d="M135 741 L67 741 L154 842 L223 842 L309 741 L241 741 L188 800 L135 741 Z M187 707 Q267 707 305 659.5 Q343 612 343 532 L343 513 L269 513 L269 536 Q269 584 250 610 Q231 636 189 636 Q147 636 128 610 Q109 584 109 537 Q109 498 126.5 469 Q144 440 170 415.5 Q196 391 226.5 367.5 Q257 344 283 316 Q309 288 326.5 252.5 Q344 217 344 168 Q344 88 305.5 40.5 Q267 -7 186 -7 Q105 -7 67 40.5 Q29 88 29 168 L29 208 L102 208 L102 164 Q102 116 122 90 Q142 64 184 64 Q226 64 246 90 Q266 116 266 164 Q266 203 248.5 231.5 Q231 260 205 284.5 Q179 309 149 332.5 Q119 356 93 384 Q67 412 49.5 447.5 Q32 483 32 532 Q32 613 70 660 Q108 707 187 707 Z " />
<glyph glyph-name="T" unicode="T" horiz-adv-x="363" d="M142 0 L142 629 L13 629 L13 700 L349 700 L349 629 L220 629 L220 0 L142 0 Z " />
<glyph glyph-name="Tbar" unicode="&#x166;" horiz-adv-x="372" d="M296 476 L296 418 L225 418 L225 0 L147 0 L147 418 L76 418 L76 476 L147 476 L147 629 L18 629 L18 700 L354 700 L354 629 L225 629 L225 476 L296 476 Z " />
<glyph glyph-name="Tcaron" unicode="&#x164;" horiz-adv-x="372" d="M133 840 L185 780 L239 840 L307 840 L220 739 L151 739 L65 840 L133 840 Z M147 0 L147 629 L18 629 L18 700 L354 700 L354 629 L225 629 L225 0 L147 0 Z " />
<glyph glyph-name="U" unicode="U" horiz-adv-x="387" d="M114 165 Q114 117 133.5 90.5 Q153 64 196 64 Q238 64 257.5 90.5 Q277 117 277 165 L277 700 L350 700 L350 169 Q350 89 312 40.5 Q274 -8 193 -8 Q113 -8 75 40.5 Q37 89 37 169 L37 700 L114 700 L114 165 Z " />
<glyph glyph-name="Uacute" unicode="&#xda;" horiz-adv-x="387" d="M296 845 L203 742 L149 742 L219 845 L296 845 Z M350 169 Q350 89 312 40.5 Q274 -8 193 -8 Q113 -8 75 40.5 Q37 89 37 169 L37 700 L114 700 L114 165 Q114 117 133.5 90.5 Q153 64 196 64 Q238 64 257.5 90.5 Q277 117 277 165 L277 700 L350 700 L350 169 Z " />
<glyph glyph-name="Ubreve" unicode="&#x16c;" horiz-adv-x="387" d="M299 838 Q298 790 270.5 763 Q243 736 194 736 Q145 736 118 763 Q91 790 90 838 L137 838 Q139 808 154.5 796.5 Q170 785 194 785 Q218 785 234 796.5 Q250 808 252 838 L299 838 Z M350 169 Q350 89 312 40.5 Q274 -8 193 -8 Q113 -8 75 40.5 Q37 89 37 169 L37 700 L114 700 L114 165 Q114 117 133.5 90.5 Q153 64 196 64 Q238 64 257.5 90.5 Q277 117 277 165 L277 700 L350 700 L350 169 Z " />
<glyph glyph-name="Ucircumflex" unicode="&#xdb;" horiz-adv-x="387" d="M142 741 L74 741 L160 842 L229 842 L316 741 L248 741 L194 800 L142 741 Z M350 169 Q350 89 312 40.5 Q274 -8 193 -8 Q113 -8 75 40.5 Q37 89 37 169 L37 700 L114 700 L114 165 Q114 117 133.5 90.5 Q153 64 196 64 Q238 64 257.5 90.5 Q277 117 277 165 L277 700 L350 700 L350 169 Z " />
<glyph glyph-name="Udieresis" unicode="&#xdc;" horiz-adv-x="387" d="M167 830 L167 740 L98 740 L98 830 L167 830 Z M291 830 L291 740 L223 740 L223 830 L291 830 Z M350 169 Q350 89 312 40.5 Q274 -8 193 -8 Q113 -8 75 40.5 Q37 89 37 169 L37 700 L114 700 L114 165 Q114 117 133.5 90.5 Q153 64 196 64 Q238 64 257.5 90.5 Q277 117 277 165 L277 700 L350 700 L350 169 Z " />
<glyph glyph-name="Ugrave" unicode="&#xd9;" horiz-adv-x="387" d="M173 842 L243 739 L185 739 L92 842 L173 842 Z M350 169 Q350 89 312 40.5 Q274 -8 193 -8 Q113 -8 75 40.5 Q37 89 37 169 L37 700 L114 700 L114 165 Q114 117 133.5 90.5 Q153 64 196 64 Q238 64 257.5 90.5 Q277 117 277 165 L277 700 L350 700 L350 169 Z " />
<glyph glyph-name="Uhungarumlaut" unicode="&#x170;" horiz-adv-x="387" d="M229 844 L149 741 L100 741 L157 844 L229 844 Z M337 844 L256 741 L208 741 L264 844 L337 844 Z M350 169 Q350 89 312 40.5 Q274 -8 193 -8 Q113 -8 75 40.5 Q37 89 37 169 L37 700 L114 700 L114 165 Q114 117 133.5 90.5 Q153 64 196 64 Q238 64 257.5 90.5 Q277 117 277 165 L277 700 L350 700 L350 169 Z " />
<glyph glyph-name="Umacron" unicode="&#x16a;" horiz-adv-x="387" d="M298 806 L298 750 L93 750 L93 806 L298 806 Z M350 169 Q350 89 312 40.5 Q274 -8 193 -8 Q113 -8 75 40.5 Q37 89 37 169 L37 700 L114 700 L114 165 Q114 117 133.5 90.5 Q153 64 196 64 Q238 64 257.5 90.5 Q277 117 277 165 L277 700 L350 700 L350 169 Z " />
<glyph glyph-name="Uogonek" unicode="&#x172;" horiz-adv-x="387" d="M350 169 Q350 144 347 120.5 Q344 97 335.5 75.5 Q327 54 312.5 36 Q298 18 275 5 Q255 -11 245 -32.5 Q235 -54 236 -69 Q236 -85 247.5 -92 Q259 -99 273 -99 Q287 -99 296 -96.5 Q305 -94 313 -90 L313 -131 Q298 -138 284 -140.5 Q270 -143 251 -143 Q218 -143 197 -129.5 Q176 -116 176 -87 Q175 -64 189.5 -42.5 Q204 -21 229 -4 Q214 -8 193 -8 Q113 -8 75 40.5 Q37 89 37 169 L37 700 L114 700 L114 165 Q114 117 133.5 90.5 Q153 64 196 64 Q238 64 257.5 90.5 Q277 117 277 165 L277 700 L350 700 L350 169 Z " />
<glyph glyph-name="Uring" unicode="&#x16e;" horiz-adv-x="387" d="M196 881 Q227 881 248.5 860 Q270 839 270 808 Q270 777 248.5 756 Q227 735 196 735 Q165 735 144 756 Q123 777 123 808 Q123 839 144 860 Q165 881 196 881 Z M196 844 Q181 844 170.5 834 Q160 824 160 808 Q160 792 170.5 782 Q181 772 196 772 Q211 772 222 782 Q233 792 233 808 Q233 824 222 834 Q211 844 196 844 Z M350 169 Q350 89 312 40.5 Q274 -8 193 -8 Q113 -8 75 40.5 Q37 89 37 169 L37 700 L114 700 L114 165 Q114 117 133.5 90.5 Q153 64 196 64 Q238 64 257.5 90.5 Q277 117 277 165 L277 700 L350 700 L350 169 Z " />
<glyph glyph-name="Utilde" unicode="&#x168;" horiz-adv-x="387" d="M317 802 Q305 772 286.5 758.5 Q268 745 245 745 Q230 745 218.5 749.5 Q207 754 196.5 759.5 Q186 765 176 769.5 Q166 774 154 774 Q140 774 130 767.5 Q120 761 112 744 L73 771 Q85 802 104 815 Q123 828 146 829 Q161 829 173 824.5 Q185 820 195.5 814 Q206 808 216.5 803.5 Q227 799 238 799 Q251 800 260.5 806.5 Q270 813 278 829 L317 802 Z M350 169 Q350 89 312 40.5 Q274 -8 193 -8 Q113 -8 75 40.5 Q37 89 37 169 L37 700 L114 700 L114 165 Q114 117 133.5 90.5 Q153 64 196 64 Q238 64 257.5 90.5 Q277 117 277 165 L277 700 L350 700 L350 169 Z " />
<glyph glyph-name="V" unicode="V" horiz-adv-x="418" d="M99 700 L213 91 L326 700 L398 700 L267 0 L152 0 L20 700 L99 700 Z " />
<glyph glyph-name="W" unicode="W" horiz-adv-x="583" d="M226 0 L119 0 L23 700 L99 700 L181 104 L259 699 L336 699 L413 103 L492 700 L560 700 L465 0 L362 0 L295 475 L226 0 Z " />
<glyph glyph-name="Wacute" unicode="&#x1e82;" horiz-adv-x="583" d="M391 842 L298 739 L243 739 L313 842 L391 842 Z M226 0 L119 0 L23 700 L99 700 L181 104 L259 699 L336 699 L413 103 L492 700 L560 700 L465 0 L362 0 L295 475 L226 0 Z " />
<glyph glyph-name="Wcircumflex" unicode="&#x174;" horiz-adv-x="583" d="M240 740 L172 740 L258 841 L327 841 L414 740 L346 740 L293 799 L240 740 Z M226 0 L119 0 L23 700 L99 700 L181 104 L259 699 L336 699 L413 103 L492 700 L560 700 L465 0 L362 0 L295 475 L226 0 Z " />
<glyph glyph-name="Wdieresis" unicode="&#x1e84;" horiz-adv-x="583" d="M265 831 L265 741 L197 741 L197 831 L265 831 Z M389 831 L389 741 L321 741 L321 831 L389 831 Z M226 0 L119 0 L23 700 L99 700 L181 104 L259 699 L336 699 L413 103 L492 700 L560 700 L465 0 L362 0 L295 475 L226 0 Z " />
<glyph glyph-name="Wgrave" unicode="&#x1e80;" horiz-adv-x="583" d="M277 845 L346 742 L289 742 L196 845 L277 845 Z M226 0 L119 0 L23 700 L99 700 L181 104 L259 699 L336 699 L413 103 L492 700 L560 700 L465 0 L362 0 L295 475 L226 0 Z " />
<glyph glyph-name="X" unicode="X" horiz-adv-x="435" d="M214 302 L97 0 L23 0 L164 361 L32 700 L113 700 L221 420 L330 700 L403 700 L272 361 L412 0 L330 0 L214 302 Z " />
<glyph glyph-name="Y" unicode="Y" horiz-adv-x="406" d="M164 251 L16 700 L97 700 L206 356 L316 700 L390 700 L241 251 L241 0 L164 0 L164 251 Z " />
<glyph glyph-name="Yacute" unicode="&#xdd;" horiz-adv-x="406" d="M307 842 L214 739 L160 739 L230 842 L307 842 Z M164 251 L16 700 L97 700 L206 356 L316 700 L390 700 L241 251 L241 0 L164 0 L164 251 Z " />
<glyph glyph-name="Ycircumflex" unicode="&#x176;" horiz-adv-x="406" d="M153 740 L85 740 L171 840 L240 840 L327 740 L259 740 L206 799 L153 740 Z M164 251 L16 700 L97 700 L206 356 L316 700 L390 700 L241 251 L241 0 L164 0 L164 251 Z " />
<glyph glyph-name="Ydieresis" unicode="&#x178;" horiz-adv-x="406" d="M177 829 L177 739 L109 739 L109 829 L177 829 Z M301 829 L301 739 L233 739 L233 829 L301 829 Z M164 251 L16 700 L97 700 L206 356 L316 700 L390 700 L241 251 L241 0 L164 0 L164 251 Z " />
<glyph glyph-name="Ygrave" unicode="&#x1ef2;" horiz-adv-x="406" d="M186 845 L255 742 L198 742 L105 845 L186 845 Z M164 251 L16 700 L97 700 L206 356 L316 700 L390 700 L241 251 L241 0 L164 0 L164 251 Z " />
<glyph glyph-name="Z" unicode="Z" horiz-adv-x="379" d="M347 0 L29 0 L29 70 L269 629 L40 629 L40 700 L349 700 L349 630 L108 71 L347 71 L347 0 Z " />
<glyph glyph-name="Zacute" unicode="&#x179;" horiz-adv-x="379" d="M297 845 L204 742 L150 742 L219 845 L297 845 Z M347 0 L29 0 L29 70 L269 629 L40 629 L40 700 L349 700 L349 630 L108 71 L347 71 L347 0 Z " />
<glyph glyph-name="Zcaron" unicode="&#x17d;" horiz-adv-x="379" d="M141 842 L193 782 L247 842 L315 842 L228 741 L159 741 L73 842 L141 842 Z M347 0 L29 0 L29 70 L269 629 L40 629 L40 700 L349 700 L349 630 L108 71 L347 71 L347 0 Z " />
<glyph glyph-name="Zdotaccent" unicode="&#x17b;" horiz-adv-x="379" d="M231 832 L231 742 L163 742 L163 832 L231 832 Z M347 0 L29 0 L29 70 L269 629 L40 629 L40 700 L349 700 L349 630 L108 71 L347 71 L347 0 Z " />
<glyph glyph-name="uni0122" unicode="&#x122;" horiz-adv-x="383" d="M191 707 Q272 707 310.5 659 Q349 611 349 531 L349 471 L275 471 L275 535 Q275 583 255.5 609.5 Q236 636 193 636 Q151 636 131 609.5 Q111 583 111 535 L111 165 Q111 117 131 90.5 Q151 64 193 64 Q236 64 255.5 90.5 Q275 117 275 165 L275 305 L203 305 L203 375 L349 375 L349 169 Q349 89 310.5 41 Q272 -7 191 -7 Q111 -7 72.5 41 Q34 89 34 169 L34 531 Q34 571 43.5 603.5 Q53 636 72.5 659 Q92 682 121.5 694.5 Q151 707 191 707 Z M183 -121 L158 -121 L158 -33 L224 -33 L224 -114 L189 -177 L160 -177 L183 -121 Z " />
<glyph glyph-name="uni0136" unicode="&#x136;" horiz-adv-x="409" d="M159 304 L118 235 L118 0 L40 0 L40 700 L118 700 L118 362 L304 700 L383 700 L206 381 L389 0 L309 0 L159 304 Z M197 -121 L172 -121 L172 -33 L238 -33 L238 -114 L203 -177 L174 -177 L197 -121 Z " />
<glyph glyph-name="uni013B" unicode="&#x13b;" horiz-adv-x="337" d="M40 0 L40 700 L118 700 L118 71 L318 71 L318 0 L40 0 Z M174 -122 L149 -122 L149 -35 L215 -35 L215 -116 L180 -179 L151 -179 L174 -122 Z " />
<glyph glyph-name="uni0145" unicode="&#x145;" horiz-adv-x="409" d="M109 0 L39 0 L39 700 L138 700 L300 194 L300 700 L369 700 L369 0 L288 0 L109 566 L109 0 Z M196 -121 L171 -121 L171 -33 L236 -33 L236 -114 L201 -177 L173 -177 L196 -121 Z " />
<glyph glyph-name="uni0156" unicode="&#x156;" horiz-adv-x="394" d="M196 700 Q279 700 315.5 659 Q352 618 352 540 L352 483 Q352 425 331 389 Q310 353 265 339 Q313 325 333 287.5 Q353 250 353 193 L353 84 Q353 61 355 39.5 Q357 18 367 0 L288 0 Q281 15 278 32.5 Q275 50 275 85 L275 195 Q275 254 248.5 276.5 Q222 299 173 299 L118 299 L118 0 L40 0 L40 700 L196 700 Z M176 370 Q223 370 249 389.5 Q275 409 275 466 L275 533 Q275 581 256.5 605 Q238 629 194 629 L118 629 L118 370 L176 370 Z M188 -120 L164 -120 L164 -33 L229 -33 L229 -114 L194 -177 L165 -177 L188 -120 Z " />
<glyph glyph-name="uni0162" unicode="&#x162;" horiz-adv-x="372" d="M204 0 L204 -38 Q233 -38 252 -51.5 Q271 -65 271 -94 Q271 -114 263.5 -128.5 Q256 -143 244 -152 Q232 -161 216 -164.5 Q200 -168 183 -168 Q167 -168 151.5 -164 Q136 -160 124 -152 Q112 -144 104.5 -131.5 Q97 -119 97 -102 L97 -94 L144 -94 L144 -102 Q144 -119 156.5 -125 Q169 -131 182 -131 Q198 -131 210.5 -123 Q223 -115 223 -97 Q223 -77 209.5 -70.5 Q196 -64 176 -64 L167 -64 L167 0 L147 0 L147 629 L18 629 L18 700 L354 700 L354 629 L225 629 L225 0 L204 0 Z " />
<glyph glyph-name="uni0218" unicode="&#x218;" horiz-adv-x="372" d="M187 707 Q267 707 305 659.5 Q343 612 343 532 L343 513 L269 513 L269 536 Q269 584 250 610 Q231 636 189 636 Q147 636 128 610 Q109 584 109 537 Q109 498 126.5 469 Q144 440 170 415.5 Q196 391 226.5 367.5 Q257 344 283 316 Q309 288 326.5 252.5 Q344 217 344 168 Q344 88 305.5 40.5 Q267 -7 186 -7 Q105 -7 67 40.5 Q29 88 29 168 L29 208 L102 208 L102 164 Q102 116 122 90 Q142 64 184 64 Q226 64 246 90 Q266 116 266 164 Q266 203 248.5 231.5 Q231 260 205 284.5 Q179 309 149 332.5 Q119 356 93 384 Q67 412 49.5 447.5 Q32 483 32 532 Q32 613 70 660 Q108 707 187 707 Z M176 -121 L151 -121 L151 -33 L217 -33 L217 -114 L182 -177 L153 -177 L176 -121 Z " />
<glyph glyph-name="uni021A" unicode="&#x21a;" horiz-adv-x="372" d="M147 0 L147 629 L18 629 L18 700 L354 700 L354 629 L225 629 L225 0 L147 0 Z M178 -121 L153 -121 L153 -33 L219 -33 L219 -114 L184 -177 L155 -177 L178 -121 Z " />
<glyph glyph-name="uni1E02" unicode="&#x1e02;" horiz-adv-x="392" d="M212 830 L212 740 L144 740 L144 830 L212 830 Z M197 700 Q279 700 314 661.5 Q349 623 349 545 L349 512 Q349 456 331 421.5 Q313 387 267 373 Q318 359 339.5 320 Q361 281 361 223 L361 164 Q361 85 322 42.5 Q283 0 201 0 L40 0 L40 700 L197 700 Z M178 403 Q225 403 248.5 422 Q272 441 272 496 L272 537 Q272 584 254.5 606.5 Q237 629 195 629 L118 629 L118 403 L178 403 Z M201 71 Q284 71 284 166 L284 228 Q284 287 260.5 309.5 Q237 332 186 332 L118 332 L118 71 L201 71 Z " />
<glyph glyph-name="uni1E0A" unicode="&#x1e0a;" horiz-adv-x="396" d="M219 830 L219 740 L151 740 L151 830 L219 830 Z M204 700 Q286 700 324.5 653.5 Q363 607 363 526 L363 173 Q363 92 324.5 46 Q286 0 204 0 L40 0 L40 700 L204 700 Z M203 71 Q245 71 265.5 96.5 Q286 122 286 170 L286 530 Q286 578 265.5 603.5 Q245 629 202 629 L118 629 L118 71 L203 71 Z " />
<glyph glyph-name="uni1E1E" unicode="&#x1e1e;" horiz-adv-x="340" d="M211 829 L211 739 L143 739 L143 829 L211 829 Z M279 374 L279 303 L118 303 L118 0 L40 0 L40 700 L318 700 L318 629 L118 629 L118 374 L279 374 Z " />
<glyph glyph-name="uni1E40" unicode="&#x1e40;" horiz-adv-x="523" d="M295 832 L295 741 L227 741 L227 832 L295 832 Z M298 1 L223 1 L107 558 L107 0 L39 0 L39 700 L148 700 L263 141 L374 700 L483 700 L483 0 L409 0 L409 563 L298 1 Z " />
<glyph glyph-name="uni1E56" unicode="&#x1e56;" horiz-adv-x="371" d="M214 830 L214 740 L146 740 L146 830 L214 830 Z M193 700 Q276 700 313 654.5 Q350 609 350 529 L350 445 Q350 361 310.5 318.5 Q271 276 187 276 L118 276 L118 0 L40 0 L40 700 L193 700 Z M187 346 Q231 346 252 367.5 Q273 389 273 440 L273 533 Q273 581 254.5 605 Q236 629 193 629 L118 629 L118 346 L187 346 Z " />
<glyph glyph-name="uni1E60" unicode="&#x1e60;" horiz-adv-x="372" d="M220 830 L220 740 L152 740 L152 830 L220 830 Z M187 707 Q267 707 305 659.5 Q343 612 343 532 L343 513 L269 513 L269 536 Q269 584 250 610 Q231 636 189 636 Q147 636 128 610 Q109 584 109 537 Q109 498 126.5 469 Q144 440 170 415.5 Q196 391 226.5 367.5 Q257 344 283 316 Q309 288 326.5 252.5 Q344 217 344 168 Q344 88 305.5 40.5 Q267 -7 186 -7 Q105 -7 67 40.5 Q29 88 29 168 L29 208 L102 208 L102 164 Q102 116 122 90 Q142 64 184 64 Q226 64 246 90 Q266 116 266 164 Q266 203 248.5 231.5 Q231 260 205 284.5 Q179 309 149 332.5 Q119 356 93 384 Q67 412 49.5 447.5 Q32 483 32 532 Q32 613 70 660 Q108 707 187 707 Z " />
<glyph glyph-name="uni1E6A" unicode="&#x1e6a;" horiz-adv-x="372" d="M220 830 L220 740 L152 740 L152 830 L220 830 Z M147 0 L147 629 L18 629 L18 700 L354 700 L354 629 L225 629 L225 0 L147 0 Z " />
<glyph glyph-name="a" unicode="a" horiz-adv-x="422" d="M119 141 L92 0 L20 0 L154 700 L267 700 L401 0 L323 0 L296 141 L119 141 Z M129 208 L285 208 L206 612 L129 208 Z " />
<glyph glyph-name="aacute" unicode="&#xe1;" horiz-adv-x="422" d="M305 840 L213 737 L158 737 L228 840 L305 840 Z M119 141 L92 0 L20 0 L154 700 L267 700 L401 0 L323 0 L296 141 L119 141 Z M129 208 L285 208 L206 612 L129 208 Z " />
<glyph glyph-name="abreve" unicode="&#x103;" horiz-adv-x="422" d="M314 834 Q314 787 286 760 Q258 733 209 733 Q160 733 133.5 760 Q107 787 106 834 L153 834 Q155 805 170.5 793.5 Q186 782 209 782 Q233 782 249 793.5 Q265 805 267 834 L314 834 Z M119 141 L92 0 L20 0 L154 700 L267 700 L401 0 L323 0 L296 141 L119 141 Z M129 208 L285 208 L206 612 L129 208 Z " />
<glyph glyph-name="acircumflex" unicode="&#xe2;" horiz-adv-x="422" d="M157 737 L89 737 L175 837 L245 837 L331 737 L263 737 L210 796 L157 737 Z M119 141 L92 0 L20 0 L154 700 L267 700 L401 0 L323 0 L296 141 L119 141 Z M129 208 L285 208 L206 612 L129 208 Z " />
<glyph glyph-name="adieresis" unicode="&#xe4;" horiz-adv-x="422" d="M182 827 L182 737 L114 737 L114 827 L182 827 Z M306 827 L306 737 L238 737 L238 827 L306 827 Z M119 141 L92 0 L20 0 L154 700 L267 700 L401 0 L323 0 L296 141 L119 141 Z M129 208 L285 208 L206 612 L129 208 Z " />
<glyph glyph-name="agrave" unicode="&#xe0;" horiz-adv-x="422" d="M190 840 L260 737 L203 737 L110 840 L190 840 Z M119 141 L92 0 L20 0 L154 700 L267 700 L401 0 L323 0 L296 141 L119 141 Z M129 208 L285 208 L206 612 L129 208 Z " />
<glyph glyph-name="amacron" unicode="&#x101;" horiz-adv-x="422" d="M316 806 L316 750 L104 750 L104 806 L316 806 Z M119 141 L92 0 L20 0 L154 700 L267 700 L401 0 L323 0 L296 141 L119 141 Z M129 208 L285 208 L206 612 L129 208 Z " />
<glyph glyph-name="aogonek" unicode="&#x105;" horiz-adv-x="422" d="M373 0 Q355 -15 345.5 -35 Q336 -55 337 -69 Q338 -85 349 -92 Q360 -99 374 -99 Q388 -99 397 -96.5 Q406 -94 414 -90 L414 -131 Q399 -138 385 -140.5 Q371 -143 352 -143 Q319 -143 298.5 -129.5 Q278 -116 277 -87 Q276 -66 289 -45 Q302 -24 325 -7 L296 141 L119 141 L92 0 L20 0 L154 700 L267 700 L401 0 L373 0 Z M129 208 L285 208 L206 612 L129 208 Z " />
<glyph glyph-name="aring" unicode="&#xe5;" horiz-adv-x="422" d="M210 883 Q241 883 262 862 Q283 841 283 810 Q283 778 262 757.5 Q241 737 210 737 Q178 737 157 757.5 Q136 778 136 810 Q136 841 157 862 Q178 883 210 883 Z M210 846 Q194 846 183.5 835.5 Q173 825 173 810 Q173 794 183.5 784 Q194 774 210 774 Q225 774 235.5 784 Q246 794 246 810 Q246 825 235.5 835.5 Q225 846 210 846 Z M119 141 L92 0 L20 0 L154 700 L267 700 L401 0 L323 0 L296 141 L119 141 Z M129 208 L285 208 L206 612 L129 208 Z " />
<glyph glyph-name="atilde" unicode="&#xe3;" horiz-adv-x="422" d="M161 826 Q176 826 188.5 821.5 Q201 817 211.5 811 Q222 805 232 800.5 Q242 796 253 796 Q266 797 275.5 803.5 Q285 810 293 826 L332 799 Q320 770 302 756 Q284 742 261 742 Q246 742 234 746.5 Q222 751 211.5 756.5 Q201 762 191 766.5 Q181 771 169 771 Q155 771 145 764.5 Q135 758 127 741 L88 768 Q100 799 119 812 Q138 825 161 826 Z M119 141 L92 0 L20 0 L154 700 L267 700 L401 0 L323 0 L296 141 L119 141 Z M129 208 L285 208 L206 612 L129 208 Z " />
<glyph glyph-name="ae" unicode="&#xe6;" horiz-adv-x="585" d="M516 390 L516 320 L355 320 L355 71 L553 71 L553 0 L278 0 L278 142 L135 142 L90 0 L16 0 L234 700 L553 700 L553 629 L355 629 L355 390 L516 390 Z M153 210 L278 210 L278 602 L153 210 Z " />
<glyph glyph-name="aeacute" unicode="&#x1fd;" horiz-adv-x="585" d="M410 844 L317 741 L263 741 L333 844 L410 844 Z M516 390 L516 320 L355 320 L355 71 L553 71 L553 0 L278 0 L278 142 L135 142 L90 0 L16 0 L234 700 L553 700 L553 629 L355 629 L355 390 L516 390 Z M153 210 L278 210 L278 602 L153 210 Z " />
<glyph glyph-name="b" unicode="b" horiz-adv-x="392" d="M197 700 Q279 700 314 661.5 Q349 623 349 545 L349 512 Q349 456 331 421.5 Q313 387 267 373 Q318 359 339.5 320 Q361 281 361 223 L361 164 Q361 85 322 42.5 Q283 0 201 0 L40 0 L40 700 L197 700 Z M178 403 Q225 403 248.5 422 Q272 441 272 496 L272 537 Q272 584 254.5 606.5 Q237 629 195 629 L118 629 L118 403 L178 403 Z M201 71 Q284 71 284 166 L284 228 Q284 287 260.5 309.5 Q237 332 186 332 L118 332 L118 71 L201 71 Z " />
<glyph glyph-name="c" unicode="c" horiz-adv-x="380" d="M191 707 Q272 707 310.5 659 Q349 611 349 531 L349 468 L275 468 L275 535 Q275 583 255.5 609.5 Q236 636 193 636 Q151 636 131 609.5 Q111 583 111 535 L111 165 Q111 117 131 90.5 Q151 64 193 64 Q236 64 255.5 90.5 Q275 117 275 165 L275 256 L349 256 L349 169 Q349 89 310.5 41 Q272 -7 191 -7 Q111 -7 72.5 41 Q34 89 34 169 L34 531 Q34 571 43.5 603.5 Q53 636 72.5 659 Q92 682 121.5 694.5 Q151 707 191 707 Z " />
<glyph glyph-name="cacute" unicode="&#x107;" horiz-adv-x="380" d="M293 845 L200 742 L145 742 L215 845 L293 845 Z M191 707 Q272 707 310.5 659 Q349 611 349 531 L349 468 L275 468 L275 535 Q275 583 255.5 609.5 Q236 636 193 636 Q151 636 131 609.5 Q111 583 111 535 L111 165 Q111 117 131 90.5 Q151 64 193 64 Q236 64 255.5 90.5 Q275 117 275 165 L275 256 L349 256 L349 169 Q349 89 310.5 41 Q272 -7 191 -7 Q111 -7 72.5 41 Q34 89 34 169 L34 531 Q34 571 43.5 603.5 Q53 636 72.5 659 Q92 682 121.5 694.5 Q151 707 191 707 Z " />
<glyph glyph-name="ccaron" unicode="&#x10d;" horiz-adv-x="380" d="M141 841 L193 781 L246 841 L315 841 L228 741 L159 741 L73 841 L141 841 Z M191 707 Q272 707 310.5 659 Q349 611 349 531 L349 468 L275 468 L275 535 Q275 583 255.5 609.5 Q236 636 193 636 Q151 636 131 609.5 Q111 583 111 535 L111 165 Q111 117 131 90.5 Q151 64 193 64 Q236 64 255.5 90.5 Q275 117 275 165 L275 256 L349 256 L349 169 Q349 89 310.5 41 Q272 -7 191 -7 Q111 -7 72.5 41 Q34 89 34 169 L34 531 Q34 571 43.5 603.5 Q53 636 72.5 659 Q92 682 121.5 694.5 Q151 707 191 707 Z " />
<glyph glyph-name="ccedilla" unicode="&#xe7;" horiz-adv-x="380" d="M191 707 Q272 707 310.5 659 Q349 611 349 531 L349 468 L275 468 L275 535 Q275 583 255.5 609.5 Q236 636 193 636 Q151 636 131 609.5 Q111 583 111 535 L111 165 Q111 117 131 90.5 Q151 64 193 64 Q236 64 255.5 90.5 Q275 117 275 165 L275 256 L349 256 L349 169 Q349 94 314.5 46.5 Q280 -1 208 -6 L208 -37 Q243 -37 262.5 -50.5 Q282 -64 282 -88 Q282 -118 257 -135 Q232 -152 187 -152 Q143 -152 119 -135.5 Q95 -119 95 -90 L95 -82 L146 -82 L146 -89 Q146 -115 187 -118 Q230 -118 230 -86 Q230 -56 181 -56 L172 -56 L172 -6 Q101 -1 67.5 47 Q34 95 34 169 L34 531 Q34 571 43.5 603.5 Q53 636 72.5 659 Q92 682 121.5 694.5 Q151 707 191 707 Z " />
<glyph glyph-name="ccircumflex" unicode="&#x109;" horiz-adv-x="380" d="M140 740 L72 740 L158 841 L227 841 L314 740 L246 740 L193 799 L140 740 Z M191 707 Q272 707 310.5 659 Q349 611 349 531 L349 468 L275 468 L275 535 Q275 583 255.5 609.5 Q236 636 193 636 Q151 636 131 609.5 Q111 583 111 535 L111 165 Q111 117 131 90.5 Q151 64 193 64 Q236 64 255.5 90.5 Q275 117 275 165 L275 256 L349 256 L349 169 Q349 89 310.5 41 Q272 -7 191 -7 Q111 -7 72.5 41 Q34 89 34 169 L34 531 Q34 571 43.5 603.5 Q53 636 72.5 659 Q92 682 121.5 694.5 Q151 707 191 707 Z " />
<glyph glyph-name="cdotaccent" unicode="&#x10b;" horiz-adv-x="380" d="M225 828 L225 738 L157 738 L157 828 L225 828 Z M191 707 Q272 707 310.5 659 Q349 611 349 531 L349 468 L275 468 L275 535 Q275 583 255.5 609.5 Q236 636 193 636 Q151 636 131 609.5 Q111 583 111 535 L111 165 Q111 117 131 90.5 Q151 64 193 64 Q236 64 255.5 90.5 Q275 117 275 165 L275 256 L349 256 L349 169 Q349 89 310.5 41 Q272 -7 191 -7 Q111 -7 72.5 41 Q34 89 34 169 L34 531 Q34 571 43.5 603.5 Q53 636 72.5 659 Q92 682 121.5 694.5 Q151 707 191 707 Z " />
<glyph glyph-name="d" unicode="d" horiz-adv-x="396" d="M204 700 Q286 700 324.5 653.5 Q363 607 363 526 L363 173 Q363 92 324.5 46 Q286 0 204 0 L40 0 L40 700 L204 700 Z M203 71 Q245 71 265.5 96.5 Q286 122 286 170 L286 530 Q286 578 265.5 603.5 Q245 629 202 629 L118 629 L118 71 L203 71 Z " />
<glyph glyph-name="eth" unicode="&#xf0;" horiz-adv-x="396" d="M204 700 Q286 700 324.5 653.5 Q363 607 363 526 L363 173 Q363 92 324.5 46 Q286 0 204 0 L40 0 L40 318 L1 318 L1 381 L40 381 L40 700 L204 700 Z M197 318 L118 318 L118 71 L203 71 Q245 71 265.5 96.5 Q286 122 286 170 L286 530 Q286 578 265.5 603.5 Q245 629 202 629 L118 629 L118 381 L197 381 L197 318 Z " />
<glyph glyph-name="dcaron" unicode="&#x10f;" horiz-adv-x="396" d="M135 839 L188 779 L241 839 L310 839 L223 739 L154 739 L67 839 L135 839 Z M204 700 Q286 700 324.5 653.5 Q363 607 363 526 L363 173 Q363 92 324.5 46 Q286 0 204 0 L40 0 L40 700 L204 700 Z M203 71 Q245 71 265.5 96.5 Q286 122 286 170 L286 530 Q286 578 265.5 603.5 Q245 629 202 629 L118 629 L118 71 L203 71 Z " />
<glyph glyph-name="dcroat" unicode="&#x111;" horiz-adv-x="396" d="M204 700 Q286 700 324.5 653.5 Q363 607 363 526 L363 173 Q363 92 324.5 46 Q286 0 204 0 L40 0 L40 318 L1 318 L1 381 L40 381 L40 700 L204 700 Z M197 318 L118 318 L118 71 L203 71 Q245 71 265.5 96.5 Q286 122 286 170 L286 530 Q286 578 265.5 603.5 Q245 629 202 629 L118 629 L118 381 L197 381 L197 318 Z " />
<glyph glyph-name="e" unicode="e" horiz-adv-x="360" d="M289 390 L289 320 L118 320 L118 71 L328 71 L328 0 L40 0 L40 700 L328 700 L328 629 L118 629 L118 390 L289 390 Z " />
<glyph glyph-name="eacute" unicode="&#xe9;" horiz-adv-x="360" d="M283 842 L190 739 L136 739 L206 842 L283 842 Z M289 390 L289 320 L118 320 L118 71 L328 71 L328 0 L40 0 L40 700 L328 700 L328 629 L118 629 L118 390 L289 390 Z " />
<glyph glyph-name="ebreve" unicode="&#x115;" horiz-adv-x="360" d="M287 840 Q286 792 258.5 765.5 Q231 739 181 739 Q133 739 106 765.5 Q79 792 78 840 L125 840 Q127 811 142.5 799.5 Q158 788 181 788 Q206 788 222 799.5 Q238 811 240 840 L287 840 Z M289 390 L289 320 L118 320 L118 71 L328 71 L328 0 L40 0 L40 700 L328 700 L328 629 L118 629 L118 390 L289 390 Z " />
<glyph glyph-name="ecaron" unicode="&#x11b;" horiz-adv-x="360" d="M131 839 L183 779 L237 839 L305 839 L218 739 L149 739 L63 839 L131 839 Z M289 390 L289 320 L118 320 L118 71 L328 71 L328 0 L40 0 L40 700 L328 700 L328 629 L118 629 L118 390 L289 390 Z " />
<glyph glyph-name="ecircumflex" unicode="&#xea;" horiz-adv-x="360" d="M130 739 L62 739 L148 840 L217 840 L304 739 L236 739 L182 799 L130 739 Z M289 390 L289 320 L118 320 L118 71 L328 71 L328 0 L40 0 L40 700 L328 700 L328 629 L118 629 L118 390 L289 390 Z " />
<glyph glyph-name="edieresis" unicode="&#xeb;" horiz-adv-x="360" d="M155 829 L155 739 L87 739 L87 829 L155 829 Z M279 829 L279 739 L211 739 L211 829 L279 829 Z M289 390 L289 320 L118 320 L118 71 L328 71 L328 0 L40 0 L40 700 L328 700 L328 629 L118 629 L118 390 L289 390 Z " />
<glyph glyph-name="edotaccent" unicode="&#x117;" horiz-adv-x="360" d="M218 830 L218 740 L150 740 L150 830 L218 830 Z M289 390 L289 320 L118 320 L118 71 L328 71 L328 0 L40 0 L40 700 L328 700 L328 629 L118 629 L118 390 L289 390 Z " />
<glyph glyph-name="egrave" unicode="&#xe8;" horiz-adv-x="360" d="M167 845 L236 742 L179 742 L86 845 L167 845 Z M289 390 L289 320 L118 320 L118 71 L328 71 L328 0 L40 0 L40 700 L328 700 L328 629 L118 629 L118 390 L289 390 Z " />
<glyph glyph-name="emacron" unicode="&#x113;" horiz-adv-x="360" d="M286 807 L286 752 L77 752 L77 807 L286 807 Z M289 390 L289 320 L118 320 L118 71 L328 71 L328 0 L40 0 L40 700 L328 700 L328 629 L118 629 L118 390 L289 390 Z " />
<glyph glyph-name="eogonek" unicode="&#x119;" horiz-adv-x="360" d="M289 390 L289 320 L118 320 L118 71 L328 71 L328 0 L295 0 Q276 -15 267 -35 Q258 -55 258 -69 Q259 -85 270 -92 Q281 -99 296 -99 Q310 -99 318.5 -96.5 Q327 -94 335 -90 L335 -131 Q320 -138 306 -140.5 Q292 -143 274 -143 Q240 -143 219.5 -129.5 Q199 -116 198 -87 Q198 -63 214.5 -40 Q231 -17 259 0 L40 0 L40 700 L328 700 L328 629 L118 629 L118 390 L289 390 Z " />
<glyph glyph-name="f" unicode="f" horiz-adv-x="340" d="M279 374 L279 303 L118 303 L118 0 L40 0 L40 700 L318 700 L318 629 L118 629 L118 374 L279 374 Z " />
<glyph glyph-name="g" unicode="g" horiz-adv-x="383" d="M191 707 Q272 707 310.5 659 Q349 611 349 531 L349 471 L275 471 L275 535 Q275 583 255.5 609.5 Q236 636 193 636 Q151 636 131 609.5 Q111 583 111 535 L111 165 Q111 117 131 90.5 Q151 64 193 64 Q236 64 255.5 90.5 Q275 117 275 165 L275 305 L203 305 L203 375 L349 375 L349 169 Q349 89 310.5 41 Q272 -7 191 -7 Q111 -7 72.5 41 Q34 89 34 169 L34 531 Q34 571 43.5 603.5 Q53 636 72.5 659 Q92 682 121.5 694.5 Q151 707 191 707 Z " />
<glyph glyph-name="gbreve" unicode="&#x11f;" horiz-adv-x="383" d="M296 841 Q295 793 267.5 766.5 Q240 740 191 740 Q142 740 115 766.5 Q88 793 87 841 L134 841 Q136 812 151.5 800.5 Q167 789 191 789 Q215 789 231 800.5 Q247 812 249 841 L296 841 Z M191 707 Q272 707 310.5 659 Q349 611 349 531 L349 471 L275 471 L275 535 Q275 583 255.5 609.5 Q236 636 193 636 Q151 636 131 609.5 Q111 583 111 535 L111 165 Q111 117 131 90.5 Q151 64 193 64 Q236 64 255.5 90.5 Q275 117 275 165 L275 305 L203 305 L203 375 L349 375 L349 169 Q349 89 310.5 41 Q272 -7 191 -7 Q111 -7 72.5 41 Q34 89 34 169 L34 531 Q34 571 43.5 603.5 Q53 636 72.5 659 Q92 682 121.5 694.5 Q151 707 191 707 Z " />
<glyph glyph-name="gcircumflex" unicode="&#x11d;" horiz-adv-x="383" d="M139 742 L71 742 L157 842 L226 842 L313 742 L245 742 L191 801 L139 742 Z M191 707 Q272 707 310.5 659 Q349 611 349 531 L349 471 L275 471 L275 535 Q275 583 255.5 609.5 Q236 636 193 636 Q151 636 131 609.5 Q111 583 111 535 L111 165 Q111 117 131 90.5 Q151 64 193 64 Q236 64 255.5 90.5 Q275 117 275 165 L275 305 L203 305 L203 375 L349 375 L349 169 Q349 89 310.5 41 Q272 -7 191 -7 Q111 -7 72.5 41 Q34 89 34 169 L34 531 Q34 571 43.5 603.5 Q53 636 72.5 659 Q92 682 121.5 694.5 Q151 707 191 707 Z " />
<glyph glyph-name="gdotaccent" unicode="&#x121;" horiz-adv-x="383" d="M228 830 L228 740 L160 740 L160 830 L228 830 Z M191 707 Q272 707 310.5 659 Q349 611 349 531 L349 471 L275 471 L275 535 Q275 583 255.5 609.5 Q236 636 193 636 Q151 636 131 609.5 Q111 583 111 535 L111 165 Q111 117 131 90.5 Q151 64 193 64 Q236 64 255.5 90.5 Q275 117 275 165 L275 305 L203 305 L203 375 L349 375 L349 169 Q349 89 310.5 41 Q272 -7 191 -7 Q111 -7 72.5 41 Q34 89 34 169 L34 531 Q34 571 43.5 603.5 Q53 636 72.5 659 Q92 682 121.5 694.5 Q151 707 191 707 Z " />
<glyph glyph-name="h" unicode="h" horiz-adv-x="408" d="M118 315 L118 0 L40 0 L40 700 L118 700 L118 385 L290 385 L290 700 L368 700 L368 0 L290 0 L290 315 L118 315 Z " />
<glyph glyph-name="hbar" unicode="&#x127;" horiz-adv-x="415" d="M372 514 L372 0 L293 0 L293 315 L121 315 L121 0 L43 0 L43 514 L7 514 L7 572 L43 572 L43 700 L121 700 L121 572 L293 572 L293 700 L372 700 L372 572 L408 572 L408 514 L372 514 Z M293 514 L121 514 L121 385 L293 385 L293 514 Z " />
<glyph glyph-name="hcircumflex" unicode="&#x125;" horiz-adv-x="408" d="M151 741 L83 741 L170 842 L239 842 L325 741 L257 741 L204 800 L151 741 Z M118 315 L118 0 L40 0 L40 700 L118 700 L118 385 L290 385 L290 700 L368 700 L368 0 L290 0 L290 315 L118 315 Z " />
<glyph glyph-name="i" unicode="i" horiz-adv-x="158" d="M118 700 L118 0 L40 0 L40 700 L118 700 Z " />
<glyph glyph-name="dotlessi" unicode="&#x131;" horiz-adv-x="158" d="M118 700 L118 0 L40 0 L40 700 L118 700 Z " />
<glyph glyph-name="iacute" unicode="&#xed;" horiz-adv-x="158" d="M100 842 L178 842 L85 739 L31 739 L100 842 Z M40 700 L118 700 L118 0 L40 0 L40 700 Z " />
<glyph glyph-name="ibreve" unicode="&#x12d;" horiz-adv-x="158" d="M183 838 Q183 790 155 763 Q127 736 78 736 Q29 736 2.5 763 Q-24 790 -25 838 L22 838 Q24 808 39.5 796.5 Q55 785 78 785 Q102 785 118 796.5 Q134 808 136 838 L183 838 Z M40 700 L118 700 L118 0 L40 0 L40 700 Z " />
<glyph glyph-name="icircumflex" unicode="&#xee;" horiz-adv-x="158" d="M113 839 L200 739 L132 739 L79 798 L26 739 L-42 739 L44 839 L113 839 Z M40 700 L118 700 L118 0 L40 0 L40 700 Z " />
<glyph glyph-name="idieresis" unicode="&#xef;" horiz-adv-x="158" d="M51 829 L51 739 L-17 739 L-17 829 L51 829 Z M175 829 L175 739 L107 739 L107 829 L175 829 Z M118 700 L118 0 L40 0 L40 700 L118 700 Z " />
<glyph glyph-name="igrave" unicode="&#xec;" horiz-adv-x="158" d="M-25 842 L56 842 L126 739 L68 739 L-25 842 Z M40 700 L118 700 L118 0 L40 0 L40 700 Z " />
<glyph glyph-name="ij" unicode="&#x133;" horiz-adv-x="412" d="M118 700 L118 0 L40 0 L40 700 L118 700 Z M376 173 Q376 123 364.5 90 Q353 57 332.5 37 Q312 17 284.5 8.5 Q257 0 225 -1 Q211 -1 200.5 -1 Q190 -1 177 0 L177 71 Q187 70 196.5 70 Q206 70 215 70 Q255 72 276.5 93.5 Q298 115 298 168 L298 700 L376 700 L376 173 Z " />
<glyph glyph-name="imacron" unicode="&#x12b;" horiz-adv-x="158" d="M178 806 L178 750 L-21 750 L-21 806 L178 806 Z M118 700 L118 0 L40 0 L40 700 L118 700 Z " />
<glyph glyph-name="iogonek" unicode="&#x12f;" horiz-adv-x="158" d="M104 0 Q85 -15 76 -35 Q67 -55 68 -69 Q68 -85 79 -92 Q90 -99 105 -99 Q119 -99 127.5 -96.5 Q136 -94 145 -90 L145 -131 Q130 -138 115.5 -140.5 Q101 -143 83 -143 Q50 -143 29 -129.5 Q8 -116 8 -87 Q7 -64 23 -41 Q39 -18 69 0 L40 0 L40 700 L118 700 L118 0 L104 0 Z " />
<glyph glyph-name="itilde" unicode="&#x129;" horiz-adv-x="158" d="M201 802 Q179 744 130 744 Q115 744 103.5 748.5 Q92 753 81 758.5 Q70 764 60 768.5 Q50 773 38 773 Q24 773 14 767 Q4 761 -4 744 L-43 770 Q-30 801 -11 814.5 Q8 828 31 828 Q46 828 58 823.5 Q70 819 80.5 813.5 Q91 808 101.5 803.5 Q112 799 123 799 Q136 799 145.5 805.5 Q155 812 163 828 L201 802 Z M118 700 L118 0 L40 0 L40 700 L118 700 Z " />
<glyph glyph-name="j" unicode="j" horiz-adv-x="255" d="M20 71 Q30 70 40 70 Q50 70 59 70 Q97 72 119 93.5 Q141 115 141 168 L141 700 L218 700 L218 173 Q218 124 206.5 91 Q195 58 175 37.5 Q155 17 127.5 8.5 Q100 0 69 -1 Q55 -1 44 -1.5 Q33 -2 20 0 L20 71 Z " />
<glyph glyph-name="uni0237" unicode="&#x237;" horiz-adv-x="255" d="M20 71 Q30 70 40 70 Q50 70 59 70 Q97 72 119 93.5 Q141 115 141 168 L141 700 L218 700 L218 173 Q218 124 206.5 91 Q195 58 175 37.5 Q155 17 127.5 8.5 Q100 0 69 -1 Q55 -1 44 -1.5 Q33 -2 20 0 L20 71 Z " />
<glyph glyph-name="jcircumflex" unicode="&#x135;" horiz-adv-x="255" d="M114 739 L46 739 L132 840 L201 840 L288 739 L220 739 L167 799 L114 739 Z M218 173 Q218 124 206.5 91 Q195 58 175 37.5 Q155 17 127.5 8.5 Q100 0 69 -1 Q55 -1 44 -1.5 Q33 -2 20 0 L20 71 Q30 70 40 70 Q50 70 59 70 Q97 72 119 93.5 Q141 115 141 168 L141 700 L218 700 L218 173 Z " />
<glyph glyph-name="k" unicode="k" horiz-adv-x="409" d="M159 304 L118 235 L118 0 L40 0 L40 700 L118 700 L118 362 L304 700 L383 700 L206 381 L389 0 L309 0 L159 304 Z " />
<glyph glyph-name="kgreenlandic" unicode="&#x138;" horiz-adv-x="409" d="M159 304 L118 235 L118 0 L40 0 L40 700 L118 700 L118 362 L304 700 L383 700 L206 381 L389 0 L309 0 L159 304 Z " />
<glyph glyph-name="l" unicode="l" horiz-adv-x="337" d="M40 0 L40 700 L118 700 L118 71 L318 71 L318 0 L40 0 Z " />
<glyph glyph-name="lacute" unicode="&#x13a;" horiz-adv-x="337" d="M203 842 L110 739 L56 739 L125 842 L203 842 Z M40 0 L40 700 L118 700 L118 71 L318 71 L318 0 L40 0 Z " />
<glyph glyph-name="lcaron" unicode="&#x13e;" horiz-adv-x="337" d="M40 0 L40 700 L118 700 L118 71 L318 71 L318 0 L40 0 Z M242 603 L213 603 L213 700 L288 700 L288 611 L250 515 L217 515 L242 603 Z " />
<glyph glyph-name="ldot" unicode="&#x140;" horiz-adv-x="337" d="M40 0 L40 700 L118 700 L118 71 L318 71 L318 0 L40 0 Z M272 400 L272 303 L197 303 L197 400 L272 400 Z " />
<glyph glyph-name="lslash" unicode="&#x142;" horiz-adv-x="348" d="M128 291 L128 71 L329 71 L329 0 L51 0 L51 208 L0 158 L0 230 L51 280 L51 700 L128 700 L128 363 L237 476 L237 404 L128 291 Z " />
<glyph glyph-name="m" unicode="m" horiz-adv-x="523" d="M298 1 L223 1 L107 558 L107 0 L39 0 L39 700 L148 700 L263 141 L374 700 L483 700 L483 0 L409 0 L409 563 L298 1 Z " />
<glyph glyph-name="n" unicode="n" horiz-adv-x="409" d="M109 0 L39 0 L39 700 L138 700 L300 194 L300 700 L369 700 L369 0 L288 0 L109 566 L109 0 Z " />
<glyph glyph-name="nacute" unicode="&#x144;" horiz-adv-x="409" d="M306 842 L213 740 L159 740 L229 842 L306 842 Z M109 0 L39 0 L39 700 L138 700 L300 194 L300 700 L369 700 L369 0 L288 0 L109 567 L109 0 Z " />
<glyph glyph-name="napostrophe" unicode="&#x149;" horiz-adv-x="503" d="M40 603 L11 603 L11 700 L86 700 L86 611 L48 515 L15 515 L40 603 Z M204 0 L134 0 L134 700 L233 700 L395 194 L395 700 L464 700 L464 0 L383 0 L204 566 L204 0 Z " />
<glyph glyph-name="ncaron" unicode="&#x148;" horiz-adv-x="409" d="M152 842 L205 782 L258 842 L326 842 L240 741 L171 741 L84 842 L152 842 Z M109 0 L39 0 L39 700 L138 700 L300 194 L300 700 L369 700 L369 0 L288 0 L109 566 L109 0 Z " />
<glyph glyph-name="ntilde" unicode="&#xf1;" horiz-adv-x="409" d="M327 804 Q315 774 297 760 Q279 746 256 746 Q241 746 229 750.5 Q217 755 206.5 760.5 Q196 766 186 770.5 Q176 775 164 775 Q150 775 140 769 Q130 763 122 746 L83 772 Q95 803 114 816.5 Q133 830 157 830 Q172 830 184 825.5 Q196 821 206.5 815.5 Q217 810 227 805.5 Q237 801 248 801 Q274 801 288 830 L327 804 Z M109 0 L39 0 L39 700 L138 700 L300 194 L300 700 L369 700 L369 0 L288 0 L109 566 L109 0 Z " />
<glyph glyph-name="o" unicode="o" horiz-adv-x="389" d="M34 531 Q34 612 73.5 659.5 Q113 707 194 707 Q275 707 315 659.5 Q355 612 355 531 L355 169 Q355 89 315 41 Q275 -7 194 -7 Q113 -7 73.5 41 Q34 89 34 169 L34 531 Z M111 165 Q111 117 131.5 90.5 Q152 64 194 64 Q237 64 257 90.5 Q277 117 277 165 L277 535 Q277 583 257 609.5 Q237 636 194 636 Q152 636 131.5 609.5 Q111 583 111 535 L111 165 Z " />
<glyph glyph-name="oacute" unicode="&#xf3;" horiz-adv-x="389" d="M293 845 L200 742 L146 742 L216 845 L293 845 Z M194 707 Q275 707 315 659.5 Q355 612 355 531 L355 169 Q355 89 315 41 Q275 -7 194 -7 Q113 -7 73.5 41 Q34 89 34 169 L34 531 Q34 612 73.5 659.5 Q113 707 194 707 Z M194 636 Q152 636 131.5 609.5 Q111 583 111 535 L111 165 Q111 117 131.5 90.5 Q152 64 194 64 Q237 64 257 90.5 Q277 117 277 165 L277 535 Q277 583 257 609.5 Q237 636 194 636 Z " />
<glyph glyph-name="obreve" unicode="&#x14f;" horiz-adv-x="389" d="M299 841 Q298 793 270.5 766.5 Q243 740 193 740 Q145 740 118 766.5 Q91 793 90 841 L137 841 Q139 812 154.5 800.5 Q170 789 193 789 Q218 789 234 800.5 Q250 812 252 841 L299 841 Z M194 707 Q275 707 315 659.5 Q355 612 355 531 L355 169 Q355 89 315 41 Q275 -7 194 -7 Q113 -7 73.5 41 Q34 89 34 169 L34 531 Q34 612 73.5 659.5 Q113 707 194 707 Z M194 636 Q152 636 131.5 609.5 Q111 583 111 535 L111 165 Q111 117 131.5 90.5 Q152 64 194 64 Q237 64 257 90.5 Q277 117 277 165 L277 535 Q277 583 257 609.5 Q237 636 194 636 Z " />
<glyph glyph-name="ocircumflex" unicode="&#xf4;" horiz-adv-x="389" d="M141 741 L73 741 L159 842 L228 842 L315 741 L247 741 L193 800 L141 741 Z M194 707 Q275 707 315 659.5 Q355 612 355 531 L355 169 Q355 89 315 41 Q275 -7 194 -7 Q113 -7 73.5 41 Q34 89 34 169 L34 531 Q34 612 73.5 659.5 Q113 707 194 707 Z M194 636 Q152 636 131.5 609.5 Q111 583 111 535 L111 165 Q111 117 131.5 90.5 Q152 64 194 64 Q237 64 257 90.5 Q277 117 277 165 L277 535 Q277 583 257 609.5 Q237 636 194 636 Z " />
<glyph glyph-name="odieresis" unicode="&#xf6;" horiz-adv-x="389" d="M166 831 L166 741 L98 741 L98 831 L166 831 Z M290 831 L290 741 L222 741 L222 831 L290 831 Z M194 707 Q275 707 315 659.5 Q355 612 355 531 L355 169 Q355 89 315 41 Q275 -7 194 -7 Q113 -7 73.5 41 Q34 89 34 169 L34 531 Q34 612 73.5 659.5 Q113 707 194 707 Z M194 636 Q152 636 131.5 609.5 Q111 583 111 535 L111 165 Q111 117 131.5 90.5 Q152 64 194 64 Q237 64 257 90.5 Q277 117 277 165 L277 535 Q277 583 257 609.5 Q237 636 194 636 Z " />
<glyph glyph-name="ograve" unicode="&#xf2;" horiz-adv-x="389" d="M174 845 L243 742 L186 742 L93 845 L174 845 Z M194 707 Q275 707 315 659.5 Q355 612 355 531 L355 169 Q355 89 315 41 Q275 -7 194 -7 Q113 -7 73.5 41 Q34 89 34 169 L34 531 Q34 612 73.5 659.5 Q113 707 194 707 Z M194 636 Q152 636 131.5 609.5 Q111 583 111 535 L111 165 Q111 117 131.5 90.5 Q152 64 194 64 Q237 64 257 90.5 Q277 117 277 165 L277 535 Q277 583 257 609.5 Q237 636 194 636 Z " />
<glyph glyph-name="ohungarumlaut" unicode="&#x151;" horiz-adv-x="389" d="M230 845 L150 742 L101 742 L158 845 L230 845 Z M338 845 L257 742 L208 742 L265 845 L338 845 Z M194 707 Q275 707 315 659.5 Q355 612 355 531 L355 169 Q355 89 315 41 Q275 -7 194 -7 Q113 -7 73.5 41 Q34 89 34 169 L34 531 Q34 612 73.5 659.5 Q113 707 194 707 Z M194 636 Q152 636 131.5 609.5 Q111 583 111 535 L111 165 Q111 117 131.5 90.5 Q152 64 194 64 Q237 64 257 90.5 Q277 117 277 165 L277 535 Q277 583 257 609.5 Q237 636 194 636 Z " />
<glyph glyph-name="omacron" unicode="&#x14d;" horiz-adv-x="389" d="M299 806 L299 751 L91 751 L91 806 L299 806 Z M194 707 Q275 707 315 659.5 Q355 612 355 531 L355 169 Q355 89 315 41 Q275 -7 194 -7 Q113 -7 73.5 41 Q34 89 34 169 L34 531 Q34 612 73.5 659.5 Q113 707 194 707 Z M194 636 Q152 636 131.5 609.5 Q111 583 111 535 L111 165 Q111 117 131.5 90.5 Q152 64 194 64 Q237 64 257 90.5 Q277 117 277 165 L277 535 Q277 583 257 609.5 Q237 636 194 636 Z " />
<glyph glyph-name="oslash" unicode="&#xf8;" horiz-adv-x="389" d="M325 646 Q355 601 355 531 L355 169 Q355 89 315 41 Q275 -7 194 -7 Q131 -7 92 24 L73 -26 L39 -13 L64 54 Q34 99 34 169 L34 531 Q34 612 73.5 659.5 Q113 707 194 707 Q257 707 297 676 L315 725 L350 712 L325 646 Z M266 594 Q246 636 194 636 Q152 636 131.5 609.5 Q111 583 111 535 L111 180 L266 594 Z M194 64 Q237 64 257 90.5 Q277 117 277 165 L277 518 L122 105 Q142 64 194 64 Z " />
<glyph glyph-name="oslashacute" unicode="&#x1ff;" horiz-adv-x="389" d="M219 845 L297 845 L204 742 L149 742 L219 845 Z M325 646 Q355 601 355 531 L355 169 Q355 89 315 41 Q275 -7 194 -7 Q131 -7 92 24 L73 -26 L39 -13 L64 54 Q34 99 34 169 L34 531 Q34 612 73.5 659.5 Q113 707 194 707 Q257 707 297 676 L315 725 L350 712 L325 646 Z M266 594 Q246 636 194 636 Q152 636 131.5 609.5 Q111 583 111 535 L111 180 L266 594 Z M194 64 Q237 64 257 90.5 Q277 117 277 165 L277 518 L122 105 Q142 64 194 64 Z " />
<glyph glyph-name="otilde" unicode="&#xf5;" horiz-adv-x="389" d="M318 802 Q307 772 288.5 758.5 Q270 745 247 745 Q232 745 220.5 749.5 Q209 754 198 759.5 Q187 765 177 769.5 Q167 774 155 774 Q141 774 131 767.5 Q121 761 113 744 L74 771 Q87 802 106 815 Q125 828 148 829 Q163 829 175 824.5 Q187 820 197.5 814 Q208 808 218.5 803.5 Q229 799 240 799 Q253 800 262.5 806.5 Q272 813 280 829 L318 802 Z M194 707 Q275 707 315 659.5 Q355 612 355 531 L355 169 Q355 89 315 41 Q275 -7 194 -7 Q113 -7 73.5 41 Q34 89 34 169 L34 531 Q34 612 73.5 659.5 Q113 707 194 707 Z M194 636 Q152 636 131.5 609.5 Q111 583 111 535 L111 165 Q111 117 131.5 90.5 Q152 64 194 64 Q237 64 257 90.5 Q277 117 277 165 L277 535 Q277 583 257 609.5 Q237 636 194 636 Z " />
<glyph glyph-name="oe" unicode="&#x153;" horiz-adv-x="577" d="M508 390 L508 320 L347 320 L347 71 L545 71 L545 0 L188 0 Q107 0 70 47.5 Q33 95 33 174 L33 526 Q33 605 70 652.5 Q107 700 188 700 L545 700 L545 629 L347 629 L347 390 L508 390 Z M189 629 Q147 629 129 602 Q111 575 111 530 L111 170 Q111 125 129 98 Q147 71 189 71 L270 71 L270 629 L189 629 Z " />
<glyph glyph-name="p" unicode="p" horiz-adv-x="371" d="M193 700 Q276 700 313 654.5 Q350 609 350 529 L350 445 Q350 361 310.5 318.5 Q271 276 187 276 L118 276 L118 0 L40 0 L40 700 L193 700 Z M187 346 Q231 346 252 367.5 Q273 389 273 440 L273 533 Q273 581 254.5 605 Q236 629 193 629 L118 629 L118 346 L187 346 Z " />
<glyph glyph-name="thorn" unicode="&#xfe;" horiz-adv-x="377" d="M193 599 Q276 599 313 553.5 Q350 508 350 427 L350 344 Q350 259 310.5 216.5 Q271 174 187 174 L118 174 L118 0 L40 0 L40 700 L118 700 L118 599 L193 599 Z M187 245 Q231 245 252 266.5 Q273 288 273 339 L273 432 Q273 480 254.5 504 Q236 528 193 528 L118 528 L118 245 L187 245 Z " />
<glyph glyph-name="q" unicode="q" horiz-adv-x="392" d="M194 707 Q275 707 315 659.5 Q355 612 355 531 L355 169 Q355 102 328 60 Q334 47 344 42.5 Q354 38 371 38 L381 38 L381 -31 L368 -31 Q304 -31 279 14 Q262 4 241 -1.5 Q220 -7 194 -7 Q113 -7 73.5 41 Q34 89 34 169 L34 531 Q34 612 73.5 659.5 Q113 707 194 707 Z M194 636 Q152 636 131.5 609.5 Q111 583 111 535 L111 165 Q111 117 131.5 90.5 Q152 64 194 64 Q237 64 257 90.5 Q277 117 277 165 L277 535 Q277 583 257 609.5 Q237 636 194 636 Z " />
<glyph glyph-name="r" unicode="r" horiz-adv-x="394" d="M196 700 Q279 700 315.5 659 Q352 618 352 540 L352 483 Q352 425 331 389 Q310 353 265 339 Q313 325 333 287.5 Q353 250 353 193 L353 84 Q353 61 355 39.5 Q357 18 367 0 L288 0 Q281 15 278 32.5 Q275 50 275 85 L275 195 Q275 254 248.5 276.5 Q222 299 173 299 L118 299 L118 0 L40 0 L40 700 L196 700 Z M176 370 Q223 370 249 389.5 Q275 409 275 466 L275 533 Q275 581 256.5 605 Q238 629 194 629 L118 629 L118 370 L176 370 Z " />
<glyph glyph-name="racute" unicode="&#x155;" horiz-adv-x="394" d="M287 845 L194 742 L140 742 L209 845 L287 845 Z M196 700 Q279 700 315.5 659 Q352 618 352 540 L352 483 Q352 425 331 389 Q310 353 265 339 Q313 325 333 287.5 Q353 250 353 193 L353 84 Q353 61 355 39.5 Q357 18 367 0 L288 0 Q281 15 278 32.5 Q275 50 275 85 L275 195 Q275 254 248.5 276.5 Q222 299 173 299 L118 299 L118 0 L40 0 L40 700 L196 700 Z M176 370 Q223 370 249 389.5 Q275 409 275 466 L275 533 Q275 581 256.5 605 Q238 629 194 629 L118 629 L118 370 L176 370 Z " />
<glyph glyph-name="rcaron" unicode="&#x159;" horiz-adv-x="394" d="M133 842 L186 782 L239 842 L307 842 L220 742 L151 742 L65 842 L133 842 Z M196 700 Q279 700 315.5 659 Q352 618 352 540 L352 483 Q352 425 331 389 Q310 353 265 339 Q313 325 333 287.5 Q353 250 353 193 L353 84 Q353 61 355 39.5 Q357 18 367 0 L288 0 Q281 15 278 32.5 Q275 50 275 85 L275 195 Q275 254 248.5 276.5 Q222 299 173 299 L118 299 L118 0 L40 0 L40 700 L196 700 Z M176 370 Q223 370 249 389.5 Q275 409 275 466 L275 533 Q275 581 256.5 605 Q238 629 194 629 L118 629 L118 370 L176 370 Z " />
<glyph glyph-name="s" unicode="s" horiz-adv-x="372" d="M187 707 Q267 707 305 659.5 Q343 612 343 532 L343 513 L269 513 L269 536 Q269 584 250 610 Q231 636 189 636 Q147 636 128 610 Q109 584 109 537 Q109 498 126.5 469 Q144 440 170 415.5 Q196 391 226.5 367.5 Q257 344 283 316 Q309 288 326.5 252.5 Q344 217 344 168 Q344 88 305.5 40.5 Q267 -7 186 -7 Q105 -7 67 40.5 Q29 88 29 168 L29 208 L102 208 L102 164 Q102 116 122 90 Q142 64 184 64 Q226 64 246 90 Q266 116 266 164 Q266 203 248.5 231.5 Q231 260 205 284.5 Q179 309 149 332.5 Q119 356 93 384 Q67 412 49.5 447.5 Q32 483 32 532 Q32 613 70 660 Q108 707 187 707 Z " />
<glyph glyph-name="sacute" unicode="&#x15b;" horiz-adv-x="372" d="M289 845 L196 742 L142 742 L211 845 L289 845 Z M187 707 Q267 707 305 659.5 Q343 612 343 532 L343 513 L269 513 L269 536 Q269 584 250 610 Q231 636 189 636 Q147 636 128 610 Q109 584 109 537 Q109 498 126.5 469 Q144 440 170 415.5 Q196 391 226.5 367.5 Q257 344 283 316 Q309 288 326.5 252.5 Q344 217 344 168 Q344 88 305.5 40.5 Q267 -7 186 -7 Q105 -7 67 40.5 Q29 88 29 168 L29 208 L102 208 L102 164 Q102 116 122 90 Q142 64 184 64 Q226 64 246 90 Q266 116 266 164 Q266 203 248.5 231.5 Q231 260 205 284.5 Q179 309 149 332.5 Q119 356 93 384 Q67 412 49.5 447.5 Q32 483 32 532 Q32 613 70 660 Q108 707 187 707 Z " />
<glyph glyph-name="scaron" unicode="&#x161;" horiz-adv-x="372" d="M134 842 L187 782 L240 842 L308 842 L221 742 L152 742 L66 842 L134 842 Z M187 707 Q267 707 305 659.5 Q343 612 343 532 L343 513 L269 513 L269 536 Q269 584 250 610 Q231 636 189 636 Q147 636 128 610 Q109 584 109 537 Q109 498 126.5 469 Q144 440 170 415.5 Q196 391 226.5 367.5 Q257 344 283 316 Q309 288 326.5 252.5 Q344 217 344 168 Q344 88 305.5 40.5 Q267 -7 186 -7 Q105 -7 67 40.5 Q29 88 29 168 L29 208 L102 208 L102 164 Q102 116 122 90 Q142 64 184 64 Q226 64 246 90 Q266 116 266 164 Q266 203 248.5 231.5 Q231 260 205 284.5 Q179 309 149 332.5 Q119 356 93 384 Q67 412 49.5 447.5 Q32 483 32 532 Q32 613 70 660 Q108 707 187 707 Z " />
<glyph glyph-name="scedilla" unicode="&#x15f;" horiz-adv-x="372" d="M201 -37 Q236 -37 255.5 -50.5 Q275 -64 275 -88 Q275 -118 250 -135 Q225 -152 180 -152 Q136 -152 112 -135.5 Q88 -119 88 -90 L88 -82 L139 -82 L139 -89 Q139 -115 180 -118 Q223 -118 223 -86 Q223 -56 174 -56 L165 -56 L165 -6 Q94 0 61.5 46.5 Q29 93 29 168 L29 208 L102 208 L102 164 Q102 116 122 90 Q142 64 184 64 Q226 64 246 90 Q266 116 266 164 Q266 203 248.5 231.5 Q231 260 205 284.5 Q179 309 149 332.5 Q119 356 93 384 Q67 412 49.5 447.5 Q32 483 32 532 Q32 613 70 660 Q108 707 187 707 Q267 707 305 659.5 Q343 612 343 532 L343 513 L269 513 L269 536 Q269 584 250 610 Q231 636 189 636 Q147 636 128 610 Q109 584 109 537 Q109 498 126.5 469 Q144 440 170 415.5 Q196 391 226.5 367.5 Q257 344 283 316 Q309 288 326.5 252.5 Q344 217 344 168 Q344 92 309 45.5 Q274 -1 201 -6 L201 -37 Z " />
<glyph glyph-name="scircumflex" unicode="&#x15d;" horiz-adv-x="372" d="M135 741 L67 741 L154 842 L223 842 L309 741 L241 741 L188 800 L135 741 Z M187 707 Q267 707 305 659.5 Q343 612 343 532 L343 513 L269 513 L269 536 Q269 584 250 610 Q231 636 189 636 Q147 636 128 610 Q109 584 109 537 Q109 498 126.5 469 Q144 440 170 415.5 Q196 391 226.5 367.5 Q257 344 283 316 Q309 288 326.5 252.5 Q344 217 344 168 Q344 88 305.5 40.5 Q267 -7 186 -7 Q105 -7 67 40.5 Q29 88 29 168 L29 208 L102 208 L102 164 Q102 116 122 90 Q142 64 184 64 Q226 64 246 90 Q266 116 266 164 Q266 203 248.5 231.5 Q231 260 205 284.5 Q179 309 149 332.5 Q119 356 93 384 Q67 412 49.5 447.5 Q32 483 32 532 Q32 613 70 660 Q108 707 187 707 Z " />
<glyph glyph-name="germandbls" unicode="&#xdf;" horiz-adv-x="729" d="M185 707 Q266 707 303.5 659.5 Q341 612 341 532 L341 513 L267 513 L267 536 Q267 584 248 610 Q229 636 187 636 Q145 636 126 610 Q107 584 107 537 Q107 498 124.5 469 Q142 440 168 415.5 Q194 391 224.5 367.5 Q255 344 281 316 Q307 288 324.5 252.5 Q342 217 342 168 Q342 88 303.5 40.5 Q265 -7 184 -7 Q103 -7 65 40.5 Q27 88 27 168 L27 208 L100 208 L100 164 Q100 116 120 90 Q140 64 182 64 Q225 64 244.5 90 Q264 116 264 164 Q264 203 246.5 231.5 Q229 260 203 284.5 Q177 309 147 332.5 Q117 356 91 384 Q65 412 47.5 447.5 Q30 483 30 532 Q30 613 68 660 Q106 707 185 707 Z M546 707 Q626 707 663.5 659.5 Q701 612 701 532 L701 513 L628 513 L628 536 Q628 584 609 610 Q590 636 548 636 Q506 636 487 610 Q468 584 468 537 Q468 498 485.5 469 Q503 440 529 415.5 Q555 391 585 367.5 Q615 344 641 316 Q667 288 684.5 252.5 Q702 217 702 168 Q702 88 664 40.5 Q626 -7 545 -7 Q464 -7 425.5 40.5 Q387 88 387 168 L387 208 L461 208 L461 164 Q461 116 481 90 Q501 64 543 64 Q585 64 605 90 Q625 116 625 164 Q625 203 607.5 231.5 Q590 260 564 284.5 Q538 309 507.5 332.5 Q477 356 451 384 Q425 412 407.5 447.5 Q390 483 390 532 Q390 613 428.5 660 Q467 707 546 707 Z " />
<glyph glyph-name="t" unicode="t" horiz-adv-x="360" d="M141 0 L141 629 L12 629 L12 700 L347 700 L347 629 L218 629 L218 0 L141 0 Z " />
<glyph glyph-name="tbar" unicode="&#x167;" horiz-adv-x="372" d="M296 476 L296 418 L225 418 L225 0 L147 0 L147 418 L76 418 L76 476 L147 476 L147 629 L18 629 L18 700 L354 700 L354 629 L225 629 L225 476 L296 476 Z " />
<glyph glyph-name="tcaron" unicode="&#x165;" horiz-adv-x="372" d="M133 840 L185 780 L239 840 L307 840 L220 739 L151 739 L65 840 L133 840 Z M147 0 L147 629 L18 629 L18 700 L354 700 L354 629 L225 629 L225 0 L147 0 Z " />
<glyph glyph-name="u" unicode="u" horiz-adv-x="387" d="M114 165 Q114 117 133.5 90.5 Q153 64 196 64 Q238 64 257.5 90.5 Q277 117 277 165 L277 700 L350 700 L350 169 Q350 89 312 40.5 Q274 -8 193 -8 Q113 -8 75 40.5 Q37 89 37 169 L37 700 L114 700 L114 165 Z " />
<glyph glyph-name="uacute" unicode="&#xfa;" horiz-adv-x="387" d="M296 845 L203 742 L149 742 L219 845 L296 845 Z M350 169 Q350 89 312 40.5 Q274 -8 193 -8 Q113 -8 75 40.5 Q37 89 37 169 L37 700 L114 700 L114 165 Q114 117 133.5 90.5 Q153 64 196 64 Q238 64 257.5 90.5 Q277 117 277 165 L277 700 L350 700 L350 169 Z " />
<glyph glyph-name="ubreve" unicode="&#x16d;" horiz-adv-x="387" d="M299 838 Q298 790 270.5 763 Q243 736 194 736 Q145 736 118 763 Q91 790 90 838 L137 838 Q139 808 154.5 796.5 Q170 785 194 785 Q218 785 234 796.5 Q250 808 252 838 L299 838 Z M350 169 Q350 89 312 40.5 Q274 -8 193 -8 Q113 -8 75 40.5 Q37 89 37 169 L37 700 L114 700 L114 165 Q114 117 133.5 90.5 Q153 64 196 64 Q238 64 257.5 90.5 Q277 117 277 165 L277 700 L350 700 L350 169 Z " />
<glyph glyph-name="ucircumflex" unicode="&#xfb;" horiz-adv-x="387" d="M142 741 L74 741 L160 842 L229 842 L316 741 L248 741 L194 800 L142 741 Z M350 169 Q350 89 312 40.5 Q274 -8 193 -8 Q113 -8 75 40.5 Q37 89 37 169 L37 700 L114 700 L114 165 Q114 117 133.5 90.5 Q153 64 196 64 Q238 64 257.5 90.5 Q277 117 277 165 L277 700 L350 700 L350 169 Z " />
<glyph glyph-name="udieresis" unicode="&#xfc;" horiz-adv-x="387" d="M167 830 L167 740 L98 740 L98 830 L167 830 Z M291 830 L291 740 L223 740 L223 830 L291 830 Z M350 169 Q350 89 312 40.5 Q274 -8 193 -8 Q113 -8 75 40.5 Q37 89 37 169 L37 700 L114 700 L114 165 Q114 117 133.5 90.5 Q153 64 196 64 Q238 64 257.5 90.5 Q277 117 277 165 L277 700 L350 700 L350 169 Z " />
<glyph glyph-name="ugrave" unicode="&#xf9;" horiz-adv-x="387" d="M173 842 L243 739 L185 739 L92 842 L173 842 Z M350 169 Q350 89 312 40.5 Q274 -8 193 -8 Q113 -8 75 40.5 Q37 89 37 169 L37 700 L114 700 L114 165 Q114 117 133.5 90.5 Q153 64 196 64 Q238 64 257.5 90.5 Q277 117 277 165 L277 700 L350 700 L350 169 Z " />
<glyph glyph-name="uhungarumlaut" unicode="&#x171;" horiz-adv-x="387" d="M229 844 L149 741 L100 741 L157 844 L229 844 Z M337 844 L256 741 L208 741 L264 844 L337 844 Z M350 169 Q350 89 312 40.5 Q274 -8 193 -8 Q113 -8 75 40.5 Q37 89 37 169 L37 700 L114 700 L114 165 Q114 117 133.5 90.5 Q153 64 196 64 Q238 64 257.5 90.5 Q277 117 277 165 L277 700 L350 700 L350 169 Z " />
<glyph glyph-name="umacron" unicode="&#x16b;" horiz-adv-x="387" d="M298 806 L298 750 L93 750 L93 806 L298 806 Z M350 169 Q350 89 312 40.5 Q274 -8 193 -8 Q113 -8 75 40.5 Q37 89 37 169 L37 700 L114 700 L114 165 Q114 117 133.5 90.5 Q153 64 196 64 Q238 64 257.5 90.5 Q277 117 277 165 L277 700 L350 700 L350 169 Z " />
<glyph glyph-name="uni0123" unicode="&#x123;" horiz-adv-x="383" d="M191 707 Q272 707 310.5 659 Q349 611 349 531 L349 471 L275 471 L275 535 Q275 583 255.5 609.5 Q236 636 193 636 Q151 636 131 609.5 Q111 583 111 535 L111 165 Q111 117 131 90.5 Q151 64 193 64 Q236 64 255.5 90.5 Q275 117 275 165 L275 305 L203 305 L203 375 L349 375 L349 169 Q349 89 310.5 41 Q272 -7 191 -7 Q111 -7 72.5 41 Q34 89 34 169 L34 531 Q34 571 43.5 603.5 Q53 636 72.5 659 Q92 682 121.5 694.5 Q151 707 191 707 Z M183 -121 L159 -121 L159 -33 L224 -33 L224 -114 L189 -177 L161 -177 L183 -121 Z " />
<glyph glyph-name="uni0137" unicode="&#x137;" horiz-adv-x="409" d="M159 304 L118 235 L118 0 L40 0 L40 700 L118 700 L118 362 L304 700 L383 700 L206 381 L389 0 L309 0 L159 304 Z M197 -121 L172 -121 L172 -33 L238 -33 L238 -114 L203 -177 L174 -177 L197 -121 Z " />
<glyph glyph-name="uni013C" unicode="&#x13c;" horiz-adv-x="337" d="M40 0 L40 700 L118 700 L118 71 L318 71 L318 0 L40 0 Z M177 -121 L153 -121 L153 -33 L218 -33 L218 -114 L183 -177 L155 -177 L177 -121 Z " />
<glyph glyph-name="uni0146" unicode="&#x146;" horiz-adv-x="409" d="M109 0 L39 0 L39 700 L138 700 L300 194 L300 700 L369 700 L369 0 L288 0 L109 566 L109 0 Z M196 -121 L171 -121 L171 -33 L236 -33 L236 -114 L201 -177 L173 -177 L196 -121 Z " />
<glyph glyph-name="uni0157" unicode="&#x157;" horiz-adv-x="394" d="M196 700 Q279 700 315.5 659 Q352 618 352 540 L352 483 Q352 425 331 389 Q310 353 265 339 Q313 325 333 287.5 Q353 250 353 193 L353 84 Q353 61 355 39.5 Q357 18 367 0 L288 0 Q281 15 278 32.5 Q275 50 275 85 L275 195 Q275 254 248.5 276.5 Q222 299 173 299 L118 299 L118 0 L40 0 L40 700 L196 700 Z M176 370 Q223 370 249 389.5 Q275 409 275 466 L275 533 Q275 581 256.5 605 Q238 629 194 629 L118 629 L118 370 L176 370 Z M189 -121 L164 -121 L164 -33 L230 -33 L230 -114 L195 -177 L166 -177 L189 -121 Z " />
<glyph glyph-name="uni0163" unicode="&#x163;" horiz-adv-x="372" d="M204 0 L204 -38 Q233 -38 252 -51.5 Q271 -65 271 -94 Q271 -114 263.5 -128.5 Q256 -143 244 -152 Q232 -161 216 -164.5 Q200 -168 183 -168 Q167 -168 151.5 -164 Q136 -160 124 -152 Q112 -144 104.5 -131.5 Q97 -119 97 -102 L97 -94 L144 -94 L144 -102 Q144 -119 156.5 -125 Q169 -131 182 -131 Q198 -131 210.5 -123 Q223 -115 223 -97 Q223 -77 209.5 -70.5 Q196 -64 176 -64 L167 -64 L167 0 L147 0 L147 629 L18 629 L18 700 L354 700 L354 629 L225 629 L225 0 L204 0 Z " />
<glyph glyph-name="uni0219" unicode="&#x219;" horiz-adv-x="372" d="M187 707 Q267 707 305 659.5 Q343 612 343 532 L343 513 L269 513 L269 536 Q269 584 250 610 Q231 636 189 636 Q147 636 128 610 Q109 584 109 537 Q109 498 126.5 469 Q144 440 170 415.5 Q196 391 226.5 367.5 Q257 344 283 316 Q309 288 326.5 252.5 Q344 217 344 168 Q344 88 305.5 40.5 Q267 -7 186 -7 Q105 -7 67 40.5 Q29 88 29 168 L29 208 L102 208 L102 164 Q102 116 122 90 Q142 64 184 64 Q226 64 246 90 Q266 116 266 164 Q266 203 248.5 231.5 Q231 260 205 284.5 Q179 309 149 332.5 Q119 356 93 384 Q67 412 49.5 447.5 Q32 483 32 532 Q32 613 70 660 Q108 707 187 707 Z M176 -121 L151 -121 L151 -33 L217 -33 L217 -114 L182 -177 L153 -177 L176 -121 Z " />
<glyph glyph-name="uni021B" unicode="&#x21b;" horiz-adv-x="372" d="M147 0 L147 629 L18 629 L18 700 L354 700 L354 629 L225 629 L225 0 L147 0 Z M178 -121 L153 -121 L153 -33 L219 -33 L219 -114 L184 -177 L155 -177 L178 -121 Z " />
<glyph glyph-name="uni1E03" unicode="&#x1e03;" horiz-adv-x="392" d="M212 830 L212 740 L144 740 L144 830 L212 830 Z M197 700 Q279 700 314 661.5 Q349 623 349 545 L349 512 Q349 456 331 421.5 Q313 387 267 373 Q318 359 339.5 320 Q361 281 361 223 L361 164 Q361 85 322 42.5 Q283 0 201 0 L40 0 L40 700 L197 700 Z M178 403 Q225 403 248.5 422 Q272 441 272 496 L272 537 Q272 584 254.5 606.5 Q237 629 195 629 L118 629 L118 403 L178 403 Z M201 71 Q284 71 284 166 L284 228 Q284 287 260.5 309.5 Q237 332 186 332 L118 332 L118 71 L201 71 Z " />
<glyph glyph-name="uni1E0B" unicode="&#x1e0b;" horiz-adv-x="396" d="M219 830 L219 740 L151 740 L151 830 L219 830 Z M204 700 Q286 700 324.5 653.5 Q363 607 363 526 L363 173 Q363 92 324.5 46 Q286 0 204 0 L40 0 L40 700 L204 700 Z M203 71 Q245 71 265.5 96.5 Q286 122 286 170 L286 530 Q286 578 265.5 603.5 Q245 629 202 629 L118 629 L118 71 L203 71 Z " />
<glyph glyph-name="uni1E1F" unicode="&#x1e1f;" horiz-adv-x="340" d="M214 830 L214 740 L146 740 L146 830 L214 830 Z M279 374 L279 303 L118 303 L118 0 L40 0 L40 700 L318 700 L318 629 L118 629 L118 374 L279 374 Z " />
<glyph glyph-name="uni1E41" unicode="&#x1e41;" horiz-adv-x="523" d="M295 832 L295 742 L227 742 L227 832 L295 832 Z M298 1 L223 1 L107 558 L107 0 L39 0 L39 700 L148 700 L263 141 L374 700 L483 700 L483 0 L409 0 L409 563 L298 1 Z " />
<glyph glyph-name="uni1E57" unicode="&#x1e57;" horiz-adv-x="371" d="M217 830 L217 740 L149 740 L149 830 L217 830 Z M193 700 Q276 700 313 654.5 Q350 609 350 529 L350 445 Q350 361 310.5 318.5 Q271 276 187 276 L118 276 L118 0 L40 0 L40 700 L193 700 Z M187 346 Q231 346 252 367.5 Q273 389 273 440 L273 533 Q273 581 254.5 605 Q236 629 193 629 L118 629 L118 346 L187 346 Z " />
<glyph glyph-name="uni1E61" unicode="&#x1e61;" horiz-adv-x="372" d="M223 833 L223 743 L155 743 L155 833 L223 833 Z M187 707 Q267 707 305 659.5 Q343 612 343 532 L343 513 L269 513 L269 536 Q269 584 250 610 Q231 636 189 636 Q147 636 128 610 Q109 584 109 537 Q109 498 126.5 469 Q144 440 170 415.5 Q196 391 226.5 367.5 Q257 344 283 316 Q309 288 326.5 252.5 Q344 217 344 168 Q344 88 305.5 40.5 Q267 -7 186 -7 Q105 -7 67 40.5 Q29 88 29 168 L29 208 L102 208 L102 164 Q102 116 122 90 Q142 64 184 64 Q226 64 246 90 Q266 116 266 164 Q266 203 248.5 231.5 Q231 260 205 284.5 Q179 309 149 332.5 Q119 356 93 384 Q67 412 49.5 447.5 Q32 483 32 532 Q32 613 70 660 Q108 707 187 707 Z " />
<glyph glyph-name="uni1E6B" unicode="&#x1e6b;" horiz-adv-x="372" d="M219 830 L219 740 L151 740 L151 830 L219 830 Z M146 0 L146 629 L17 629 L17 700 L353 700 L353 629 L224 629 L224 0 L146 0 Z " />
<glyph glyph-name="uogonek" unicode="&#x173;" horiz-adv-x="387" d="M350 169 Q350 144 347 120.5 Q344 97 335.5 75.5 Q327 54 312.5 36 Q298 18 275 5 Q255 -11 245 -32.5 Q235 -54 236 -69 Q236 -85 247.5 -92 Q259 -99 273 -99 Q287 -99 296 -96.5 Q305 -94 313 -90 L313 -131 Q298 -138 284 -140.5 Q270 -143 251 -143 Q218 -143 197 -129.5 Q176 -116 176 -87 Q175 -64 189.5 -42.5 Q204 -21 229 -4 Q214 -8 193 -8 Q113 -8 75 40.5 Q37 89 37 169 L37 700 L114 700 L114 165 Q114 117 133.5 90.5 Q153 64 196 64 Q238 64 257.5 90.5 Q277 117 277 165 L277 700 L350 700 L350 169 Z " />
<glyph glyph-name="uring" unicode="&#x16f;" horiz-adv-x="387" d="M196 881 Q227 881 248.5 860 Q270 839 270 808 Q270 777 248.5 756 Q227 735 196 735 Q165 735 144 756 Q123 777 123 808 Q123 839 144 860 Q165 881 196 881 Z M196 844 Q181 844 170.5 834 Q160 824 160 808 Q160 792 170.5 782 Q181 772 196 772 Q211 772 222 782 Q233 792 233 808 Q233 824 222 834 Q211 844 196 844 Z M350 169 Q350 89 312 40.5 Q274 -8 193 -8 Q113 -8 75 40.5 Q37 89 37 169 L37 700 L114 700 L114 165 Q114 117 133.5 90.5 Q153 64 196 64 Q238 64 257.5 90.5 Q277 117 277 165 L277 700 L350 700 L350 169 Z " />
<glyph glyph-name="utilde" unicode="&#x169;" horiz-adv-x="387" d="M317 802 Q305 772 286.5 758.5 Q268 745 245 745 Q230 745 218.5 749.5 Q207 754 196.5 759.5 Q186 765 176 769.5 Q166 774 154 774 Q140 774 130 767.5 Q120 761 112 744 L73 771 Q85 802 104 815 Q123 828 146 829 Q161 829 173 824.5 Q185 820 195.5 814 Q206 808 216.5 803.5 Q227 799 238 799 Q251 800 260.5 806.5 Q270 813 278 829 L317 802 Z M350 169 Q350 89 312 40.5 Q274 -8 193 -8 Q113 -8 75 40.5 Q37 89 37 169 L37 700 L114 700 L114 165 Q114 117 133.5 90.5 Q153 64 196 64 Q238 64 257.5 90.5 Q277 117 277 165 L277 700 L350 700 L350 169 Z " />
<glyph glyph-name="v" unicode="v" horiz-adv-x="418" d="M99 700 L213 91 L326 700 L398 700 L267 0 L152 0 L20 700 L99 700 Z " />
<glyph glyph-name="w" unicode="w" horiz-adv-x="583" d="M226 0 L119 0 L23 700 L99 700 L181 104 L259 699 L336 699 L413 103 L492 700 L560 700 L465 0 L362 0 L295 475 L226 0 Z " />
<glyph glyph-name="wacute" unicode="&#x1e83;" horiz-adv-x="583" d="M391 842 L298 739 L243 739 L313 842 L391 842 Z M226 0 L119 0 L23 700 L99 700 L181 104 L259 699 L336 699 L413 103 L492 700 L560 700 L465 0 L362 0 L295 475 L226 0 Z " />
<glyph glyph-name="wcircumflex" unicode="&#x175;" horiz-adv-x="583" d="M240 740 L172 740 L258 841 L327 841 L414 740 L346 740 L293 799 L240 740 Z M226 0 L119 0 L23 700 L99 700 L181 104 L259 699 L336 699 L413 103 L492 700 L560 700 L465 0 L362 0 L295 475 L226 0 Z " />
<glyph glyph-name="wdieresis" unicode="&#x1e85;" horiz-adv-x="583" d="M265 831 L265 741 L197 741 L197 831 L265 831 Z M389 831 L389 741 L321 741 L321 831 L389 831 Z M226 0 L119 0 L23 700 L99 700 L181 104 L259 699 L336 699 L413 103 L492 700 L560 700 L465 0 L362 0 L295 475 L226 0 Z " />
<glyph glyph-name="wgrave" unicode="&#x1e81;" horiz-adv-x="583" d="M277 845 L346 742 L289 742 L196 845 L277 845 Z M226 0 L119 0 L23 700 L99 700 L181 104 L259 699 L336 699 L413 103 L492 700 L560 700 L465 0 L362 0 L295 475 L226 0 Z " />
<glyph glyph-name="x" unicode="x" horiz-adv-x="435" d="M214 302 L97 0 L23 0 L164 361 L32 700 L113 700 L221 420 L330 700 L403 700 L272 361 L412 0 L330 0 L214 302 Z " />
<glyph glyph-name="y" unicode="y" horiz-adv-x="406" d="M164 251 L16 700 L97 700 L206 356 L316 700 L390 700 L241 251 L241 0 L164 0 L164 251 Z " />
<glyph glyph-name="yacute" unicode="&#xfd;" horiz-adv-x="406" d="M307 842 L214 739 L160 739 L230 842 L307 842 Z M164 251 L16 700 L97 700 L206 356 L316 700 L390 700 L241 251 L241 0 L164 0 L164 251 Z " />
<glyph glyph-name="ycircumflex" unicode="&#x177;" horiz-adv-x="406" d="M153 740 L85 740 L171 840 L240 840 L327 740 L259 740 L206 799 L153 740 Z M164 251 L16 700 L97 700 L206 356 L316 700 L390 700 L241 251 L241 0 L164 0 L164 251 Z " />
<glyph glyph-name="ydieresis" unicode="&#xff;" horiz-adv-x="406" d="M177 829 L177 739 L109 739 L109 829 L177 829 Z M301 829 L301 739 L233 739 L233 829 L301 829 Z M164 251 L16 700 L97 700 L206 356 L316 700 L390 700 L241 251 L241 0 L164 0 L164 251 Z " />
<glyph glyph-name="ygrave" unicode="&#x1ef3;" horiz-adv-x="406" d="M186 845 L255 742 L198 742 L105 845 L186 845 Z M164 251 L16 700 L97 700 L206 356 L316 700 L390 700 L241 251 L241 0 L164 0 L164 251 Z " />
<glyph glyph-name="z" unicode="z" horiz-adv-x="379" d="M347 0 L29 0 L29 70 L269 629 L40 629 L40 700 L349 700 L349 630 L108 71 L347 71 L347 0 Z " />
<glyph glyph-name="zacute" unicode="&#x17a;" horiz-adv-x="379" d="M297 845 L204 742 L150 742 L219 845 L297 845 Z M347 0 L29 0 L29 70 L269 629 L40 629 L40 700 L349 700 L349 630 L108 71 L347 71 L347 0 Z " />
<glyph glyph-name="zcaron" unicode="&#x17e;" horiz-adv-x="379" d="M141 842 L193 782 L247 842 L315 842 L228 741 L159 741 L73 842 L141 842 Z M347 0 L29 0 L29 70 L269 629 L40 629 L40 700 L349 700 L349 630 L108 71 L347 71 L347 0 Z " />
<glyph glyph-name="zdotaccent" unicode="&#x17c;" horiz-adv-x="379" d="M231 832 L231 742 L163 742 L163 832 L231 832 Z M347 0 L29 0 L29 70 L269 629 L40 629 L40 700 L349 700 L349 630 L108 71 L347 71 L347 0 Z " />
<glyph glyph-name="ordfeminine" unicode="&#xaa;" horiz-adv-x="275" d="M147 705 Q198 705 218 675 Q238 645 238 595 L238 334 L195 334 L192 389 Q183 361 163.5 345 Q144 329 114 329 Q73 329 53 354.5 Q33 380 33 428 L33 432 Q33 468 46 490.5 Q59 513 80.5 526.5 Q102 540 130 545.5 Q158 551 188 552 L188 602 Q188 628 178.5 643.5 Q169 659 145 659 Q95 659 95 598 L95 580 L48 580 L48 595 Q48 646 71.5 675.5 Q95 705 147 705 Z M188 514 Q139 512 111.5 493 Q84 474 84 439 L84 432 Q84 376 133 376 Q159 376 172 392.5 Q185 409 188 435 L188 514 Z M238 277 L238 227 L34 227 L34 277 L238 277 Z " />
<glyph glyph-name="ordmasculine" unicode="&#xba;" horiz-adv-x="277" d="M138 705 Q190 705 215.5 674.5 Q241 644 241 593 L241 440 Q241 389 215.5 358.5 Q190 328 138 328 Q86 328 61 358.5 Q36 389 36 440 L36 593 Q36 644 61 674.5 Q86 705 138 705 Z M138 659 Q111 659 98.5 642.5 Q86 626 86 596 L86 437 Q86 407 98.5 390.5 Q111 374 138 374 Q165 374 177.5 390.5 Q190 407 190 437 L190 596 Q190 626 177.5 642.5 Q165 659 138 659 Z M241 278 L241 228 L37 228 L37 278 L241 278 Z " />
<glyph glyph-name="uni0410" unicode="&#x410;" horiz-adv-x="422" d="M119 141 L92 0 L20 0 L154 700 L267 700 L401 0 L323 0 L296 141 L119 141 Z M129 208 L285 208 L206 612 L129 208 Z " />
<glyph glyph-name="uni0411" unicode="&#x411;" horiz-adv-x="401" d="M200 411 Q282 411 323.5 371.5 Q365 332 365 247 L365 170 Q365 88 326 44 Q287 0 204 0 L41 0 L41 700 L336 700 L336 629 L118 629 L118 411 L200 411 Z M204 71 Q247 71 267 93.5 Q287 116 287 165 L287 252 Q287 303 265 322 Q243 341 200 341 L118 341 L118 71 L204 71 Z " />
<glyph glyph-name="uni0412" unicode="&#x412;" horiz-adv-x="392" d="M197 700 Q279 700 314 661.5 Q349 623 349 545 L349 512 Q349 456 331 421.5 Q313 387 267 373 Q318 359 339.5 320 Q361 281 361 223 L361 164 Q361 85 322 42.5 Q283 0 201 0 L40 0 L40 700 L197 700 Z M178 403 Q225 403 248.5 422 Q272 441 272 496 L272 537 Q272 584 254.5 606.5 Q237 629 195 629 L118 629 L118 403 L178 403 Z M201 71 Q284 71 284 166 L284 228 Q284 287 260.5 309.5 Q237 332 186 332 L118 332 L118 71 L201 71 Z " />
<glyph glyph-name="uni0413" unicode="&#x413;" horiz-adv-x="356" d="M118 629 L118 0 L41 0 L41 700 L320 700 L320 629 L118 629 Z " />
<glyph glyph-name="uni0414" unicode="&#x414;" horiz-adv-x="489" d="M385 -96 L385 0 L99 0 L99 -96 L24 -96 L24 69 L69 69 Q87 89 92.5 114 Q98 139 100 171 L127 700 L408 700 L408 69 L461 69 L461 -96 L385 -96 Z M176 172 Q174 134 167.5 110 Q161 86 144 69 L329 69 L329 629 L199 629 L176 172 Z " />
<glyph glyph-name="uni0415" unicode="&#x415;" horiz-adv-x="360" d="M289 390 L289 320 L118 320 L118 71 L328 71 L328 0 L40 0 L40 700 L328 700 L328 629 L118 629 L118 390 L289 390 Z " />
<glyph glyph-name="uni0401" unicode="&#x401;" horiz-adv-x="360" d="M155 831 L155 741 L87 741 L87 831 L155 831 Z M280 831 L280 741 L211 741 L211 831 L280 831 Z M289 390 L289 320 L118 320 L118 71 L328 71 L328 0 L40 0 L40 700 L328 700 L328 629 L118 629 L118 390 L289 390 Z " />
<glyph glyph-name="uni0416" unicode="&#x416;" horiz-adv-x="613" d="M382 330 L345 264 L345 0 L268 0 L268 264 L232 331 L98 0 L18 0 L178 403 L22 700 L100 700 L268 378 L268 700 L345 700 L345 378 L514 700 L592 700 L437 405 L596 0 L516 0 L382 330 Z " />
<glyph glyph-name="uni0417" unicode="&#x417;" horiz-adv-x="387" d="M193 707 Q274 707 312.5 659 Q351 611 351 531 L351 513 Q351 459 329.5 421.5 Q308 384 265 368 Q310 353 330.5 315 Q351 277 351 224 L351 169 Q351 89 312.5 41 Q274 -7 193 -7 Q113 -7 74.5 41 Q36 89 36 169 L36 237 L109 237 L109 165 Q109 117 129 90.5 Q149 64 191 64 Q234 64 253.5 91 Q273 118 273 171 L273 226 Q273 330 183 330 L150 330 L150 400 L187 400 Q226 400 249.5 425 Q273 450 273 496 L273 528 Q273 582 253.5 609 Q234 636 191 636 Q149 636 129 609.5 Q109 583 109 535 L109 488 L37 488 L37 532 Q37 613 74.5 660 Q112 707 193 707 Z " />
<glyph glyph-name="uni0418" unicode="&#x418;" horiz-adv-x="409" d="M225 325 L121 0 L40 0 L40 700 L109 700 L109 178 L181 399 L283 700 L370 700 L370 0 L300 0 L300 557 L225 325 Z " />
<glyph glyph-name="uni0419" unicode="&#x419;" horiz-adv-x="410" d="M317 844 Q317 798 288.5 772 Q260 746 209 746 Q158 746 130.5 772 Q103 798 101 844 L150 844 Q152 815 168 804 Q184 793 209 793 Q234 793 250.5 804 Q267 815 269 844 L317 844 Z M227 331 L121 0 L40 0 L40 700 L109 700 L109 178 L175 383 L283 700 L370 700 L370 0 L300 0 L300 557 L227 331 Z " />
<glyph glyph-name="uni041A" unicode="&#x41a;" horiz-adv-x="409" d="M159 304 L118 235 L118 0 L40 0 L40 700 L118 700 L118 362 L304 700 L383 700 L206 381 L389 0 L309 0 L159 304 Z " />
<glyph glyph-name="uni041B" unicode="&#x41b;" horiz-adv-x="444" d="M189 629 L173 174 Q171 132 164 100 Q157 68 141 45.5 Q125 23 98.5 11 Q72 -1 32 -1 L19 -1 L19 70 Q43 70 58 76 Q73 82 81.5 94.5 Q90 107 93 126 Q96 145 97 170 L116 700 L401 700 L401 0 L323 0 L323 629 L189 629 Z " />
<glyph glyph-name="uni041C" unicode="&#x41c;" horiz-adv-x="523" d="M298 1 L223 1 L107 558 L107 0 L39 0 L39 700 L148 700 L263 141 L374 700 L483 700 L483 0 L409 0 L409 563 L298 1 Z " />
<glyph glyph-name="uni041D" unicode="&#x41d;" horiz-adv-x="408" d="M118 315 L118 0 L40 0 L40 700 L118 700 L118 385 L290 385 L290 700 L368 700 L368 0 L290 0 L290 315 L118 315 Z " />
<glyph glyph-name="uni041E" unicode="&#x41e;" horiz-adv-x="389" d="M34 531 Q34 612 73.5 659.5 Q113 707 194 707 Q275 707 315 659.5 Q355 612 355 531 L355 169 Q355 89 315 41 Q275 -7 194 -7 Q113 -7 73.5 41 Q34 89 34 169 L34 531 Z M111 165 Q111 117 131.5 90.5 Q152 64 194 64 Q237 64 257 90.5 Q277 117 277 165 L277 535 Q277 583 257 609.5 Q237 636 194 636 Q152 636 131.5 609.5 Q111 583 111 535 L111 165 Z " />
<glyph glyph-name="uni041F" unicode="&#x41f;" horiz-adv-x="408" d="M118 629 L118 0 L40 0 L40 700 L368 700 L368 0 L290 0 L290 629 L118 629 Z " />
<glyph glyph-name="uni0420" unicode="&#x420;" horiz-adv-x="371" d="M193 700 Q276 700 313 654.5 Q350 609 350 529 L350 445 Q350 361 310.5 318.5 Q271 276 187 276 L118 276 L118 0 L40 0 L40 700 L193 700 Z M187 346 Q231 346 252 367.5 Q273 389 273 440 L273 533 Q273 581 254.5 605 Q236 629 193 629 L118 629 L118 346 L187 346 Z " />
<glyph glyph-name="uni0421" unicode="&#x421;" horiz-adv-x="380" d="M191 707 Q272 707 310.5 659 Q349 611 349 531 L349 468 L275 468 L275 535 Q275 583 255.5 609.5 Q236 636 193 636 Q151 636 131 609.5 Q111 583 111 535 L111 165 Q111 117 131 90.5 Q151 64 193 64 Q236 64 255.5 90.5 Q275 117 275 165 L275 256 L349 256 L349 169 Q349 89 310.5 41 Q272 -7 191 -7 Q111 -7 72.5 41 Q34 89 34 169 L34 531 Q34 571 43.5 603.5 Q53 636 72.5 659 Q92 682 121.5 694.5 Q151 707 191 707 Z " />
<glyph glyph-name="uni0422" unicode="&#x422;" horiz-adv-x="372" d="M147 0 L147 629 L18 629 L18 700 L354 700 L354 629 L225 629 L225 0 L147 0 Z " />
<glyph glyph-name="uni0423" unicode="&#x423;" horiz-adv-x="417" d="M250 154 Q241 115 228.5 85 Q216 55 195 35 Q174 15 142.5 6 Q111 -3 63 -1 L63 69 Q108 67 130.5 82.5 Q153 98 163 138 L179 184 L18 700 L96 700 L167 457 L215 281 L256 457 L319 700 L400 700 L250 154 Z " />
<glyph glyph-name="uni0424" unicode="&#x424;" horiz-adv-x="569" d="M371 618 Q456 618 494.5 572.5 Q533 527 533 443 L533 252 Q533 168 494.5 122.5 Q456 77 371 77 L322 77 L322 0 L245 0 L245 77 L196 77 Q111 77 72.5 122.5 Q34 168 34 252 L34 443 Q34 527 72.5 572.5 Q111 618 196 618 L245 618 L245 700 L322 700 L322 618 L371 618 Z M196 549 Q151 549 131 524 Q111 499 111 448 L111 247 Q111 196 131 170.5 Q151 145 196 145 L245 145 L245 549 L196 549 Z M371 145 Q457 145 457 247 L457 448 Q457 499 436.5 524 Q416 549 371 549 L322 549 L322 145 L371 145 Z " />
<glyph glyph-name="uni0425" unicode="&#x425;" horiz-adv-x="435" d="M214 302 L97 0 L23 0 L164 361 L32 700 L113 700 L221 420 L330 700 L403 700 L272 361 L412 0 L330 0 L214 302 Z " />
<glyph glyph-name="uni0427" unicode="&#x427;" horiz-adv-x="401" d="M283 310 Q264 283 235 269 Q206 255 174 255 Q139 255 112.5 267.5 Q86 280 69 302.5 Q52 325 43.5 355.5 Q35 386 35 421 L35 700 L113 700 L113 427 Q113 382 135 354 Q157 326 199 326 Q271 326 283 408 L283 700 L360 700 L360 0 L283 0 L283 310 Z " />
<glyph glyph-name="uni0426" unicode="&#x426;" horiz-adv-x="455" d="M352 -94 L352 0 L47 0 L47 700 L124 700 L124 71 L296 71 L296 700 L375 700 L375 69 L428 69 L428 -94 L352 -94 Z " />
<glyph glyph-name="uni0428" unicode="&#x428;" horiz-adv-x="581" d="M118 700 L118 71 L252 71 L252 700 L330 700 L330 71 L464 71 L464 700 L541 700 L541 0 L40 0 L40 700 L118 700 Z " />
<glyph glyph-name="uni0429" unicode="&#x429;" horiz-adv-x="622" d="M520 -94 L520 0 L40 0 L40 700 L118 700 L118 71 L252 71 L252 700 L329 700 L329 71 L464 71 L464 700 L541 700 L541 69 L595 69 L595 -94 L520 -94 Z " />
<glyph glyph-name="uni042F" unicode="&#x42f;" horiz-adv-x="394" d="M221 299 Q172 299 145.5 276.5 Q119 254 119 195 L119 85 Q119 50 116 32.5 Q113 15 106 0 L27 0 Q36 18 38.5 39.5 Q41 61 41 84 L41 193 Q41 250 60.5 287.5 Q80 325 128 339 Q42 367 42 483 L42 540 Q42 618 78.5 659 Q115 700 198 700 L354 700 L354 0 L276 0 L276 299 L221 299 Z M200 629 Q156 629 137.5 605 Q119 581 119 533 L119 466 Q119 409 145 389.5 Q171 370 217 370 L276 370 L276 629 L200 629 Z " />
<glyph glyph-name="uni042C" unicode="&#x42c;" horiz-adv-x="381" d="M187 424 Q271 424 310.5 381.5 Q350 339 350 255 L350 171 Q350 91 312.5 45.5 Q275 0 193 0 L40 0 L40 700 L118 700 L118 424 L187 424 Z M193 71 Q236 71 254.5 95 Q273 119 273 167 L273 260 Q273 311 252 332.5 Q231 354 187 354 L118 354 L118 71 L193 71 Z " />
<glyph glyph-name="uni042A" unicode="&#x42a;" horiz-adv-x="438" d="M245 424 Q408 424 408 255 L408 171 Q408 91 370.5 45.5 Q333 0 251 0 L98 0 L98 630 L10 630 L10 700 L175 700 L175 424 L245 424 Z M251 71 Q294 71 312 95 Q330 119 330 167 L330 260 Q330 311 309.5 332.5 Q289 354 245 354 L175 354 L175 71 L251 71 Z " />
<glyph glyph-name="uni042B" unicode="&#x42b;" horiz-adv-x="532" d="M187 424 Q271 424 310.5 381.5 Q350 339 350 255 L350 171 Q350 91 312.5 45.5 Q275 0 193 0 L40 0 L40 700 L118 700 L118 424 L187 424 Z M492 700 L492 0 L415 0 L415 700 L492 700 Z M193 71 Q236 71 254.5 95 Q273 119 273 167 L273 260 Q273 311 252 332.5 Q231 354 187 354 L118 354 L118 71 L193 71 Z " />
<glyph glyph-name="uni042D" unicode="&#x42d;" horiz-adv-x="380" d="M188 707 Q228 707 257.5 694.5 Q287 682 306.5 659 Q326 636 335.5 603.5 Q345 571 345 531 L345 169 Q345 89 306.5 41 Q268 -7 188 -7 Q108 -7 69.5 41 Q31 89 31 169 L31 245 L104 245 L104 165 Q104 117 124 90.5 Q144 64 186 64 Q228 64 248 90.5 Q268 117 268 165 L268 327 L146 327 L146 397 L268 397 L268 535 Q268 583 248 609.5 Q228 636 186 636 Q144 636 124 609.5 Q104 583 104 535 L104 479 L32 479 L32 531 Q32 571 41.5 603.5 Q51 636 70 659 Q89 682 118.5 694.5 Q148 707 188 707 Z " />
<glyph glyph-name="uni042E" unicode="&#x42e;" horiz-adv-x="575" d="M380 707 Q461 707 500.5 659.5 Q540 612 540 531 L540 169 Q540 89 500.5 41 Q461 -7 380 -7 Q299 -7 259 41 Q219 89 219 169 L219 315 L118 315 L118 0 L40 0 L40 700 L118 700 L118 385 L219 385 L219 531 Q219 612 259 659.5 Q299 707 380 707 Z M380 636 Q337 636 317 609.5 Q297 583 297 535 L297 165 Q297 117 317 90.5 Q337 64 380 64 Q422 64 442.5 90.5 Q463 117 463 165 L463 535 Q463 583 442.5 609.5 Q422 636 380 636 Z " />
<glyph glyph-name="uni0430" unicode="&#x430;" horiz-adv-x="422" d="M119 141 L92 0 L20 0 L154 700 L267 700 L401 0 L323 0 L296 141 L119 141 Z M129 208 L285 208 L206 612 L129 208 Z " />
<glyph glyph-name="uni0431" unicode="&#x431;" horiz-adv-x="401" d="M200 411 Q282 411 323.5 371.5 Q365 332 365 247 L365 170 Q365 88 326 44 Q287 0 204 0 L41 0 L41 700 L336 700 L336 629 L118 629 L118 411 L200 411 Z M204 71 Q247 71 267 93.5 Q287 116 287 165 L287 252 Q287 303 265 322 Q243 341 200 341 L118 341 L118 71 L204 71 Z " />
<glyph glyph-name="uni0432" unicode="&#x432;" horiz-adv-x="392" d="M197 700 Q279 700 314 661.5 Q349 623 349 545 L349 512 Q349 456 331 421.5 Q313 387 267 373 Q318 359 339.5 320 Q361 281 361 223 L361 164 Q361 85 322 42.5 Q283 0 201 0 L40 0 L40 700 L197 700 Z M178 403 Q225 403 248.5 422 Q272 441 272 496 L272 537 Q272 584 254.5 606.5 Q237 629 195 629 L118 629 L118 403 L178 403 Z M201 71 Q284 71 284 166 L284 228 Q284 287 260.5 309.5 Q237 332 186 332 L118 332 L118 71 L201 71 Z " />
<glyph glyph-name="uni0433" unicode="&#x433;" horiz-adv-x="356" d="M118 629 L118 0 L41 0 L41 700 L320 700 L320 629 L118 629 Z " />
<glyph glyph-name="uni0434" unicode="&#x434;" horiz-adv-x="489" d="M385 -96 L385 0 L99 0 L99 -96 L24 -96 L24 69 L69 69 Q87 89 92.5 114 Q98 139 100 171 L127 700 L408 700 L408 69 L461 69 L461 -96 L385 -96 Z M176 172 Q174 134 167.5 110 Q161 86 144 69 L329 69 L329 629 L199 629 L176 172 Z " />
<glyph glyph-name="uni0435" unicode="&#x435;" horiz-adv-x="360" d="M289 390 L289 320 L118 320 L118 71 L328 71 L328 0 L40 0 L40 700 L328 700 L328 629 L118 629 L118 390 L289 390 Z " />
<glyph glyph-name="uni0451" unicode="&#x451;" horiz-adv-x="360" d="M155 831 L155 741 L87 741 L87 831 L155 831 Z M280 831 L280 741 L211 741 L211 831 L280 831 Z M289 390 L289 320 L118 320 L118 71 L328 71 L328 0 L40 0 L40 700 L328 700 L328 629 L118 629 L118 390 L289 390 Z " />
<glyph glyph-name="uni0436" unicode="&#x436;" horiz-adv-x="613" d="M382 330 L345 264 L345 0 L268 0 L268 264 L232 331 L98 0 L18 0 L178 403 L22 700 L100 700 L268 378 L268 700 L345 700 L345 378 L514 700 L592 700 L437 405 L596 0 L516 0 L382 330 Z " />
<glyph glyph-name="uni0437" unicode="&#x437;" horiz-adv-x="387" d="M193 707 Q274 707 312.5 659 Q351 611 351 531 L351 513 Q351 459 329.5 421.5 Q308 384 265 368 Q310 353 330.5 315 Q351 277 351 224 L351 169 Q351 89 312.5 41 Q274 -7 193 -7 Q113 -7 74.5 41 Q36 89 36 169 L36 237 L109 237 L109 165 Q109 117 129 90.5 Q149 64 191 64 Q234 64 253.5 91 Q273 118 273 171 L273 226 Q273 330 183 330 L150 330 L150 400 L187 400 Q226 400 249.5 425 Q273 450 273 496 L273 528 Q273 582 253.5 609 Q234 636 191 636 Q149 636 129 609.5 Q109 583 109 535 L109 488 L37 488 L37 532 Q37 613 74.5 660 Q112 707 193 707 Z " />
<glyph glyph-name="uni0438" unicode="&#x438;" horiz-adv-x="409" d="M224 323 L121 0 L40 0 L40 700 L109 700 L109 178 L171 371 L283 700 L370 700 L370 0 L300 0 L300 557 L224 323 Z " />
<glyph glyph-name="uni0439" unicode="&#x439;" horiz-adv-x="410" d="M317 843 Q317 797 288.5 771 Q260 745 209 745 Q158 745 130.5 771 Q103 797 101 843 L150 843 Q152 814 168 803 Q184 792 209 792 Q234 792 250.5 803 Q267 814 269 843 L317 843 Z M230 337 L121 0 L40 0 L40 700 L109 700 L109 178 L174 380 L283 700 L370 700 L370 0 L300 0 L300 557 L230 337 Z " />
<glyph glyph-name="uni043A" unicode="&#x43a;" horiz-adv-x="409" d="M159 304 L118 235 L118 0 L40 0 L40 700 L118 700 L118 362 L304 700 L383 700 L206 381 L389 0 L309 0 L159 304 Z " />
<glyph glyph-name="uni043B" unicode="&#x43b;" horiz-adv-x="444" d="M189 629 L173 174 Q171 132 164 100 Q157 68 141 45.5 Q125 23 98.5 11 Q72 -1 32 -1 L19 -1 L19 70 Q43 70 58 76 Q73 82 81.5 94.5 Q90 107 93 126 Q96 145 97 170 L116 700 L401 700 L401 0 L323 0 L323 629 L189 629 Z " />
<glyph glyph-name="uni043C" unicode="&#x43c;" horiz-adv-x="523" d="M298 1 L223 1 L107 558 L107 0 L39 0 L39 700 L148 700 L263 141 L374 700 L483 700 L483 0 L409 0 L409 563 L298 1 Z " />
<glyph glyph-name="uni043D" unicode="&#x43d;" horiz-adv-x="408" d="M118 315 L118 0 L40 0 L40 700 L118 700 L118 385 L290 385 L290 700 L368 700 L368 0 L290 0 L290 315 L118 315 Z " />
<glyph glyph-name="uni043E" unicode="&#x43e;" horiz-adv-x="389" d="M34 531 Q34 612 73.5 659.5 Q113 707 194 707 Q275 707 315 659.5 Q355 612 355 531 L355 169 Q355 89 315 41 Q275 -7 194 -7 Q113 -7 73.5 41 Q34 89 34 169 L34 531 Z M111 165 Q111 117 131.5 90.5 Q152 64 194 64 Q237 64 257 90.5 Q277 117 277 165 L277 535 Q277 583 257 609.5 Q237 636 194 636 Q152 636 131.5 609.5 Q111 583 111 535 L111 165 Z " />
<glyph glyph-name="uni043F" unicode="&#x43f;" horiz-adv-x="408" d="M118 629 L118 0 L40 0 L40 700 L368 700 L368 0 L290 0 L290 629 L118 629 Z " />
<glyph glyph-name="uni0440" unicode="&#x440;" horiz-adv-x="371" d="M193 700 Q276 700 313 654.5 Q350 609 350 529 L350 445 Q350 361 310.5 318.5 Q271 276 187 276 L118 276 L118 0 L40 0 L40 700 L193 700 Z M187 346 Q231 346 252 367.5 Q273 389 273 440 L273 533 Q273 581 254.5 605 Q236 629 193 629 L118 629 L118 346 L187 346 Z " />
<glyph glyph-name="uni0441" unicode="&#x441;" horiz-adv-x="380" d="M191 707 Q272 707 310.5 659 Q349 611 349 531 L349 468 L275 468 L275 535 Q275 583 255.5 609.5 Q236 636 193 636 Q151 636 131 609.5 Q111 583 111 535 L111 165 Q111 117 131 90.5 Q151 64 193 64 Q236 64 255.5 90.5 Q275 117 275 165 L275 256 L349 256 L349 169 Q349 89 310.5 41 Q272 -7 191 -7 Q111 -7 72.5 41 Q34 89 34 169 L34 531 Q34 571 43.5 603.5 Q53 636 72.5 659 Q92 682 121.5 694.5 Q151 707 191 707 Z " />
<glyph glyph-name="uni0442" unicode="&#x442;" horiz-adv-x="372" d="M147 0 L147 629 L18 629 L18 700 L354 700 L354 629 L225 629 L225 0 L147 0 Z " />
<glyph glyph-name="uni0443" unicode="&#x443;" horiz-adv-x="417" d="M250 154 Q241 115 228.5 85 Q216 55 195 35 Q174 15 142.5 6 Q111 -3 63 -1 L63 69 Q108 67 130.5 82.5 Q153 98 163 138 L179 184 L18 700 L96 700 L167 457 L215 281 L256 457 L319 700 L400 700 L250 154 Z " />
<glyph glyph-name="uni0444" unicode="&#x444;" horiz-adv-x="569" d="M371 618 Q456 618 494.5 572.5 Q533 527 533 443 L533 252 Q533 168 494.5 122.5 Q456 77 371 77 L322 77 L322 0 L245 0 L245 77 L196 77 Q111 77 72.5 122.5 Q34 168 34 252 L34 443 Q34 527 72.5 572.5 Q111 618 196 618 L245 618 L245 700 L322 700 L322 618 L371 618 Z M196 549 Q151 549 131 524 Q111 499 111 448 L111 247 Q111 196 131 170.5 Q151 145 196 145 L245 145 L245 549 L196 549 Z M371 145 Q457 145 457 247 L457 448 Q457 499 436.5 524 Q416 549 371 549 L322 549 L322 145 L371 145 Z " />
<glyph glyph-name="uni0445" unicode="&#x445;" horiz-adv-x="435" d="M214 302 L97 0 L23 0 L164 361 L32 700 L113 700 L221 420 L330 700 L403 700 L272 361 L412 0 L330 0 L214 302 Z " />
<glyph glyph-name="uni0447" unicode="&#x447;" horiz-adv-x="401" d="M283 310 Q264 283 235 269 Q206 255 174 255 Q139 255 112.5 267.5 Q86 280 69 302.5 Q52 325 43.5 355.5 Q35 386 35 421 L35 700 L113 700 L113 427 Q113 382 135 354 Q157 326 199 326 Q271 326 283 408 L283 700 L360 700 L360 0 L283 0 L283 310 Z " />
<glyph glyph-name="uni0446" unicode="&#x446;" horiz-adv-x="455" d="M352 -94 L352 0 L47 0 L47 700 L124 700 L124 71 L296 71 L296 700 L375 700 L375 69 L428 69 L428 -94 L352 -94 Z " />
<glyph glyph-name="uni0448" unicode="&#x448;" horiz-adv-x="581" d="M118 700 L118 71 L252 71 L252 700 L330 700 L330 71 L464 71 L464 700 L541 700 L541 0 L40 0 L40 700 L118 700 Z " />
<glyph glyph-name="uni0449" unicode="&#x449;" horiz-adv-x="622" d="M520 -94 L520 0 L40 0 L40 700 L118 700 L118 71 L252 71 L252 700 L329 700 L329 71 L464 71 L464 700 L541 700 L541 69 L595 69 L595 -94 L520 -94 Z " />
<glyph glyph-name="uni044C" unicode="&#x44c;" horiz-adv-x="381" d="M187 424 Q271 424 310.5 381.5 Q350 339 350 255 L350 171 Q350 91 312.5 45.5 Q275 0 193 0 L40 0 L40 700 L118 700 L118 424 L187 424 Z M193 71 Q236 71 254.5 95 Q273 119 273 167 L273 260 Q273 311 252 332.5 Q231 354 187 354 L118 354 L118 71 L193 71 Z " />
<glyph glyph-name="uni044A" unicode="&#x44a;" horiz-adv-x="438" d="M245 424 Q408 424 408 255 L408 171 Q408 91 370.5 45.5 Q333 0 251 0 L98 0 L98 630 L10 630 L10 700 L175 700 L175 424 L245 424 Z M251 71 Q294 71 312 95 Q330 119 330 167 L330 260 Q330 311 309.5 332.5 Q289 354 245 354 L175 354 L175 71 L251 71 Z " />
<glyph glyph-name="uni044B" unicode="&#x44b;" horiz-adv-x="532" d="M187 424 Q271 424 310.5 381.5 Q350 339 350 255 L350 171 Q350 91 312.5 45.5 Q275 0 193 0 L40 0 L40 700 L118 700 L118 424 L187 424 Z M492 700 L492 0 L415 0 L415 700 L492 700 Z M193 71 Q236 71 254.5 95 Q273 119 273 167 L273 260 Q273 311 252 332.5 Q231 354 187 354 L118 354 L118 71 L193 71 Z " />
<glyph glyph-name="uni044D" unicode="&#x44d;" horiz-adv-x="380" d="M188 707 Q228 707 257.5 694.5 Q287 682 306.5 659 Q326 636 335.5 603.5 Q345 571 345 531 L345 169 Q345 89 306.5 41 Q268 -7 188 -7 Q108 -7 69.5 41 Q31 89 31 169 L31 245 L104 245 L104 165 Q104 117 124 90.5 Q144 64 186 64 Q228 64 248 90.5 Q268 117 268 165 L268 327 L146 327 L146 397 L268 397 L268 535 Q268 583 248 609.5 Q228 636 186 636 Q144 636 124 609.5 Q104 583 104 535 L104 479 L32 479 L32 531 Q32 571 41.5 603.5 Q51 636 70 659 Q89 682 118.5 694.5 Q148 707 188 707 Z " />
<glyph glyph-name="uni044E" unicode="&#x44e;" horiz-adv-x="575" d="M380 707 Q461 707 500.5 659.5 Q540 612 540 531 L540 169 Q540 89 500.5 41 Q461 -7 380 -7 Q299 -7 259 41 Q219 89 219 169 L219 315 L118 315 L118 0 L40 0 L40 700 L118 700 L118 385 L219 385 L219 531 Q219 612 259 659.5 Q299 707 380 707 Z M380 636 Q337 636 317 609.5 Q297 583 297 535 L297 165 Q297 117 317 90.5 Q337 64 380 64 Q422 64 442.5 90.5 Q463 117 463 165 L463 535 Q463 583 442.5 609.5 Q422 636 380 636 Z " />
<glyph glyph-name="uni044F" unicode="&#x44f;" horiz-adv-x="394" d="M221 299 Q172 299 145.5 276.5 Q119 254 119 195 L119 85 Q119 50 116 32.5 Q113 15 106 0 L27 0 Q36 18 38.5 39.5 Q41 61 41 84 L41 193 Q41 250 60.5 287.5 Q80 325 128 339 Q42 367 42 483 L42 540 Q42 618 78.5 659 Q115 700 198 700 L354 700 L354 0 L276 0 L276 299 L221 299 Z M200 629 Q156 629 137.5 605 Q119 581 119 533 L119 466 Q119 409 145 389.5 Q171 370 217 370 L276 370 L276 629 L200 629 Z " />
<glyph glyph-name="zero" unicode="0" horiz-adv-x="389" d="M34 531 Q34 612 73.5 659.5 Q113 707 194 707 Q275 707 315 659.5 Q355 612 355 531 L355 170 Q355 89 315 41 Q275 -7 194 -7 Q113 -7 73.5 41 Q34 89 34 170 L34 531 Z M111 165 Q111 117 131.5 90.5 Q152 64 194 64 Q237 64 257 90.5 Q277 117 277 165 L277 535 Q277 583 257 610 Q237 637 194 637 Q152 637 131.5 610 Q111 583 111 535 L111 165 Z " />
<glyph glyph-name="one" unicode="1" horiz-adv-x="338" d="M183 573 Q163 561 138.5 553 Q114 545 86 543 L86 607 Q114 608 134 616 Q154 624 167.5 636.5 Q181 649 190 665.5 Q199 682 206 700 L260 700 L260 0 L183 0 L183 573 Z " />
<glyph glyph-name="two" unicode="2" horiz-adv-x="387" d="M197 707 Q279 707 317 659 Q355 611 355 530 Q355 477 337.5 434.5 Q320 392 293.5 355.5 Q267 319 236.5 287 Q206 255 179.5 223 Q153 191 135 156.5 Q117 122 117 82 L117 71 L347 71 L347 0 L40 0 L40 60 Q40 116 57.5 159 Q75 202 101.5 237.5 Q128 273 158.5 304.5 Q189 336 215.5 369 Q242 402 259.5 440 Q277 478 277 527 Q277 581 258 609 Q239 637 195 637 Q152 637 132.5 609 Q113 581 113 534 L113 472 L40 472 L40 529 Q40 610 78 658.5 Q116 707 197 707 Z " />
<glyph glyph-name="three" unicode="3" horiz-adv-x="387" d="M193 707 Q274 707 312.5 659.5 Q351 612 351 531 L351 513 Q351 459 329.5 422 Q308 385 266 369 Q311 352 331 314.5 Q351 277 351 224 L351 170 Q351 89 312.5 41 Q274 -7 193 -7 Q113 -7 74.5 41.5 Q36 90 36 170 L36 218 L109 218 L109 165 Q109 117 129 90.5 Q149 64 191 64 Q234 64 253.5 91 Q273 118 273 172 L273 226 Q273 327 185 330 L143 330 L143 400 L189 400 Q228 402 250.5 426 Q273 450 273 496 L273 528 Q273 582 253.5 609.5 Q234 637 191 637 Q149 637 129 610 Q109 583 109 535 L109 499 L36 499 L36 531 Q36 612 74 659.5 Q112 707 193 707 Z " />
<glyph glyph-name="four" unicode="4" horiz-adv-x="400" d="M324 141 L324 0 L248 0 L248 141 L22 141 L22 212 L239 700 L324 700 L324 212 L380 212 L380 141 L324 141 Z M94 212 L248 212 L248 554 L94 212 Z " />
<glyph glyph-name="five" unicode="5" horiz-adv-x="387" d="M118 415 Q152 473 222 473 Q290 473 321 427.5 Q352 382 352 307 L352 170 Q352 90 313 41.5 Q274 -7 194 -7 Q114 -7 75.5 41.5 Q37 90 37 170 L37 217 L110 217 L110 165 Q110 117 130 90.5 Q150 64 192 64 Q234 64 254 90.5 Q274 117 274 165 L274 301 Q274 349 254 375.5 Q234 402 192 402 Q160 402 139 383.5 Q118 365 113 327 L113 311 L40 311 L59 700 L335 700 L335 630 L129 630 L118 415 Z " />
<glyph glyph-name="six" unicode="6" horiz-adv-x="389" d="M196 707 Q277 707 315.5 660 Q354 613 354 532 L354 519 L281 519 L281 537 Q281 585 261 611 Q241 637 198 637 Q153 637 133 609 Q113 581 113 524 L113 367 Q127 403 155.5 422.5 Q184 442 226 442 Q294 442 325 397 Q356 352 356 276 L356 170 Q356 89 316.5 41 Q277 -7 196 -7 Q115 -7 75 41 Q35 89 35 170 L35 527 Q35 611 73.5 659 Q112 707 196 707 Z M196 371 Q153 371 133 344.5 Q113 318 113 270 L113 165 Q113 117 133 90.5 Q153 64 196 64 Q238 64 258.5 90.5 Q279 117 279 165 L279 270 Q279 318 258.5 344.5 Q238 371 196 371 Z " />
<glyph glyph-name="seven" unicode="7" horiz-adv-x="387" d="M273 630 L35 630 L35 700 L352 700 L352 632 L172 0 L94 0 L273 630 Z " />
<glyph glyph-name="eight" unicode="8" horiz-adv-x="392" d="M196 707 Q277 707 319 661 Q361 615 361 534 L361 512 Q361 458 342 421 Q323 384 281 368 Q325 351 343 312 Q361 273 361 220 L361 168 Q361 87 319.5 40 Q278 -7 196 -7 Q114 -7 72.5 40 Q31 87 31 168 L31 220 Q31 274 49 312 Q67 350 112 368 Q69 385 50 421.5 Q31 458 31 512 L31 534 Q31 615 73 661 Q115 707 196 707 Z M196 637 Q154 637 131 611.5 Q108 586 108 532 L108 498 Q108 447 131 423.5 Q154 400 196 400 Q238 400 261 423.5 Q284 447 284 498 L284 532 Q284 586 261 611.5 Q238 637 196 637 Z M196 330 Q108 330 108 229 L108 170 Q108 116 131 90 Q154 64 196 64 Q238 64 260.5 90 Q283 116 284 170 L284 229 Q284 330 196 330 Z " />
<glyph glyph-name="nine" unicode="9" horiz-adv-x="389" d="M193 707 Q274 707 314 659.5 Q354 612 354 531 L354 174 Q354 91 315 42 Q276 -7 192 -7 Q111 -7 72.5 40.5 Q34 88 34 169 L34 182 L107 182 L107 164 Q107 116 127.5 90 Q148 64 190 64 Q235 64 255.5 92 Q276 120 276 176 L276 333 Q247 259 163 259 Q95 259 64 303.5 Q33 348 33 424 L33 531 Q33 612 72.5 659.5 Q112 707 193 707 Z M193 636 Q151 636 130.5 609.5 Q110 583 110 535 L110 430 Q110 382 130.5 355.5 Q151 329 193 329 Q236 329 256 355.5 Q276 382 276 430 L276 535 Q276 583 256 609.5 Q236 636 193 636 Z " />
<glyph glyph-name="fraction" unicode="&#x2044;" horiz-adv-x="164" d="M244 700 L-32 0 L-79 0 L197 700 L244 700 Z " />
<glyph glyph-name="onehalf" unicode="&#xbd;" horiz-adv-x="599" d="M118 623 Q93 608 57 605 L57 642 Q93 643 108.5 660 Q124 677 133 700 L168 700 L168 256 L118 256 L118 623 Z M439 700 L163 0 L116 0 L392 700 L439 700 Z M466 450 Q518 450 542 419 Q566 388 566 337 Q566 303 555 276.5 Q544 250 527.5 227 Q511 204 491.5 183.5 Q472 163 455 143 Q438 123 426.5 101 Q415 79 415 53 L415 46 L561 46 L561 0 L365 0 L365 38 Q365 74 376 101 Q387 128 404 150.5 Q421 173 440.5 193 Q460 213 477 234.5 Q494 256 505 280 Q516 304 516 336 Q516 404 464 404 Q438 404 425.5 386.5 Q413 369 413 339 L413 301 L365 301 L365 336 Q365 387 389 418.5 Q413 450 466 450 Z " />
<glyph glyph-name="uni2153" unicode="&#x2153;" horiz-adv-x="596" d="M118 623 Q93 608 57 605 L57 642 Q93 643 108.5 660 Q124 677 133 700 L168 700 L168 256 L118 256 L118 623 Z M439 700 L163 0 L116 0 L392 700 L439 700 Z M458 449 Q510 449 534.5 418.5 Q559 388 559 336 L559 325 Q559 255 506 234 Q534 223 546.5 199 Q559 175 559 142 L559 108 Q559 56 534.5 25.5 Q510 -5 458 -5 Q406 -5 382 25.5 Q358 56 358 108 L358 138 L406 138 L406 104 Q406 75 418.5 58 Q431 41 457 41 Q508 41 508 109 L508 143 Q508 208 453 208 L426 208 L426 254 L455 254 Q480 254 494.5 270 Q509 286 508 315 L508 335 Q508 403 457 403 Q431 403 418.5 386 Q406 369 406 340 L406 317 L358 317 L358 336 Q358 388 382 418.5 Q406 449 458 449 Z " />
<glyph glyph-name="uni2154" unicode="&#x2154;" horiz-adv-x="618" d="M142 705 Q194 705 218 674 Q242 643 242 592 Q242 558 230.5 531 Q219 504 202.5 481 Q186 458 166 437 Q146 416 129.5 395.5 Q113 375 102 353.5 Q91 332 91 306 L91 301 L237 301 L237 255 L41 255 L41 293 Q41 329 52 356.5 Q63 384 80 406.5 Q97 429 116.5 449 Q136 469 153 490 Q170 511 181 535.5 Q192 560 192 591 Q192 659 140 659 Q114 659 101.5 641.5 Q89 624 89 594 L89 556 L41 556 L41 592 Q41 643 65 674 Q89 705 142 705 Z M200 0 L153 0 L429 700 L476 700 L200 0 Z M481 449 Q532 449 556.5 418.5 Q581 388 581 336 L581 325 Q581 255 528 234 Q556 223 568.5 199 Q581 175 581 142 L581 108 Q581 56 556.5 25.5 Q532 -5 481 -5 Q429 -5 404.5 25.5 Q380 56 380 108 L380 138 L428 138 L428 104 Q428 75 440.5 58 Q453 41 479 41 Q530 41 530 109 L530 143 Q530 208 475 208 L448 208 L448 254 L477 254 Q502 254 516.5 270 Q531 286 530 315 L530 335 Q530 403 479 403 Q453 403 440.5 386 Q428 369 428 340 L428 317 L380 317 L380 336 Q380 388 404.5 418.5 Q429 449 481 449 Z " />
<glyph glyph-name="onequarter" unicode="&#xbc;" horiz-adv-x="577" d="M118 623 Q93 608 57 605 L57 642 Q93 643 108.5 660 Q124 677 133 700 L168 700 L168 256 L118 256 L118 623 Z M183 0 L136 0 L412 700 L459 700 L183 0 Z M516 0 L466 0 L466 88 L323 88 L323 135 L460 444 L516 444 L516 135 L550 135 L550 88 L516 88 L516 0 Z M466 135 L466 347 L369 135 L466 135 Z " />
<glyph glyph-name="threequarters" unicode="&#xbe;" horiz-adv-x="602" d="M138 705 Q189 705 213.5 674.5 Q238 644 238 592 L238 581 Q238 511 186 490 Q214 479 226 455 Q238 431 238 398 L238 364 Q238 312 213.5 281.5 Q189 251 138 251 Q86 251 61.5 281.5 Q37 312 37 364 L37 394 L85 394 L85 360 Q85 331 97.5 314 Q110 297 136 297 Q188 297 188 365 L188 399 Q188 464 133 464 L106 464 L106 510 L135 510 Q159 510 173.5 526 Q188 542 188 571 L188 591 Q188 659 136 659 Q110 659 97.5 642 Q85 625 85 596 L85 573 L37 573 L37 592 Q37 644 61.5 674.5 Q86 705 138 705 Z M444 700 L491 700 L215 0 L168 0 L444 700 Z M491 88 L348 88 L348 135 L485 444 L541 444 L541 135 L575 135 L575 88 L541 88 L541 0 L491 0 L491 88 Z M394 135 L491 135 L491 347 L394 135 Z " />
<glyph glyph-name="oneeighth" unicode="&#x215b;" horiz-adv-x="601" d="M118 623 Q93 608 57 605 L57 642 Q93 643 108.5 660 Q124 677 133 700 L168 700 L168 256 L118 256 L118 623 Z M116 0 L392 700 L439 700 L163 0 L116 0 Z M462 449 Q513 449 540 419.5 Q567 390 567 339 L567 324 Q567 292 555.5 268 Q544 244 519 233 Q545 221 556 196 Q567 171 567 139 L567 106 Q567 55 540.5 25 Q514 -5 462 -5 Q409 -5 382.5 25 Q356 55 356 106 L356 139 Q356 171 367.5 196 Q379 221 405 233 Q379 244 367.5 268 Q356 292 356 324 L356 339 Q356 390 383 419.5 Q410 449 462 449 Z M462 403 Q436 403 421.5 387.5 Q407 372 407 337 L407 316 Q407 254 462 254 Q488 254 502.5 269 Q517 284 517 316 L517 337 Q517 372 502.5 387.5 Q488 403 462 403 Z M462 208 Q407 208 407 145 L407 107 Q407 41 462 41 Q517 41 517 107 L517 145 Q517 208 462 208 Z " />
<glyph glyph-name="threeeighths" unicode="&#x215c;" horiz-adv-x="626" d="M138 705 Q189 705 213.5 674.5 Q238 644 238 592 L238 581 Q238 511 186 490 Q214 479 226 455 Q238 431 238 398 L238 364 Q238 312 213.5 281.5 Q189 251 138 251 Q86 251 61.5 281.5 Q37 312 37 364 L37 394 L85 394 L85 360 Q85 331 97.5 314 Q110 297 136 297 Q188 297 188 365 L188 399 Q188 464 133 464 L106 464 L106 510 L135 510 Q159 510 173.5 526 Q188 542 188 571 L188 591 Q188 659 136 659 Q110 659 97.5 642 Q85 625 85 596 L85 573 L37 573 L37 592 Q37 644 61.5 674.5 Q86 705 138 705 Z M473 700 L197 0 L150 0 L426 700 L473 700 Z M487 449 Q539 449 565.5 419.5 Q592 390 592 339 L592 324 Q592 292 581 268 Q570 244 544 233 Q570 221 581 196 Q592 171 592 139 L592 106 Q592 55 565.5 25 Q539 -5 487 -5 Q435 -5 408.5 25 Q382 55 382 106 L382 139 Q382 171 393 196 Q404 221 430 233 Q404 244 393 268 Q382 292 382 324 L382 339 Q382 390 408.5 419.5 Q435 449 487 449 Z M487 403 Q461 403 446.5 387.5 Q432 372 432 337 L432 316 Q432 254 487 254 Q513 254 527.5 269 Q542 284 542 316 L542 337 Q542 372 527.5 387.5 Q513 403 487 403 Z M487 208 Q432 208 432 145 L432 107 Q432 41 487 41 Q542 41 542 107 L542 145 Q542 208 487 208 Z " />
<glyph glyph-name="fiveeighths" unicode="&#x215d;" horiz-adv-x="626" d="M425 700 L472 700 L196 0 L149 0 L425 700 Z M91 520 Q112 555 157 555 Q199 555 219 526 Q239 497 239 449 L239 362 Q239 311 214.5 280 Q190 249 138 249 Q87 249 62.5 280 Q38 311 38 362 L38 392 L86 392 L86 359 Q86 329 98.5 312.5 Q111 296 137 296 Q163 296 175.5 312.5 Q188 329 188 359 L188 445 Q188 474 175.5 491 Q163 508 137 508 Q118 508 104 496.5 Q90 485 88 461 L88 451 L40 451 L53 699 L228 699 L228 653 L97 653 L91 520 Z M486 449 Q538 449 565 419.5 Q592 390 592 339 L592 324 Q592 292 580.5 268 Q569 244 543 233 Q569 221 580.5 196 Q592 171 592 139 L592 106 Q592 55 565.5 25 Q539 -5 486 -5 Q434 -5 407.5 25 Q381 55 381 106 L381 139 Q381 171 392 196 Q403 221 429 233 Q404 244 392.5 268 Q381 292 381 324 L381 339 Q381 390 408 419.5 Q435 449 486 449 Z M486 403 Q460 403 445.5 387.5 Q431 372 431 337 L431 316 Q431 254 486 254 Q512 254 526.5 269 Q541 284 541 316 L541 337 Q541 372 526.5 387.5 Q512 403 486 403 Z M486 208 Q431 208 431 145 L431 107 Q431 41 486 41 Q541 41 541 107 L541 145 Q541 208 486 208 Z " />
<glyph glyph-name="seveneighths" unicode="&#x215e;" horiz-adv-x="594" d="M187 654 L37 654 L37 700 L239 700 L239 656 L124 256 L74 256 L187 654 Z M144 0 L97 0 L373 700 L420 700 L144 0 Z M454 449 Q506 449 533 419.5 Q560 390 560 339 L560 324 Q560 292 548.5 268 Q537 244 511 233 Q537 221 548.5 196 Q560 171 560 139 L560 106 Q560 55 533.5 25 Q507 -5 454 -5 Q402 -5 375.5 25 Q349 55 349 106 L349 139 Q349 171 360 196 Q371 221 397 233 Q371 244 360 268 Q349 292 349 324 L349 339 Q349 390 375.5 419.5 Q402 449 454 449 Z M454 403 Q428 403 413.5 387.5 Q399 372 399 337 L399 316 Q399 254 454 254 Q480 254 494.5 269 Q509 284 509 316 L509 337 Q509 372 494.5 387.5 Q480 403 454 403 Z M454 208 Q399 208 399 145 L399 107 Q399 41 454 41 Q509 41 509 107 L509 145 Q509 208 454 208 Z " />
<glyph glyph-name="zeroinferior" unicode="&#x2080;" horiz-adv-x="277" d="M36 271 Q36 323 61 353.5 Q86 384 138 384 Q190 384 215.5 353.5 Q241 323 241 271 L241 43 Q241 -9 215.5 -39.5 Q190 -70 138 -70 Q86 -70 61 -39.5 Q36 -9 36 43 L36 271 Z M86 39 Q86 10 98.5 -7 Q111 -24 138 -24 Q165 -24 177.5 -7 Q190 10 190 39 L190 275 Q190 304 177.5 321 Q165 338 138 338 Q111 338 98.5 321 Q86 304 86 275 L86 39 Z " />
<glyph glyph-name="oneinferior" unicode="&#x2081;" horiz-adv-x="189" d="M91 302 Q66 287 30 284 L30 321 Q66 322 81.5 339 Q97 356 106 379 L141 379 L141 -65 L91 -65 L91 302 Z " />
<glyph glyph-name="twoinferior" unicode="&#x2082;" horiz-adv-x="275" d="M142 385 Q194 385 218 354 Q242 323 242 272 Q242 238 230.5 211 Q219 184 202 160.5 Q185 137 165.5 116.5 Q146 96 129 75.5 Q112 55 101 33 Q90 11 91 -15 L91 -19 L237 -19 L237 -65 L41 -65 L41 -27 Q41 9 52 36 Q63 63 80 85.5 Q97 108 116.5 128 Q136 148 153 169.5 Q170 191 181 215 Q192 239 192 271 Q192 339 140 339 Q114 339 101.5 321.5 Q89 304 89 274 L89 236 L41 236 L41 271 Q41 322 65 353.5 Q89 385 142 385 Z " />
<glyph glyph-name="threeinferior" unicode="&#x2083;" horiz-adv-x="275" d="M138 384 Q189 384 213.5 353.5 Q238 323 238 271 L238 260 Q238 190 186 169 Q213 158 225.5 134 Q238 110 238 77 L238 43 Q238 -9 213.5 -39.5 Q189 -70 138 -70 Q86 -70 61.5 -39.5 Q37 -9 37 43 L37 73 L85 73 L85 39 Q85 10 97.5 -7 Q110 -24 136 -24 Q188 -24 188 44 L188 78 Q188 143 133 143 L106 143 L106 189 L135 189 Q159 189 173.5 205 Q188 221 188 250 L188 270 Q188 338 136 338 Q110 338 97.5 321 Q85 304 85 275 L85 252 L37 252 L37 271 Q37 323 61.5 353.5 Q86 384 138 384 Z " />
<glyph glyph-name="fourinferior" unicode="&#x2084;" horiz-adv-x="283" d="M222 22 L222 -67 L172 -67 L172 22 L29 22 L29 68 L167 377 L222 377 L222 68 L257 68 L257 22 L222 22 Z M75 68 L172 68 L172 280 L75 68 Z " />
<glyph glyph-name="fiveinferior" unicode="&#x2085;" horiz-adv-x="275" d="M86 40 Q86 10 98.5 -6.5 Q111 -23 137 -23 Q163 -23 175.5 -6.5 Q188 10 188 40 L188 126 Q188 155 175.5 172 Q163 189 137 189 Q118 189 104 177.5 Q90 166 88 142 L88 132 L40 132 L53 380 L228 380 L228 334 L97 334 L91 200 Q112 235 157 235 Q199 235 219 206.5 Q239 178 239 130 L239 42 Q239 -9 214.5 -39.5 Q190 -70 138 -70 Q87 -70 62.5 -39.5 Q38 -9 38 42 L38 73 L86 73 L86 40 Z " />
<glyph glyph-name="sixinferior" unicode="&#x2086;" horiz-adv-x="277" d="M140 384 Q192 384 216.5 353.5 Q241 323 241 272 L241 264 L193 264 L193 275 Q193 305 180.5 321.5 Q168 338 142 338 Q113 338 100.5 320.5 Q88 303 88 267 L88 171 Q108 216 159 216 Q202 216 222 187 Q242 158 242 110 L242 43 Q242 -8 217 -39 Q192 -70 140 -70 Q88 -70 62.5 -39 Q37 -8 37 43 L37 269 Q37 322 61.5 353 Q86 384 140 384 Z M140 170 Q113 170 100.5 153 Q88 136 88 106 L88 39 Q88 9 100.5 -7.5 Q113 -24 140 -24 Q166 -24 179 -7.5 Q192 9 192 39 L192 106 Q192 136 179 153 Q166 170 140 170 Z " />
<glyph glyph-name="seveninferior" unicode="&#x2087;" horiz-adv-x="275" d="M187 335 L37 335 L37 381 L239 381 L239 337 L124 -63 L74 -63 L187 335 Z " />
<glyph glyph-name="eightinferior" unicode="&#x2088;" horiz-adv-x="279" d="M139 384 Q191 384 218 354.5 Q245 325 245 274 L245 259 Q245 227 233.5 203 Q222 179 196 168 Q222 156 233.5 131 Q245 106 245 74 L245 41 Q245 -10 218.5 -40 Q192 -70 139 -70 Q87 -70 60.5 -40 Q34 -10 34 41 L34 74 Q34 106 45 131 Q56 156 82 168 Q57 179 45.5 203 Q34 227 34 259 L34 274 Q34 325 61 354.5 Q88 384 139 384 Z M139 338 Q113 338 98.5 322.5 Q84 307 84 272 L84 251 Q84 189 139 189 Q165 189 179.5 204 Q194 219 194 251 L194 272 Q194 307 179.5 322.5 Q165 338 139 338 Z M139 143 Q84 143 84 80 L84 42 Q84 -24 139 -24 Q194 -24 194 42 L194 80 Q194 143 139 143 Z " />
<glyph glyph-name="nineinferior" unicode="&#x2089;" horiz-adv-x="277" d="M137 384 Q189 384 214 353 Q239 322 239 271 L239 45 Q239 -8 214.5 -39 Q190 -70 136 -70 Q85 -70 60 -39.5 Q35 -9 35 42 L35 50 L83 50 L83 39 Q83 9 96 -7.5 Q109 -24 135 -24 Q189 -24 189 47 L189 143 Q169 98 117 98 Q75 98 55 127 Q35 156 35 204 L35 271 Q35 322 60 353 Q85 384 137 384 Z M137 338 Q111 338 98 321.5 Q85 305 85 275 L85 208 Q85 178 98 161 Q111 144 137 144 Q163 144 176 161 Q189 178 189 208 L189 275 Q189 305 176 321.5 Q163 338 137 338 Z " />
<glyph glyph-name="zerosuperior" unicode="&#x2070;" horiz-adv-x="277" d="M36 687 Q36 739 61 769.5 Q86 800 138 800 Q190 800 215.5 769.5 Q241 739 241 687 L241 459 Q241 407 215.5 376.5 Q190 346 138 346 Q86 346 61 376.5 Q36 407 36 459 L36 687 Z M86 455 Q86 426 98.5 409 Q111 392 138 392 Q165 392 177.5 409 Q190 426 190 455 L190 691 Q190 720 177.5 737 Q165 754 138 754 Q111 754 98.5 737 Q86 720 86 691 L86 455 Z " />
<glyph glyph-name="onesuperior" unicode="&#xb9;" horiz-adv-x="189" d="M30 737 Q66 738 81.5 755 Q97 772 106 795 L141 795 L141 351 L91 351 L91 718 Q66 703 30 700 L30 737 Z " />
<glyph glyph-name="twosuperior" unicode="&#xb2;" horiz-adv-x="275" d="M142 801 Q194 801 218 770 Q242 739 242 688 Q242 654 231 627 Q220 600 203.5 577 Q187 554 167.5 534 Q148 514 131 493.5 Q114 473 102.5 451 Q91 429 91 403 L91 397 L237 397 L237 351 L41 351 L41 389 Q41 425 52 452 Q63 479 80 501.5 Q97 524 116.5 544 Q136 564 153 585.5 Q170 607 181 631 Q192 655 192 687 Q192 755 140 755 Q114 755 101.5 737.5 Q89 720 89 690 L89 652 L41 652 L41 687 Q41 738 65 769.5 Q89 801 142 801 Z " />
<glyph glyph-name="threesuperior" unicode="&#xb3;" horiz-adv-x="275" d="M138 800 Q189 800 213.5 769.5 Q238 739 238 687 L238 676 Q238 606 186 585 Q214 574 226 550 Q238 526 238 493 L238 459 Q238 407 213.5 376.5 Q189 346 138 346 Q86 346 61.5 376.5 Q37 407 37 459 L37 489 L85 489 L85 455 Q85 426 97.5 409 Q110 392 136 392 Q188 392 188 460 L188 494 Q188 559 133 559 L106 559 L106 605 L135 605 Q159 605 173.5 621 Q188 637 188 666 L188 686 Q188 754 136 754 Q110 754 97.5 737 Q85 720 85 691 L85 668 L37 668 L37 687 Q37 739 61.5 769.5 Q86 800 138 800 Z " />
<glyph glyph-name="foursuperior" unicode="&#x2074;" horiz-adv-x="283" d="M222 439 L222 351 L172 351 L172 439 L29 439 L29 486 L167 795 L222 795 L222 486 L257 486 L257 439 L222 439 Z M75 486 L172 486 L172 698 L75 486 Z " />
<glyph glyph-name="fivesuperior" unicode="&#x2075;" horiz-adv-x="275" d="M86 454 Q86 424 98.5 407.5 Q111 391 137 391 Q163 391 175.5 407.5 Q188 424 188 454 L188 540 Q188 569 175.5 586 Q163 603 137 603 Q118 603 104 591.5 Q90 580 88 556 L88 546 L40 546 L53 794 L228 794 L228 748 L97 748 L91 615 Q112 650 157 650 Q199 650 219 621 Q239 592 239 544 L239 457 Q239 406 214.5 375 Q190 344 138 344 Q87 344 62.5 375 Q38 406 38 457 L38 487 L86 487 L86 454 Z " />
<glyph glyph-name="sixsuperior" unicode="&#x2076;" horiz-adv-x="277" d="M140 800 Q192 800 216.5 769.5 Q241 739 241 688 L241 680 L193 680 L193 691 Q193 721 180.5 737.5 Q168 754 142 754 Q113 754 100.5 736.5 Q88 719 88 683 L88 587 Q108 632 159 632 Q202 632 222 603 Q242 574 242 526 L242 459 Q242 408 217 377 Q192 346 140 346 Q88 346 62.5 377 Q37 408 37 459 L37 685 Q37 738 61.5 769 Q86 800 140 800 Z M140 586 Q113 586 100.5 569 Q88 552 88 522 L88 455 Q88 425 100.5 408.5 Q113 392 140 392 Q166 392 179 408.5 Q192 425 192 455 L192 522 Q192 552 179 569 Q166 586 140 586 Z " />
<glyph glyph-name="sevensuperior" unicode="&#x2077;" horiz-adv-x="275" d="M187 749 L37 749 L37 795 L239 795 L239 751 L124 351 L74 351 L187 749 Z " />
<glyph glyph-name="eightsuperior" unicode="&#x2078;" horiz-adv-x="279" d="M139 800 Q191 800 218 770.5 Q245 741 245 690 L245 675 Q245 643 233.5 619 Q222 595 196 584 Q222 572 233.5 547 Q245 522 245 490 L245 457 Q245 406 218.5 376 Q192 346 139 346 Q87 346 60.5 376 Q34 406 34 457 L34 490 Q34 522 45 547 Q56 572 82 584 Q57 595 45.5 619 Q34 643 34 675 L34 690 Q34 741 61 770.5 Q88 800 139 800 Z M139 754 Q113 754 98.5 738.5 Q84 723 84 688 L84 667 Q84 605 139 605 Q165 605 179.5 620 Q194 635 194 667 L194 688 Q194 723 179.5 738.5 Q165 754 139 754 Z M139 559 Q84 559 84 496 L84 458 Q84 392 139 392 Q194 392 194 458 L194 496 Q194 559 139 559 Z " />
<glyph glyph-name="ninesuperior" unicode="&#x2079;" horiz-adv-x="277" d="M137 800 Q189 800 214 769 Q239 738 239 687 L239 461 Q239 408 214.5 377 Q190 346 136 346 Q85 346 60 376.5 Q35 407 35 458 L35 466 L83 466 L83 455 Q83 425 96 408.5 Q109 392 135 392 Q189 392 189 463 L189 559 Q169 514 117 514 Q75 514 55 543 Q35 572 35 620 L35 687 Q35 738 60 769 Q85 800 137 800 Z M137 754 Q111 754 98 737.5 Q85 721 85 691 L85 624 Q85 594 98 577 Q111 560 137 560 Q163 560 176 577 Q189 594 189 624 L189 691 Q189 721 176 737.5 Q163 754 137 754 Z " />
<glyph glyph-name="asterisk" unicode="&#x2a;" horiz-adv-x="395" d="M221 510 L327 393 L276 355 L197 494 L119 355 L68 393 L173 510 L18 542 L37 603 L183 539 L165 697 L229 697 L212 539 L358 602 L377 541 L221 510 Z " />
<glyph glyph-name="backslash" unicode="&#x5c;" horiz-adv-x="376" d="M84 700 L360 0 L292 0 L16 700 L84 700 Z " />
<glyph glyph-name="bullet" unicode="&#x2022;" horiz-adv-x="328" d="M164 455 Q186 455 205 446.5 Q224 438 238 424 Q252 410 260.5 391 Q269 372 269 350 Q269 328 260.5 309 Q252 290 238 275.5 Q224 261 205 253 Q186 245 164 245 Q142 245 123 253 Q104 261 89.5 275.5 Q75 290 67 309 Q59 328 59 350 Q59 372 67 391 Q75 410 89.5 424 Q104 438 123 446.5 Q142 455 164 455 Z " />
<glyph glyph-name="colon" unicode="&#x3a;" horiz-adv-x="155" d="M115 478 L115 381 L40 381 L40 478 L115 478 Z M115 97 L115 0 L40 0 L40 97 L115 97 Z " />
<glyph glyph-name="comma" unicode="&#x2c;" horiz-adv-x="160" d="M74 0 L45 0 L45 97 L120 97 L120 7 L81 -88 L49 -88 L74 0 Z " />
<glyph glyph-name="ellipsis" unicode="&#x2026;" horiz-adv-x="379" d="M115 97 L115 0 L40 0 L40 97 L115 97 Z M227 97 L227 0 L152 0 L152 97 L227 97 Z M339 97 L339 0 L264 0 L264 97 L339 97 Z " />
<glyph glyph-name="exclam" unicode="&#x21;" horiz-adv-x="158" d="M40 371 L40 700 L118 700 L118 371 L108 155 L50 155 L40 371 Z M116 97 L116 0 L41 0 L41 97 L116 97 Z " />
<glyph glyph-name="exclamdown" unicode="&#xa1;" horiz-adv-x="158" d="M116 700 L116 604 L41 604 L41 700 L116 700 Z M40 309 L50 545 L108 545 L118 309 L118 0 L40 0 L40 309 Z " />
<glyph glyph-name="numbersign" unicode="&#x23;" horiz-adv-x="412" d="M327 472 L306 267 L362 267 L356 211 L300 211 L278 0 L214 0 L236 211 L145 211 L122 0 L58 0 L81 211 L23 211 L29 267 L86 267 L108 472 L49 472 L55 528 L113 528 L131 700 L195 700 L177 528 L269 528 L287 700 L351 700 L333 528 L389 528 L383 472 L327 472 Z M263 472 L172 472 L150 267 L242 267 L263 472 Z " />
<glyph glyph-name="period" unicode="&#x2e;" horiz-adv-x="155" d="M115 97 L115 0 L40 0 L40 97 L115 97 Z " />
<glyph glyph-name="periodcentered" unicode="&#xb7;" horiz-adv-x="155" d="M115 403 L115 306 L40 306 L40 403 L115 403 Z " />
<glyph glyph-name="question" unicode="&#x3f;" horiz-adv-x="361" d="M182 707 Q263 707 300.5 659 Q338 611 338 530 Q338 488 327.5 456 Q317 424 302 397.5 Q287 371 268.5 348.5 Q250 326 235 303 Q220 280 209.5 253.5 Q199 227 199 194 Q199 176 204 156 L134 156 Q132 165 130.5 174.5 Q129 184 129 196 Q129 234 138.5 263 Q148 292 163 316 Q178 340 194.5 362 Q211 384 226 408.5 Q241 433 250.5 463 Q260 493 260 534 Q260 582 241.5 609.5 Q223 637 180 637 Q137 637 118.5 609 Q100 581 100 534 L100 472 L27 472 L27 529 Q27 569 36 601.5 Q45 634 64 657.5 Q83 681 112.5 694 Q142 707 182 707 Z M205 97 L205 0 L131 0 L131 97 L205 97 Z " />
<glyph glyph-name="questiondown" unicode="&#xbf;" horiz-adv-x="361" d="M231 700 L231 603 L156 603 L156 700 L231 700 Z M227 544 Q233 526 233 504 Q233 466 223 437 Q213 408 198.5 384 Q184 360 167 338 Q150 316 135 291.5 Q120 267 110.5 236.5 Q101 206 101 166 Q101 118 119.5 90.5 Q138 63 181 63 Q224 63 242.5 91 Q261 119 261 166 L261 228 L335 228 L335 171 Q335 91 297.5 42 Q260 -7 179 -7 Q98 -7 61 41 Q24 89 24 170 Q24 212 34 244 Q44 276 59.5 302.5 Q75 329 93 351.5 Q111 374 126.5 397 Q142 420 152 446 Q162 472 162 506 Q162 528 158 544 L227 544 Z " />
<glyph glyph-name="quotedbl" unicode="&#x22;" horiz-adv-x="265" d="M115 700 L104 511 L50 511 L40 700 L115 700 Z M225 700 L214 511 L160 511 L150 700 L225 700 Z " />
<glyph glyph-name="quotesingle" unicode="&#x27;" horiz-adv-x="151" d="M113 700 L102 511 L48 511 L38 700 L113 700 Z " />
<glyph glyph-name="semicolon" unicode="&#x3b;" horiz-adv-x="160" d="M120 478 L120 381 L45 381 L45 478 L120 478 Z M74 0 L45 0 L45 97 L120 97 L120 7 L81 -88 L49 -88 L74 0 Z " />
<glyph glyph-name="slash" unicode="&#x2f;" horiz-adv-x="376" d="M360 700 L84 0 L16 0 L292 700 L360 700 Z " />
<glyph glyph-name="underscore" unicode="&#x5f;" horiz-adv-x="507" d="M490 -10 L490 -67 L13 -67 L13 -10 L490 -10 Z " />
<glyph glyph-name="braceleft" unicode="&#x7b;" horiz-adv-x="257" d="M214 636 Q182 636 170.5 617.5 Q159 599 157 559 L151 446 Q150 430 147.5 415 Q145 400 138 387.5 Q131 375 118.5 365 Q106 355 86 350 Q106 345 118.5 335 Q131 325 138 312.5 Q145 300 147.5 285 Q150 270 151 254 L157 141 Q159 101 170.5 82.5 Q182 64 214 64 L233 64 L233 0 L187 0 Q139 0 115 28 Q91 56 87 107 L80 243 Q78 280 67.5 297 Q57 314 20 317 L20 383 Q57 386 67.5 403 Q78 420 80 457 L87 593 Q91 644 115 672 Q139 700 187 700 L233 700 L233 636 L214 636 Z " />
<glyph glyph-name="braceright" unicode="&#x7d;" horiz-adv-x="257" d="M70 700 Q117 700 141.5 672 Q166 644 169 593 L177 457 Q178 439 180.5 425.5 Q183 412 189 403 Q195 394 206.5 389 Q218 384 236 383 L236 317 Q218 315 206.5 310.5 Q195 306 189 297 Q183 288 180.5 274.5 Q178 261 177 243 L169 107 Q166 56 141.5 28 Q117 0 70 0 L24 0 L24 64 L43 64 Q75 64 86.5 82.5 Q98 101 100 141 L106 254 Q107 270 109.5 285 Q112 300 119 312.5 Q126 325 138.5 335 Q151 345 171 350 Q151 355 138.5 365 Q126 375 119 387.5 Q112 400 109.5 415 Q107 430 106 446 L100 559 Q98 599 86.5 617.5 Q75 636 43 636 L24 636 L24 700 L70 700 Z " />
<glyph glyph-name="bracketleft" unicode="&#x5b;" horiz-adv-x="242" d="M214 64 L214 0 L45 0 L45 700 L214 700 L214 636 L122 636 L122 64 L214 64 Z " />
<glyph glyph-name="bracketright" unicode="&#x5d;" horiz-adv-x="242" d="M119 64 L119 636 L28 636 L28 700 L197 700 L197 0 L28 0 L28 64 L119 64 Z " />
<glyph glyph-name="parenleft" unicode="&#x28;" horiz-adv-x="241" d="M194 636 Q153 636 137.5 614 Q122 592 122 546 L122 154 Q122 108 137 86 Q152 64 194 64 L217 64 L217 0 L189 0 Q109 0 77 37.5 Q45 75 45 154 L45 546 Q45 625 77 662.5 Q109 700 189 700 L217 700 L217 636 L194 636 Z " />
<glyph glyph-name="parenright" unicode="&#x29;" horiz-adv-x="241" d="M52 700 Q132 700 164 662.5 Q196 625 196 546 L196 154 Q196 75 164 37.5 Q132 0 52 0 L24 0 L24 64 L47 64 Q89 64 104 86 Q119 108 119 154 L119 546 Q119 592 103.5 614 Q88 636 47 636 L24 636 L24 700 L52 700 Z " />
<glyph glyph-name="emdash" unicode="&#x2014;" horiz-adv-x="833" d="M13 382 L820 382 L820 318 L13 318 L13 382 Z " />
<glyph glyph-name="endash" unicode="&#x2013;" horiz-adv-x="458" d="M13 382 L445 382 L445 318 L13 318 L13 382 Z " />
<glyph glyph-name="figuredash" unicode="&#x2012;" horiz-adv-x="425" d="M13 382 L412 382 L412 318 L13 318 L13 382 Z " />
<glyph glyph-name="hyphen" unicode="&#x2d;" horiz-adv-x="265" d="M37 385 L228 385 L228 315 L37 315 L37 385 Z " />
<glyph glyph-name="uni00AD" unicode="&#xad;" horiz-adv-x="265" d="M37 385 L228 385 L228 315 L37 315 L37 385 Z " />
<glyph glyph-name="guillemotleft" unicode="&#xab;" horiz-adv-x="320" d="M24 351 L87 602 L158 602 L95 351 L158 90 L87 90 L24 351 Z M162 351 L226 602 L296 602 L233 351 L296 90 L226 90 L162 351 Z " />
<glyph glyph-name="guillemotright" unicode="&#xbb;" horiz-adv-x="320" d="M87 351 L24 602 L94 602 L158 351 L94 90 L24 90 L87 351 Z M225 351 L162 602 L232 602 L296 351 L232 90 L162 90 L225 351 Z " />
<glyph glyph-name="guilsinglleft" unicode="&#x2039;" horiz-adv-x="183" d="M24 351 L86 608 L160 608 L98 351 L160 83 L86 83 L24 351 Z " />
<glyph glyph-name="guilsinglright" unicode="&#x203a;" horiz-adv-x="183" d="M85 351 L24 608 L97 608 L160 351 L97 84 L24 84 L85 351 Z " />
<glyph glyph-name="quotedblbase" unicode="&#x201e;" horiz-adv-x="274" d="M81 -88 L49 -88 L74 0 L45 0 L45 97 L120 97 L120 7 L81 -88 Z M196 -88 L163 -88 L188 0 L159 0 L159 97 L234 97 L234 7 L196 -88 Z " />
<glyph glyph-name="quotedblleft" unicode="&#x201c;" horiz-adv-x="271" d="M78 700 L111 700 L86 612 L115 612 L115 515 L40 515 L40 605 L78 700 Z M190 700 L222 700 L198 612 L226 612 L226 515 L152 515 L152 605 L190 700 Z " />
<glyph glyph-name="quotedblright" unicode="&#x201d;" horiz-adv-x="271" d="M76 515 L44 515 L68 603 L40 603 L40 700 L114 700 L114 610 L76 515 Z M188 515 L155 515 L180 603 L151 603 L151 700 L226 700 L226 610 L188 515 Z " />
<glyph glyph-name="quoteleft" unicode="&#x2018;" horiz-adv-x="160" d="M78 700 L111 700 L86 612 L115 612 L115 515 L40 515 L40 605 L78 700 Z " />
<glyph glyph-name="quoteright" unicode="&#x2019;" horiz-adv-x="160" d="M81 515 L49 515 L74 603 L45 603 L45 700 L120 700 L120 611 L81 515 Z " />
<glyph glyph-name="quotesinglbase" unicode="&#x201a;" horiz-adv-x="160" d="M81 -88 L49 -88 L74 0 L45 0 L45 97 L120 97 L120 7 L81 -88 Z " />
<glyph glyph-name="Abreve" unicode="&#x102;" horiz-adv-x="422" d="M314 834 Q314 787 286 760 Q258 733 209 733 Q160 733 133.5 760 Q107 787 106 834 L153 834 Q155 805 170.5 793.5 Q186 782 209 782 Q233 782 249 793.5 Q265 805 267 834 L314 834 Z M119 141 L92 0 L20 0 L154 700 L267 700 L401 0 L323 0 L296 141 L119 141 Z M129 208 L285 208 L206 612 L129 208 Z " />
<glyph glyph-name="uni00A0" unicode="&#xa0;" horiz-adv-x="155" d="" />
<glyph glyph-name="Euro" unicode="&#x20ac;" horiz-adv-x="397" d="M57 531 Q57 571 66 603.5 Q75 636 94 659 Q113 682 142 694.5 Q171 707 211 707 Q251 707 280 694.5 Q309 682 328 659 Q347 636 356 603.5 Q365 571 365 531 L365 486 L292 486 L292 535 Q292 582 273.5 609 Q255 636 213 636 Q171 636 152.5 609 Q134 582 134 535 L134 427 L308 427 L308 387 L134 387 L134 318 L308 318 L308 277 L134 277 L134 165 Q134 118 152.5 91 Q171 64 213 64 Q255 64 273.5 91 Q292 118 292 165 L292 219 L365 219 L365 169 Q365 90 328 41.5 Q291 -7 211 -7 Q131 -7 94 41.5 Q57 90 57 169 L57 277 L13 277 L13 318 L57 318 L57 387 L13 387 L13 427 L57 427 L57 531 Z " />
<glyph glyph-name="cent" unicode="&#xa2;" horiz-adv-x="387" d="M225 661 Q291 653 321.5 607.5 Q352 562 352 490 L352 450 L279 450 L279 494 Q279 542 259 567.5 Q239 593 197 593 Q154 593 134.5 566.5 Q115 540 115 492 L115 208 Q115 161 134.5 134.5 Q154 108 197 108 Q239 108 259 134 Q279 160 279 208 L279 275 L352 275 L352 213 Q352 141 321.5 94.5 Q291 48 225 40 L225 -10 L161 -10 L161 40 Q97 49 67 95.5 Q37 142 37 213 L37 487 Q37 558 67 604.5 Q97 651 161 660 L161 710 L225 710 L225 661 Z " />
<glyph glyph-name="currency" unicode="&#xa4;" horiz-adv-x="372" d="M286 418 Q308 388 308 350 Q308 311 286 281 L338 230 L306 199 L255 249 Q241 239 223 233.5 Q205 228 186 228 Q149 228 117 249 L66 199 L35 230 L86 281 Q64 311 64 350 Q64 390 86 418 L35 470 L66 501 L118 450 Q148 472 186 472 Q224 472 255 450 L306 501 L338 470 L286 418 Z M186 424 Q155 424 133.5 402.5 Q112 381 112 350 Q112 319 133.5 297.5 Q155 276 186 276 Q217 276 239 297.5 Q261 319 261 350 Q261 381 239 402.5 Q217 424 186 424 Z " />
<glyph glyph-name="dollar" unicode="&#x24;" horiz-adv-x="387" d="M226 697 Q290 688 320 642 Q350 596 350 525 L350 506 L277 506 L277 530 Q277 577 257.5 603.5 Q238 630 196 630 Q154 630 135 603.5 Q116 577 116 530 Q116 491 133.5 463 Q151 435 177 412 Q203 389 233.5 367.5 Q264 346 290 319.5 Q316 293 333.5 258.5 Q351 224 351 175 Q351 104 320.5 57.5 Q290 11 226 2 L226 -51 L162 -51 L162 2 Q96 11 66 57 Q36 103 36 175 L36 218 L109 218 L109 170 Q109 122 129 96.5 Q149 71 191 71 Q234 71 253.5 96.5 Q273 122 273 170 Q273 209 255.5 237 Q238 265 212 288 Q186 311 156 332.5 Q126 354 100 380.5 Q74 407 56.5 441.5 Q39 476 39 525 Q39 597 69 642 Q99 687 162 697 L162 753 L226 753 L226 697 Z " />
<glyph glyph-name="sterling" unicode="&#xa3;" horiz-adv-x="391" d="M200 707 Q240 707 269.5 694 Q299 681 318 657.5 Q337 634 346 601.5 Q355 569 355 529 L355 473 L281 473 L281 533 Q281 581 263 608.5 Q245 636 202 636 Q159 636 140.5 609 Q122 582 122 534 Q122 488 130.5 455 Q139 422 150.5 395 Q162 368 174.5 342.5 Q187 317 195 286 L329 286 L329 225 L200 225 Q201 184 185 147.5 Q169 111 131 71 L352 71 L352 0 L33 0 L33 68 Q53 76 71.5 90.5 Q90 105 103.5 125 Q117 145 124.5 170 Q132 195 130 225 L47 225 L47 286 L120 286 Q111 315 98 340 Q85 365 73 392 Q61 419 52.5 452 Q44 485 44 530 Q44 611 81.5 659 Q119 707 200 707 Z " />
<glyph glyph-name="uni20B9" unicode="&#x20b9;" horiz-adv-x="388" d="M245 639 Q271 623 282.5 595.5 Q294 568 296 537 L357 537 L357 476 L296 476 Q291 406 247 364.5 Q203 323 131 323 L114 323 L356 0 L272 0 L31 323 L31 383 L111 383 Q167 383 193 406.5 Q219 430 220 476 L32 476 L32 537 L220 537 Q220 587 192.5 613 Q165 639 111 639 L32 639 L32 700 L357 700 L357 639 L245 639 Z " />
<glyph glyph-name="yen" unicode="&#xa5;" horiz-adv-x="414" d="M246 232 L246 173 L346 173 L346 133 L246 133 L246 0 L168 0 L168 133 L68 133 L68 173 L168 173 L168 232 L68 232 L68 273 L162 273 L18 700 L99 700 L210 358 L322 700 L396 700 L251 273 L346 273 L346 232 L246 232 Z " />
<glyph glyph-name="approxequal" unicode="&#x2248;" horiz-adv-x="396" d="M125 492 Q146 492 166 482 Q186 472 204.5 460.5 Q223 449 241 439.5 Q259 430 276 430 Q295 431 308 444.5 Q321 458 340 486 L378 448 Q350 405 326.5 388.5 Q303 372 275 371 Q254 371 235 380.5 Q216 390 197.5 401.5 Q179 413 161 422.5 Q143 432 125 432 Q105 432 90.5 419 Q76 406 56 377 L18 412 Q47 456 72 473.5 Q97 491 125 492 Z M125 328 Q146 328 166 318.5 Q186 309 204.5 297.5 Q223 286 241 276.5 Q259 267 276 267 Q295 267 308 281 Q321 295 340 322 L378 285 Q350 242 326.5 225 Q303 208 275 208 Q254 208 235 217.5 Q216 227 197.5 238.5 Q179 250 161 259.5 Q143 269 125 269 Q105 269 90.5 255.5 Q76 242 56 214 L18 249 Q47 293 72 310.5 Q97 328 125 328 Z " />
<glyph glyph-name="asciitilde" unicode="&#x7e;" horiz-adv-x="396" d="M125 410 Q146 410 166 400.5 Q186 391 204.5 379.5 Q223 368 240.5 358.5 Q258 349 275 349 Q294 349 307.5 362.5 Q321 376 340 404 L378 366 Q350 323 326.5 306.5 Q303 290 275 289 Q254 289 234.5 298.5 Q215 308 196.5 319.5 Q178 331 160.5 341 Q143 351 125 351 Q105 351 90.5 337.5 Q76 324 56 295 L18 331 Q47 375 71.5 392.5 Q96 410 125 410 Z " />
<glyph glyph-name="divide" unicode="&#xf7;" horiz-adv-x="350" d="M212 527 L212 430 L137 430 L137 527 L212 527 Z M320 378 L320 322 L30 322 L30 378 L320 378 Z M212 270 L212 173 L137 173 L137 270 L212 270 Z " />
<glyph glyph-name="equal" unicode="&#x3d;" horiz-adv-x="350" d="M313 456 L313 400 L37 400 L37 456 L313 456 Z M313 314 L313 258 L37 258 L37 314 L313 314 Z " />
<glyph glyph-name="greater" unicode="&#x3e;" horiz-adv-x="383" d="M40 252 L277 350 L40 448 L40 505 L350 378 L350 322 L40 195 L40 252 Z " />
<glyph glyph-name="infinity" unicode="&#x221e;" horiz-adv-x="583" d="M418 483 Q480 483 515 451.5 Q550 420 550 358 Q550 296 515 265 Q480 234 418 234 L405 234 Q365 234 337 247 Q309 260 296 289 Q282 258 252.5 246 Q223 234 184 234 L172 234 Q110 234 74.5 265 Q39 296 39 358 Q39 420 74.5 451.5 Q110 483 172 483 L184 483 Q223 483 252.5 470.5 Q282 458 296 427 Q309 457 337 470 Q365 483 405 483 L418 483 Z M173 429 Q130 429 112 409.5 Q94 390 94 358 Q94 326 112 307.5 Q130 289 173 288 L191 288 Q231 288 250 306.5 Q269 325 269 358 Q269 391 250 410 Q231 429 191 429 L173 429 Z M397 429 Q353 429 336.5 409.5 Q320 390 320 358 Q320 326 336.5 307.5 Q353 289 397 288 L415 288 Q455 288 475 306.5 Q495 325 495 358 Q495 391 475 410 Q455 429 415 429 L397 429 Z " />
<glyph glyph-name="less" unicode="&#x3c;" horiz-adv-x="383" d="M343 195 L33 322 L33 378 L343 505 L343 448 L106 350 L343 252 L343 195 Z " />
<glyph glyph-name="logicalnot" unicode="&#xac;" horiz-adv-x="388" d="M30 322 L30 378 L358 378 L358 187 L302 187 L302 322 L30 322 Z " />
<glyph glyph-name="minus" unicode="&#x2212;" horiz-adv-x="392" d="M362 378 L362 322 L30 322 L30 378 L362 378 Z " />
<glyph glyph-name="multiply" unicode="&#xd7;" horiz-adv-x="366" d="M289 206 L183 312 L77 206 L39 244 L144 350 L39 455 L77 493 L183 388 L289 493 L327 455 L221 350 L327 244 L289 206 Z " />
<glyph glyph-name="percent" unicode="&#x25;" horiz-adv-x="616" d="M136 704 Q187 704 211.5 673 Q236 642 236 591 L236 370 Q236 319 211.5 288 Q187 257 136 257 Q85 257 60.5 288 Q36 319 36 370 L36 591 Q36 642 60.5 673 Q85 704 136 704 Z M467 700 L191 0 L144 0 L420 700 L467 700 Z M136 658 Q109 658 97.5 640.5 Q86 623 86 594 L86 366 Q86 337 97.5 320 Q109 303 136 303 Q162 303 174 320 Q186 337 186 366 L186 594 Q186 623 174 640.5 Q162 658 136 658 Z M480 442 Q532 442 556 411.5 Q580 381 580 330 L580 110 Q580 59 556 28 Q532 -3 480 -3 Q429 -3 404.5 28 Q380 59 380 110 L380 330 Q380 381 404.5 411.5 Q429 442 480 442 Z M480 396 Q454 396 442 379 Q430 362 430 333 L430 106 Q430 77 442 59.5 Q454 42 480 42 Q506 42 518 59.5 Q530 77 530 106 L530 333 Q530 362 518 379 Q506 396 480 396 Z " />
<glyph glyph-name="perthousand" unicode="&#x2030;" horiz-adv-x="867" d="M136 704 Q187 704 211.5 673 Q236 642 236 591 L236 370 Q236 319 211.5 288 Q187 257 136 257 Q85 257 60.5 288 Q36 319 36 370 L36 591 Q36 642 60.5 673 Q85 704 136 704 Z M467 700 L191 0 L144 0 L420 700 L467 700 Z M136 658 Q109 658 97.5 640.5 Q86 623 86 594 L86 366 Q86 337 97.5 320 Q109 303 136 303 Q162 303 174 320 Q186 337 186 366 L186 594 Q186 623 174 640.5 Q162 658 136 658 Z M480 442 Q532 442 556 411.5 Q580 381 580 330 L580 110 Q580 59 556 28 Q532 -3 480 -3 Q429 -3 404.5 28 Q380 59 380 110 L380 330 Q380 381 404.5 411.5 Q429 442 480 442 Z M731 442 Q783 442 807 411.5 Q831 381 831 330 L831 110 Q831 59 807 28 Q783 -3 731 -3 Q680 -3 655.5 28 Q631 59 631 110 L631 330 Q631 381 655.5 411.5 Q680 442 731 442 Z M480 396 Q454 396 442 379 Q430 362 430 333 L430 106 Q430 77 442 59.5 Q454 42 480 42 Q506 42 518 59.5 Q530 77 530 106 L530 333 Q530 362 518 379 Q506 396 480 396 Z M731 396 Q705 396 693.5 379 Q682 362 682 333 L682 106 Q682 77 693.5 59.5 Q705 42 731 42 Q757 42 769 59.5 Q781 77 781 106 L781 333 Q781 362 769 379 Q757 396 731 396 Z " />
<glyph glyph-name="plus" unicode="&#x2b;" horiz-adv-x="392" d="M224 322 L224 181 L168 181 L168 322 L30 322 L30 378 L168 378 L168 517 L224 517 L224 378 L362 378 L362 322 L224 322 Z " />
<glyph glyph-name="plusminus" unicode="&#xb1;" horiz-adv-x="392" d="M168 237 L168 336 L37 336 L37 392 L168 392 L168 517 L224 517 L224 392 L355 392 L355 336 L224 336 L224 237 L355 237 L355 181 L37 181 L37 237 L168 237 Z " />
<glyph glyph-name="uni00B5" unicode="&#xb5;" horiz-adv-x="398" d="M286 72 Q272 36 245 14.5 Q218 -7 185 -7 Q159 -7 142 6 Q125 19 117 39 L117 -92 L39 -92 L39 500 L117 500 L117 166 Q117 118 136.5 91.5 Q156 65 198 65 Q240 65 259.5 91.5 Q279 118 279 166 L279 500 L357 500 L357 0 L286 0 L286 72 Z " />
<glyph glyph-name="ampersand" unicode="&#x26;" horiz-adv-x="408" d="M208 629 Q163 629 140.5 605 Q118 581 118 530 L118 495 Q118 450 139.5 426 Q161 402 199 400 L278 400 L278 478 L355 478 L355 400 L389 400 L389 330 L355 330 L355 89 Q355 63 357 41.5 Q359 20 370 0 L291 0 Q285 13 282 25.5 Q279 38 278 61 Q263 27 234.5 10 Q206 -7 168 -7 Q102 -7 71.5 36 Q41 79 41 154 L41 222 Q41 274 60.5 312.5 Q80 351 124 368 Q81 383 61 420.5 Q41 458 41 511 L41 527 Q41 611 81.5 655.5 Q122 700 206 700 L319 700 L319 629 L208 629 Z M205 330 Q118 327 118 224 L118 160 Q118 113 138 88.5 Q158 64 199 64 Q233 64 254.5 83.5 Q276 103 278 144 L278 330 L205 330 Z " />
<glyph glyph-name="asciicircum" unicode="&#x5e;" horiz-adv-x="403" d="M90 390 L27 390 L173 700 L230 700 L376 390 L313 390 L201 629 L90 390 Z " />
<glyph glyph-name="at" unicode="&#x40;" horiz-adv-x="689" d="M391 735 Q466 735 518.5 713 Q571 691 603 652.5 Q635 614 649.5 561.5 Q664 509 664 447 Q664 373 648.5 315 Q633 257 607.5 217 Q582 177 549 156 Q516 135 481 135 Q407 135 402 203 Q387 170 361.5 152 Q336 134 299 135 Q243 136 221.5 178.5 Q200 221 207 288 L218 388 Q225 457 255.5 496.5 Q286 536 342 534 Q376 534 397.5 517 Q419 500 428 468 L435 530 L503 530 L473 243 Q471 226 477 213 Q483 200 502 200 Q531 200 550.5 224.5 Q570 249 582 285.5 Q594 322 599 365 Q604 408 604 445 Q604 497 591.5 539.5 Q579 582 552.5 612 Q526 642 485.5 658 Q445 674 389 674 Q314 674 259 644.5 Q204 615 167.5 563 Q131 511 113.5 439.5 Q96 368 96 284 Q96 219 111 167.5 Q126 116 157 80.5 Q188 45 236 26 Q284 7 349 7 Q402 7 450 20 Q498 33 546 70 L540 1 Q494 -31 446 -42 Q398 -53 345 -53 Q262 -53 202.5 -28.5 Q143 -4 104.5 40.5 Q66 85 47.5 148 Q29 211 29 288 Q29 377 50.5 458 Q72 539 117 600.5 Q162 662 230 698.5 Q298 735 391 735 Z M362 466 Q327 467 308.5 444.5 Q290 422 285 381 L276 291 Q271 252 284.5 227 Q298 202 333 201 Q368 200 386.5 224.5 Q405 249 410 290 L420 386 Q424 421 409.5 443.5 Q395 466 362 466 Z " />
<glyph glyph-name="bar" unicode="&#x7c;" horiz-adv-x="373" d="M222 744 L222 -44 L158 -44 L158 744 L222 744 Z " />
<glyph glyph-name="brokenbar" unicode="&#xa6;" horiz-adv-x="374" d="M158 744 L222 744 L222 410 L158 410 L158 744 Z M158 290 L222 290 L222 -44 L158 -44 L158 290 Z " />
<glyph glyph-name="copyright" unicode="&#xa9;" horiz-adv-x="742" d="M371 704 Q445 704 508 677.5 Q571 651 617 603.5 Q663 556 689 491 Q715 426 715 350 Q715 273 689 208.5 Q663 144 617 96.5 Q571 49 508 22.5 Q445 -4 371 -4 Q297 -4 234 22.5 Q171 49 125 96.5 Q79 144 53 208.5 Q27 273 27 350 Q27 426 53 491 Q79 556 125 603.5 Q171 651 234 677.5 Q297 704 371 704 Z M371 654 Q308 654 254 631 Q200 608 161 567.5 Q122 527 100 471 Q78 415 78 350 Q78 285 100 229 Q122 173 161 132.5 Q200 92 254 69 Q308 46 371 46 Q434 46 488 69 Q542 92 581 132.5 Q620 173 642 229 Q664 285 664 350 Q664 415 642 471 Q620 527 581 567.5 Q542 608 488 631 Q434 654 371 654 Z M367 570 Q423 570 449.5 536.5 Q476 503 476 446 L476 416 L424 416 L424 450 Q424 482 410.5 500.5 Q397 519 368 519 Q339 519 325.5 500.5 Q312 482 312 450 L312 250 Q312 218 325.5 199.5 Q339 181 368 181 Q397 181 410.5 199.5 Q424 218 424 250 L424 299 L476 299 L476 253 Q476 197 449.5 163.5 Q423 130 367 130 Q310 130 284 163.5 Q258 197 258 253 L258 446 Q258 503 284 536.5 Q310 570 367 570 Z " />
<glyph glyph-name="dagger" unicode="&#x2020;" horiz-adv-x="394" d="M229 513 L365 513 L365 452 L229 452 L229 -65 L165 -65 L165 452 L30 452 L30 513 L165 513 L165 700 L229 700 L229 513 Z " />
<glyph glyph-name="daggerdbl" unicode="&#x2021;" horiz-adv-x="394" d="M229 513 L365 513 L365 452 L229 452 L229 184 L365 184 L365 123 L229 123 L229 -65 L165 -65 L165 123 L30 123 L30 184 L165 184 L165 452 L30 452 L30 513 L165 513 L165 700 L229 700 L229 513 Z " />
<glyph glyph-name="degree" unicode="&#xb0;" horiz-adv-x="219" d="M109 708 Q145 708 170.5 683 Q196 658 196 622 Q196 586 170.5 561 Q145 536 109 536 Q91 536 75.5 542.5 Q60 549 48.5 561 Q37 573 30 588.5 Q23 604 23 622 Q23 640 30 655.5 Q37 671 48.5 683 Q60 695 75.5 701.5 Q91 708 109 708 Z M109 671 Q89 671 74.5 657 Q60 643 60 622 Q60 602 74.5 587.5 Q89 573 109 573 Q129 573 144 587.5 Q159 602 159 622 Q159 643 144 657 Q129 671 109 671 Z " />
<glyph glyph-name="paragraph" unicode="&#xb6;" horiz-adv-x="396" d="M203 643 L203 -63 L146 -63 L147 277 Q81 279 50 324 Q19 369 19 445 L19 531 Q19 611 54 655.5 Q89 700 170 700 L350 700 L350 -63 L293 -63 L293 643 L203 643 Z " />
<glyph glyph-name="registered" unicode="&#xae;" horiz-adv-x="742" d="M371 704 Q445 704 508 677.5 Q571 651 617 603.5 Q663 556 689 491 Q715 426 715 350 Q715 273 689 208.5 Q663 144 617 96.5 Q571 49 508 22.5 Q445 -4 371 -4 Q297 -4 234 22.5 Q171 49 125 96.5 Q79 144 53 208.5 Q27 273 27 350 Q27 426 53 491 Q79 556 125 603.5 Q171 651 234 677.5 Q297 704 371 704 Z M371 654 Q308 654 254 631 Q200 608 161 567.5 Q122 527 100 471 Q78 415 78 350 Q78 285 100 229 Q122 173 161 132.5 Q200 92 254 69 Q308 46 371 46 Q434 46 488 69 Q542 92 581 132.5 Q620 173 642 229 Q664 285 664 350 Q664 415 642 471 Q620 527 581 567.5 Q542 608 488 631 Q434 654 371 654 Z M376 564 Q433 564 459 535.5 Q485 507 485 452 L485 442 Q485 403 471.5 377.5 Q458 352 427 341 Q459 330 472 304.5 Q485 279 485 241 L485 195 Q485 178 486.5 163.5 Q488 149 496 136 L439 136 Q434 147 432.5 158.5 Q431 170 431 195 L431 241 Q431 283 412 298 Q393 313 358 313 L321 313 L321 136 L267 136 L267 564 L376 564 Z M366 364 Q397 364 413.5 378 Q430 392 430 430 L430 446 Q430 479 417.5 496.5 Q405 514 373 514 L321 514 L321 364 L366 364 Z " />
<glyph glyph-name="section" unicode="&#xa7;" horiz-adv-x="387" d="M194 707 Q266 707 307 671 Q348 635 348 575 L348 548 L274 548 L274 565 Q274 600 252.5 621 Q231 642 196 642 Q162 642 138.5 624.5 Q115 607 115 571 Q114 546 131.5 529.5 Q149 513 175 499.5 Q201 486 231.5 473 Q262 460 288 440 Q314 420 331.5 391 Q349 362 349 318 Q349 275 326.5 242.5 Q304 210 266 191 Q283 182 298.5 170 Q314 158 325.5 142.5 Q337 127 343.5 107 Q350 87 350 62 Q349 3 306.5 -33.5 Q264 -70 194 -70 Q121 -70 79 -34.5 Q37 1 37 62 L37 103 L111 103 L111 72 Q111 35 134 15 Q157 -5 192 -5 Q224 -5 247.5 12.5 Q271 30 272 65 Q272 91 255 107.5 Q238 124 212 137 Q186 150 155.5 163.5 Q125 177 99 196 Q73 215 55.5 244 Q38 273 38 317 Q38 361 62.5 393.5 Q87 426 125 443 Q107 453 91 465 Q75 477 63 492.5 Q51 508 44 528 Q37 548 37 574 Q38 634 80 670.5 Q122 707 194 707 Z M191 412 Q159 407 135.5 381.5 Q112 356 112 320 Q112 300 119.5 285 Q127 270 139.5 258.5 Q152 247 168 238 Q184 229 201 222 Q233 230 254 255 Q275 280 275 316 Q275 353 250 374.5 Q225 396 191 412 Z " />
<glyph glyph-name="trademark" unicode="&#x2122;" horiz-adv-x="583" d="M94 344 L94 654 L12 654 L12 700 L225 700 L225 654 L144 654 L144 344 L94 344 Z M436 346 L388 346 L315 623 L315 344 L270 344 L270 700 L340 700 L413 422 L483 700 L553 700 L553 344 L505 344 L505 625 L436 346 Z " />
<glyph glyph-name="uni2117" unicode="&#x2117;" horiz-adv-x="742" d="M371 704 Q445 704 508 677.5 Q571 651 617 603.5 Q663 556 689 491 Q715 426 715 350 Q715 274 689 209 Q663 144 617 97 Q571 50 508 23 Q445 -4 371 -4 Q297 -4 234 23 Q171 50 125 97 Q79 144 53 209 Q27 274 27 350 Q27 426 53 491 Q79 556 125 603.5 Q171 651 234 677.5 Q297 704 371 704 Z M371 654 Q308 654 254 631 Q200 608 161 567.5 Q122 527 100 471 Q78 415 78 350 Q78 285 100 229 Q122 173 161 132.5 Q200 92 254 69 Q308 46 371 46 Q434 46 488 69 Q542 92 581 132.5 Q620 173 642 229 Q664 285 664 350 Q664 415 642 471 Q620 527 581 567.5 Q542 608 488 631 Q434 654 371 654 Z M393 555 Q451 555 476 525.5 Q501 496 501 442 L501 396 Q501 339 474.5 311 Q448 283 389 283 L338 283 L338 127 L284 127 L284 555 L393 555 Z M386 334 Q418 334 432.5 350.5 Q447 367 447 402 L447 436 Q447 468 434.5 486.5 Q422 505 390 505 L338 505 L338 334 L386 334 Z " />
<glyph glyph-name="acute" unicode="&#xb4;" horiz-adv-x="223" d="M178 848 L85 745 L31 745 L101 848 L178 848 Z " />
<glyph glyph-name="breve" unicode="&#x2d8;" horiz-adv-x="252" d="M231 834 Q230 787 202.5 760 Q175 733 125 733 Q76 733 49.5 760 Q23 787 22 834 L69 834 Q71 805 86.5 793.5 Q102 782 125 782 Q150 782 165.5 793.5 Q181 805 183 834 L231 834 Z " />
<glyph glyph-name="caron" unicode="&#x2c7;" horiz-adv-x="250" d="M72 848 L125 788 L178 848 L246 848 L160 748 L91 748 L4 848 L72 848 Z " />
<glyph glyph-name="cedilla" unicode="&#xb8;" horiz-adv-x="249" d="M143 -39 Q177 -39 197 -49 Q217 -59 217 -88 Q217 -107 209.5 -119 Q202 -131 189 -137.5 Q176 -144 159 -146.5 Q142 -149 123 -149 Q105 -149 88 -146 Q71 -143 58.5 -136.5 Q46 -130 38.5 -118.5 Q31 -107 31 -90 L31 -82 L84 -82 L84 -89 Q84 -106 96.5 -112 Q109 -118 123 -119 Q139 -119 151 -111.5 Q163 -104 163 -86 Q163 -66 149.5 -60 Q136 -54 116 -54 L108 -54 L108 9 L143 9 L143 -39 Z " />
<glyph glyph-name="circumflex" unicode="&#x2c6;" horiz-adv-x="250" d="M72 748 L4 748 L91 848 L160 848 L246 748 L178 748 L125 807 L72 748 Z " />
<glyph glyph-name="dieresis" unicode="&#xa8;" horiz-adv-x="219" d="M103 831 L103 741 L35 741 L35 831 L103 831 Z M184 831 L184 741 L116 741 L116 831 L184 831 Z " />
<glyph glyph-name="dotaccent" unicode="&#x2d9;" horiz-adv-x="198" d="M133 833 L133 743 L65 743 L65 833 L133 833 Z " />
<glyph glyph-name="grave" unicode="&#x60;" horiz-adv-x="223" d="M124 848 L193 745 L136 745 L43 848 L124 848 Z " />
<glyph glyph-name="hungarumlaut" unicode="&#x2dd;" horiz-adv-x="242" d="M126 848 L46 745 L-4 745 L54 848 L126 848 Z M233 848 L153 745 L104 745 L161 848 L233 848 Z " />
<glyph glyph-name="macron" unicode="&#xaf;" horiz-adv-x="251" d="M232 800 L232 744 L20 744 L20 800 L232 800 Z " />
<glyph glyph-name="ogonek" unicode="&#x2db;" horiz-adv-x="227" d="M145 3 Q124 -13 114 -33.5 Q104 -54 105 -69 Q105 -85 116.5 -92 Q128 -99 142 -99 Q156 -99 165 -96.5 Q174 -94 182 -90 L182 -131 Q167 -138 152.5 -140.5 Q138 -143 120 -143 Q87 -143 66 -129.5 Q45 -116 45 -87 Q44 -62 61.5 -38.5 Q79 -15 111 3 L145 3 Z " />
<glyph glyph-name="ring" unicode="&#x2da;" horiz-adv-x="234" d="M117 887 Q148 887 169 866 Q190 845 190 814 Q190 783 169 762 Q148 741 117 741 Q86 741 64.5 762 Q43 783 43 814 Q43 845 64.5 866 Q86 887 117 887 Z M117 850 Q101 850 90.5 840 Q80 830 80 814 Q80 798 90.5 788 Q101 778 117 778 Q132 778 142.5 788 Q153 798 153 814 Q153 830 142.5 840 Q132 850 117 850 Z " />
<glyph glyph-name="tilde" unicode="&#x2dc;" horiz-adv-x="256" d="M250 802 Q239 772 220.5 758 Q202 744 179 744 Q164 744 152.5 748.5 Q141 753 130 758.5 Q119 764 109 768.5 Q99 773 87 773 Q73 773 63 767 Q53 761 45 744 L6 770 Q19 801 38 814.5 Q57 828 80 828 Q95 828 107 823.5 Q119 819 129.5 813.5 Q140 808 150.5 803.5 Q161 799 172 799 Q185 799 194.5 805.5 Q204 812 212 828 L250 802 Z " />
<glyph glyph-name="commaaccentcomb" unicode="&#xf6c3;" d="M102 -177 L73 -177 L96 -121 L71 -121 L71 -33 L137 -33 L137 -114 L102 -177 Z " />
<glyph glyph-name="uni02BC" unicode="&#x2bc;" horiz-adv-x="160" d="M81 515 L49 515 L74 603 L45 603 L45 700 L120 700 L120 611 L81 515 Z " />
<glyph glyph-name="A" unicode="A" horiz-adv-x="422" d="M119 141 L92 0 L20 0 L154 700 L267 700 L401 0 L323 0 L296 141 L119 141 Z M129 208 L285 208 L206 612 L129 208 Z " />
<glyph glyph-name="Aacute" unicode="&#xc1;" horiz-adv-x="422" d="M305 840 L213 737 L158 737 L228 840 L305 840 Z M119 141 L92 0 L20 0 L154 700 L267 700 L401 0 L323 0 L296 141 L119 141 Z M129 208 L285 208 L206 612 L129 208 Z " />
</font>
</svg>
